%TF.GenerationSoftware,KiCad,Pcbnew,9.0.3*%
%TF.CreationDate,2026-07-24T12:58:51+09:00*%
%TF.ProjectId,pinkbug_STM32_Training,70696e6b-6275-4675-9f53-544d33325f54,rev?*%
%TF.SameCoordinates,Original*%
%TF.FileFunction,Legend,Top*%
%TF.FilePolarity,Positive*%
%FSLAX46Y46*%
G04 Gerber Fmt 4.6, Leading zero omitted, Abs format (unit mm)*
G04 Created by KiCad (PCBNEW 9.0.3) date 2026-07-24 12:58:51*
%MOMM*%
%LPD*%
G01*
G04 APERTURE LIST*
%ADD10C,0.150000*%
%ADD11C,0.120000*%
%ADD12C,0.000000*%
%ADD13C,0.200000*%
%ADD14C,0.152400*%
G04 APERTURE END LIST*
D10*
X121524150Y-87560600D02*
X121667007Y-87608219D01*
X121667007Y-87608219D02*
X121714626Y-87655838D01*
X121714626Y-87655838D02*
X121762245Y-87751076D01*
X121762245Y-87751076D02*
X121762245Y-87893933D01*
X121762245Y-87893933D02*
X121714626Y-87989171D01*
X121714626Y-87989171D02*
X121667007Y-88036791D01*
X121667007Y-88036791D02*
X121571769Y-88084410D01*
X121571769Y-88084410D02*
X121190817Y-88084410D01*
X121190817Y-88084410D02*
X121190817Y-87084410D01*
X121190817Y-87084410D02*
X121524150Y-87084410D01*
X121524150Y-87084410D02*
X121619388Y-87132029D01*
X121619388Y-87132029D02*
X121667007Y-87179648D01*
X121667007Y-87179648D02*
X121714626Y-87274886D01*
X121714626Y-87274886D02*
X121714626Y-87370124D01*
X121714626Y-87370124D02*
X121667007Y-87465362D01*
X121667007Y-87465362D02*
X121619388Y-87512981D01*
X121619388Y-87512981D02*
X121524150Y-87560600D01*
X121524150Y-87560600D02*
X121190817Y-87560600D01*
X123981293Y-87084410D02*
X124171769Y-87084410D01*
X124171769Y-87084410D02*
X124267007Y-87132029D01*
X124267007Y-87132029D02*
X124362245Y-87227267D01*
X124362245Y-87227267D02*
X124409864Y-87417743D01*
X124409864Y-87417743D02*
X124409864Y-87751076D01*
X124409864Y-87751076D02*
X124362245Y-87941552D01*
X124362245Y-87941552D02*
X124267007Y-88036791D01*
X124267007Y-88036791D02*
X124171769Y-88084410D01*
X124171769Y-88084410D02*
X123981293Y-88084410D01*
X123981293Y-88084410D02*
X123886055Y-88036791D01*
X123886055Y-88036791D02*
X123790817Y-87941552D01*
X123790817Y-87941552D02*
X123743198Y-87751076D01*
X123743198Y-87751076D02*
X123743198Y-87417743D01*
X123743198Y-87417743D02*
X123790817Y-87227267D01*
X123790817Y-87227267D02*
X123886055Y-87132029D01*
X123886055Y-87132029D02*
X123981293Y-87084410D01*
X119060588Y-87317438D02*
X118965350Y-87269819D01*
X118965350Y-87269819D02*
X118822493Y-87269819D01*
X118822493Y-87269819D02*
X118679636Y-87317438D01*
X118679636Y-87317438D02*
X118584398Y-87412676D01*
X118584398Y-87412676D02*
X118536779Y-87507914D01*
X118536779Y-87507914D02*
X118489160Y-87698390D01*
X118489160Y-87698390D02*
X118489160Y-87841247D01*
X118489160Y-87841247D02*
X118536779Y-88031723D01*
X118536779Y-88031723D02*
X118584398Y-88126961D01*
X118584398Y-88126961D02*
X118679636Y-88222200D01*
X118679636Y-88222200D02*
X118822493Y-88269819D01*
X118822493Y-88269819D02*
X118917731Y-88269819D01*
X118917731Y-88269819D02*
X119060588Y-88222200D01*
X119060588Y-88222200D02*
X119108207Y-88174580D01*
X119108207Y-88174580D02*
X119108207Y-87841247D01*
X119108207Y-87841247D02*
X118917731Y-87841247D01*
X126962245Y-88084410D02*
X126628912Y-87608219D01*
X126390817Y-88084410D02*
X126390817Y-87084410D01*
X126390817Y-87084410D02*
X126771769Y-87084410D01*
X126771769Y-87084410D02*
X126867007Y-87132029D01*
X126867007Y-87132029D02*
X126914626Y-87179648D01*
X126914626Y-87179648D02*
X126962245Y-87274886D01*
X126962245Y-87274886D02*
X126962245Y-87417743D01*
X126962245Y-87417743D02*
X126914626Y-87512981D01*
X126914626Y-87512981D02*
X126867007Y-87560600D01*
X126867007Y-87560600D02*
X126771769Y-87608219D01*
X126771769Y-87608219D02*
X126390817Y-87608219D01*
X69336779Y-124259875D02*
X69336779Y-123259875D01*
X69336779Y-123259875D02*
X69717731Y-123259875D01*
X69717731Y-123259875D02*
X69812969Y-123307494D01*
X69812969Y-123307494D02*
X69860588Y-123355113D01*
X69860588Y-123355113D02*
X69908207Y-123450351D01*
X69908207Y-123450351D02*
X69908207Y-123593208D01*
X69908207Y-123593208D02*
X69860588Y-123688446D01*
X69860588Y-123688446D02*
X69812969Y-123736065D01*
X69812969Y-123736065D02*
X69717731Y-123783684D01*
X69717731Y-123783684D02*
X69336779Y-123783684D01*
X70336779Y-124259875D02*
X70336779Y-123593208D01*
X70336779Y-123259875D02*
X70289160Y-123307494D01*
X70289160Y-123307494D02*
X70336779Y-123355113D01*
X70336779Y-123355113D02*
X70384398Y-123307494D01*
X70384398Y-123307494D02*
X70336779Y-123259875D01*
X70336779Y-123259875D02*
X70336779Y-123355113D01*
X70812969Y-123593208D02*
X70812969Y-124259875D01*
X70812969Y-123688446D02*
X70860588Y-123640827D01*
X70860588Y-123640827D02*
X70955826Y-123593208D01*
X70955826Y-123593208D02*
X71098683Y-123593208D01*
X71098683Y-123593208D02*
X71193921Y-123640827D01*
X71193921Y-123640827D02*
X71241540Y-123736065D01*
X71241540Y-123736065D02*
X71241540Y-124259875D01*
X71717731Y-124259875D02*
X71717731Y-123259875D01*
X71812969Y-123878922D02*
X72098683Y-124259875D01*
X72098683Y-123593208D02*
X71717731Y-123974160D01*
X72860588Y-123736065D02*
X73003445Y-123783684D01*
X73003445Y-123783684D02*
X73051064Y-123831303D01*
X73051064Y-123831303D02*
X73098683Y-123926541D01*
X73098683Y-123926541D02*
X73098683Y-124069398D01*
X73098683Y-124069398D02*
X73051064Y-124164636D01*
X73051064Y-124164636D02*
X73003445Y-124212256D01*
X73003445Y-124212256D02*
X72908207Y-124259875D01*
X72908207Y-124259875D02*
X72527255Y-124259875D01*
X72527255Y-124259875D02*
X72527255Y-123259875D01*
X72527255Y-123259875D02*
X72860588Y-123259875D01*
X72860588Y-123259875D02*
X72955826Y-123307494D01*
X72955826Y-123307494D02*
X73003445Y-123355113D01*
X73003445Y-123355113D02*
X73051064Y-123450351D01*
X73051064Y-123450351D02*
X73051064Y-123545589D01*
X73051064Y-123545589D02*
X73003445Y-123640827D01*
X73003445Y-123640827D02*
X72955826Y-123688446D01*
X72955826Y-123688446D02*
X72860588Y-123736065D01*
X72860588Y-123736065D02*
X72527255Y-123736065D01*
X73955826Y-123593208D02*
X73955826Y-124259875D01*
X73527255Y-123593208D02*
X73527255Y-124117017D01*
X73527255Y-124117017D02*
X73574874Y-124212256D01*
X73574874Y-124212256D02*
X73670112Y-124259875D01*
X73670112Y-124259875D02*
X73812969Y-124259875D01*
X73812969Y-124259875D02*
X73908207Y-124212256D01*
X73908207Y-124212256D02*
X73955826Y-124164636D01*
X74860588Y-123593208D02*
X74860588Y-124402732D01*
X74860588Y-124402732D02*
X74812969Y-124497970D01*
X74812969Y-124497970D02*
X74765350Y-124545589D01*
X74765350Y-124545589D02*
X74670112Y-124593208D01*
X74670112Y-124593208D02*
X74527255Y-124593208D01*
X74527255Y-124593208D02*
X74432017Y-124545589D01*
X74860588Y-124212256D02*
X74765350Y-124259875D01*
X74765350Y-124259875D02*
X74574874Y-124259875D01*
X74574874Y-124259875D02*
X74479636Y-124212256D01*
X74479636Y-124212256D02*
X74432017Y-124164636D01*
X74432017Y-124164636D02*
X74384398Y-124069398D01*
X74384398Y-124069398D02*
X74384398Y-123783684D01*
X74384398Y-123783684D02*
X74432017Y-123688446D01*
X74432017Y-123688446D02*
X74479636Y-123640827D01*
X74479636Y-123640827D02*
X74574874Y-123593208D01*
X74574874Y-123593208D02*
X74765350Y-123593208D01*
X74765350Y-123593208D02*
X74860588Y-123640827D01*
X76574874Y-124259875D02*
X76098684Y-124259875D01*
X76098684Y-124259875D02*
X76098684Y-123259875D01*
X77336779Y-124259875D02*
X77336779Y-123736065D01*
X77336779Y-123736065D02*
X77289160Y-123640827D01*
X77289160Y-123640827D02*
X77193922Y-123593208D01*
X77193922Y-123593208D02*
X77003446Y-123593208D01*
X77003446Y-123593208D02*
X76908208Y-123640827D01*
X77336779Y-124212256D02*
X77241541Y-124259875D01*
X77241541Y-124259875D02*
X77003446Y-124259875D01*
X77003446Y-124259875D02*
X76908208Y-124212256D01*
X76908208Y-124212256D02*
X76860589Y-124117017D01*
X76860589Y-124117017D02*
X76860589Y-124021779D01*
X76860589Y-124021779D02*
X76908208Y-123926541D01*
X76908208Y-123926541D02*
X77003446Y-123878922D01*
X77003446Y-123878922D02*
X77241541Y-123878922D01*
X77241541Y-123878922D02*
X77336779Y-123831303D01*
X77812970Y-124259875D02*
X77812970Y-123259875D01*
X77812970Y-123640827D02*
X77908208Y-123593208D01*
X77908208Y-123593208D02*
X78098684Y-123593208D01*
X78098684Y-123593208D02*
X78193922Y-123640827D01*
X78193922Y-123640827D02*
X78241541Y-123688446D01*
X78241541Y-123688446D02*
X78289160Y-123783684D01*
X78289160Y-123783684D02*
X78289160Y-124069398D01*
X78289160Y-124069398D02*
X78241541Y-124164636D01*
X78241541Y-124164636D02*
X78193922Y-124212256D01*
X78193922Y-124212256D02*
X78098684Y-124259875D01*
X78098684Y-124259875D02*
X77908208Y-124259875D01*
X77908208Y-124259875D02*
X77812970Y-124212256D01*
X78717732Y-124164636D02*
X78765351Y-124212256D01*
X78765351Y-124212256D02*
X78717732Y-124259875D01*
X78717732Y-124259875D02*
X78670113Y-124212256D01*
X78670113Y-124212256D02*
X78717732Y-124164636D01*
X78717732Y-124164636D02*
X78717732Y-124259875D01*
X69289160Y-125822200D02*
X69432017Y-125869819D01*
X69432017Y-125869819D02*
X69670112Y-125869819D01*
X69670112Y-125869819D02*
X69765350Y-125822200D01*
X69765350Y-125822200D02*
X69812969Y-125774580D01*
X69812969Y-125774580D02*
X69860588Y-125679342D01*
X69860588Y-125679342D02*
X69860588Y-125584104D01*
X69860588Y-125584104D02*
X69812969Y-125488866D01*
X69812969Y-125488866D02*
X69765350Y-125441247D01*
X69765350Y-125441247D02*
X69670112Y-125393628D01*
X69670112Y-125393628D02*
X69479636Y-125346009D01*
X69479636Y-125346009D02*
X69384398Y-125298390D01*
X69384398Y-125298390D02*
X69336779Y-125250771D01*
X69336779Y-125250771D02*
X69289160Y-125155533D01*
X69289160Y-125155533D02*
X69289160Y-125060295D01*
X69289160Y-125060295D02*
X69336779Y-124965057D01*
X69336779Y-124965057D02*
X69384398Y-124917438D01*
X69384398Y-124917438D02*
X69479636Y-124869819D01*
X69479636Y-124869819D02*
X69717731Y-124869819D01*
X69717731Y-124869819D02*
X69860588Y-124917438D01*
X70146303Y-124869819D02*
X70717731Y-124869819D01*
X70432017Y-125869819D02*
X70432017Y-124869819D01*
X71051065Y-125869819D02*
X71051065Y-124869819D01*
X71051065Y-124869819D02*
X71384398Y-125584104D01*
X71384398Y-125584104D02*
X71717731Y-124869819D01*
X71717731Y-124869819D02*
X71717731Y-125869819D01*
X72098684Y-124869819D02*
X72717731Y-124869819D01*
X72717731Y-124869819D02*
X72384398Y-125250771D01*
X72384398Y-125250771D02*
X72527255Y-125250771D01*
X72527255Y-125250771D02*
X72622493Y-125298390D01*
X72622493Y-125298390D02*
X72670112Y-125346009D01*
X72670112Y-125346009D02*
X72717731Y-125441247D01*
X72717731Y-125441247D02*
X72717731Y-125679342D01*
X72717731Y-125679342D02*
X72670112Y-125774580D01*
X72670112Y-125774580D02*
X72622493Y-125822200D01*
X72622493Y-125822200D02*
X72527255Y-125869819D01*
X72527255Y-125869819D02*
X72241541Y-125869819D01*
X72241541Y-125869819D02*
X72146303Y-125822200D01*
X72146303Y-125822200D02*
X72098684Y-125774580D01*
X73098684Y-124965057D02*
X73146303Y-124917438D01*
X73146303Y-124917438D02*
X73241541Y-124869819D01*
X73241541Y-124869819D02*
X73479636Y-124869819D01*
X73479636Y-124869819D02*
X73574874Y-124917438D01*
X73574874Y-124917438D02*
X73622493Y-124965057D01*
X73622493Y-124965057D02*
X73670112Y-125060295D01*
X73670112Y-125060295D02*
X73670112Y-125155533D01*
X73670112Y-125155533D02*
X73622493Y-125298390D01*
X73622493Y-125298390D02*
X73051065Y-125869819D01*
X73051065Y-125869819D02*
X73670112Y-125869819D01*
X74432017Y-125346009D02*
X74098684Y-125346009D01*
X74098684Y-125869819D02*
X74098684Y-124869819D01*
X74098684Y-124869819D02*
X74574874Y-124869819D01*
X75574875Y-124869819D02*
X76146303Y-124869819D01*
X75860589Y-125869819D02*
X75860589Y-124869819D01*
X76479637Y-125869819D02*
X76479637Y-125203152D01*
X76479637Y-125393628D02*
X76527256Y-125298390D01*
X76527256Y-125298390D02*
X76574875Y-125250771D01*
X76574875Y-125250771D02*
X76670113Y-125203152D01*
X76670113Y-125203152D02*
X76765351Y-125203152D01*
X77527256Y-125869819D02*
X77527256Y-125346009D01*
X77527256Y-125346009D02*
X77479637Y-125250771D01*
X77479637Y-125250771D02*
X77384399Y-125203152D01*
X77384399Y-125203152D02*
X77193923Y-125203152D01*
X77193923Y-125203152D02*
X77098685Y-125250771D01*
X77527256Y-125822200D02*
X77432018Y-125869819D01*
X77432018Y-125869819D02*
X77193923Y-125869819D01*
X77193923Y-125869819D02*
X77098685Y-125822200D01*
X77098685Y-125822200D02*
X77051066Y-125726961D01*
X77051066Y-125726961D02*
X77051066Y-125631723D01*
X77051066Y-125631723D02*
X77098685Y-125536485D01*
X77098685Y-125536485D02*
X77193923Y-125488866D01*
X77193923Y-125488866D02*
X77432018Y-125488866D01*
X77432018Y-125488866D02*
X77527256Y-125441247D01*
X78003447Y-125203152D02*
X78003447Y-125869819D01*
X78003447Y-125298390D02*
X78051066Y-125250771D01*
X78051066Y-125250771D02*
X78146304Y-125203152D01*
X78146304Y-125203152D02*
X78289161Y-125203152D01*
X78289161Y-125203152D02*
X78384399Y-125250771D01*
X78384399Y-125250771D02*
X78432018Y-125346009D01*
X78432018Y-125346009D02*
X78432018Y-125869819D01*
X78908209Y-125869819D02*
X78908209Y-125203152D01*
X78908209Y-124869819D02*
X78860590Y-124917438D01*
X78860590Y-124917438D02*
X78908209Y-124965057D01*
X78908209Y-124965057D02*
X78955828Y-124917438D01*
X78955828Y-124917438D02*
X78908209Y-124869819D01*
X78908209Y-124869819D02*
X78908209Y-124965057D01*
X79384399Y-125203152D02*
X79384399Y-125869819D01*
X79384399Y-125298390D02*
X79432018Y-125250771D01*
X79432018Y-125250771D02*
X79527256Y-125203152D01*
X79527256Y-125203152D02*
X79670113Y-125203152D01*
X79670113Y-125203152D02*
X79765351Y-125250771D01*
X79765351Y-125250771D02*
X79812970Y-125346009D01*
X79812970Y-125346009D02*
X79812970Y-125869819D01*
X80289161Y-125869819D02*
X80289161Y-125203152D01*
X80289161Y-124869819D02*
X80241542Y-124917438D01*
X80241542Y-124917438D02*
X80289161Y-124965057D01*
X80289161Y-124965057D02*
X80336780Y-124917438D01*
X80336780Y-124917438D02*
X80289161Y-124869819D01*
X80289161Y-124869819D02*
X80289161Y-124965057D01*
X80765351Y-125203152D02*
X80765351Y-125869819D01*
X80765351Y-125298390D02*
X80812970Y-125250771D01*
X80812970Y-125250771D02*
X80908208Y-125203152D01*
X80908208Y-125203152D02*
X81051065Y-125203152D01*
X81051065Y-125203152D02*
X81146303Y-125250771D01*
X81146303Y-125250771D02*
X81193922Y-125346009D01*
X81193922Y-125346009D02*
X81193922Y-125869819D01*
X82098684Y-125203152D02*
X82098684Y-126012676D01*
X82098684Y-126012676D02*
X82051065Y-126107914D01*
X82051065Y-126107914D02*
X82003446Y-126155533D01*
X82003446Y-126155533D02*
X81908208Y-126203152D01*
X81908208Y-126203152D02*
X81765351Y-126203152D01*
X81765351Y-126203152D02*
X81670113Y-126155533D01*
X82098684Y-125822200D02*
X82003446Y-125869819D01*
X82003446Y-125869819D02*
X81812970Y-125869819D01*
X81812970Y-125869819D02*
X81717732Y-125822200D01*
X81717732Y-125822200D02*
X81670113Y-125774580D01*
X81670113Y-125774580D02*
X81622494Y-125679342D01*
X81622494Y-125679342D02*
X81622494Y-125393628D01*
X81622494Y-125393628D02*
X81670113Y-125298390D01*
X81670113Y-125298390D02*
X81717732Y-125250771D01*
X81717732Y-125250771D02*
X81812970Y-125203152D01*
X81812970Y-125203152D02*
X82003446Y-125203152D01*
X82003446Y-125203152D02*
X82098684Y-125250771D01*
X83193923Y-124869819D02*
X83527256Y-125869819D01*
X83527256Y-125869819D02*
X83860589Y-124869819D01*
X84717732Y-125869819D02*
X84146304Y-125869819D01*
X84432018Y-125869819D02*
X84432018Y-124869819D01*
X84432018Y-124869819D02*
X84336780Y-125012676D01*
X84336780Y-125012676D02*
X84241542Y-125107914D01*
X84241542Y-125107914D02*
X84146304Y-125155533D01*
X85146304Y-125774580D02*
X85193923Y-125822200D01*
X85193923Y-125822200D02*
X85146304Y-125869819D01*
X85146304Y-125869819D02*
X85098685Y-125822200D01*
X85098685Y-125822200D02*
X85146304Y-125774580D01*
X85146304Y-125774580D02*
X85146304Y-125869819D01*
X85812970Y-124869819D02*
X85908208Y-124869819D01*
X85908208Y-124869819D02*
X86003446Y-124917438D01*
X86003446Y-124917438D02*
X86051065Y-124965057D01*
X86051065Y-124965057D02*
X86098684Y-125060295D01*
X86098684Y-125060295D02*
X86146303Y-125250771D01*
X86146303Y-125250771D02*
X86146303Y-125488866D01*
X86146303Y-125488866D02*
X86098684Y-125679342D01*
X86098684Y-125679342D02*
X86051065Y-125774580D01*
X86051065Y-125774580D02*
X86003446Y-125822200D01*
X86003446Y-125822200D02*
X85908208Y-125869819D01*
X85908208Y-125869819D02*
X85812970Y-125869819D01*
X85812970Y-125869819D02*
X85717732Y-125822200D01*
X85717732Y-125822200D02*
X85670113Y-125774580D01*
X85670113Y-125774580D02*
X85622494Y-125679342D01*
X85622494Y-125679342D02*
X85574875Y-125488866D01*
X85574875Y-125488866D02*
X85574875Y-125250771D01*
X85574875Y-125250771D02*
X85622494Y-125060295D01*
X85622494Y-125060295D02*
X85670113Y-124965057D01*
X85670113Y-124965057D02*
X85717732Y-124917438D01*
X85717732Y-124917438D02*
X85812970Y-124869819D01*
X128406482Y-91799693D02*
X129113589Y-91092587D01*
X129113589Y-91092587D02*
X129281948Y-91260945D01*
X129281948Y-91260945D02*
X129349291Y-91395632D01*
X129349291Y-91395632D02*
X129349291Y-91530319D01*
X129349291Y-91530319D02*
X129315619Y-91631335D01*
X129315619Y-91631335D02*
X129214604Y-91799693D01*
X129214604Y-91799693D02*
X129113589Y-91900709D01*
X129113589Y-91900709D02*
X128945230Y-92001724D01*
X128945230Y-92001724D02*
X128844215Y-92035396D01*
X128844215Y-92035396D02*
X128709528Y-92035396D01*
X128709528Y-92035396D02*
X128574841Y-91968052D01*
X128574841Y-91968052D02*
X128406482Y-91799693D01*
X129888039Y-92338441D02*
X129416635Y-92809846D01*
X129989054Y-91900709D02*
X129315619Y-92237426D01*
X129315619Y-92237426D02*
X129753352Y-92675159D01*
X117954819Y-132642857D02*
X117478628Y-132976190D01*
X117954819Y-133214285D02*
X116954819Y-133214285D01*
X116954819Y-133214285D02*
X116954819Y-132833333D01*
X116954819Y-132833333D02*
X117002438Y-132738095D01*
X117002438Y-132738095D02*
X117050057Y-132690476D01*
X117050057Y-132690476D02*
X117145295Y-132642857D01*
X117145295Y-132642857D02*
X117288152Y-132642857D01*
X117288152Y-132642857D02*
X117383390Y-132690476D01*
X117383390Y-132690476D02*
X117431009Y-132738095D01*
X117431009Y-132738095D02*
X117478628Y-132833333D01*
X117478628Y-132833333D02*
X117478628Y-133214285D01*
X117050057Y-132261904D02*
X117002438Y-132214285D01*
X117002438Y-132214285D02*
X116954819Y-132119047D01*
X116954819Y-132119047D02*
X116954819Y-131880952D01*
X116954819Y-131880952D02*
X117002438Y-131785714D01*
X117002438Y-131785714D02*
X117050057Y-131738095D01*
X117050057Y-131738095D02*
X117145295Y-131690476D01*
X117145295Y-131690476D02*
X117240533Y-131690476D01*
X117240533Y-131690476D02*
X117383390Y-131738095D01*
X117383390Y-131738095D02*
X117954819Y-132309523D01*
X117954819Y-132309523D02*
X117954819Y-131690476D01*
X117954819Y-130738095D02*
X117954819Y-131309523D01*
X117954819Y-131023809D02*
X116954819Y-131023809D01*
X116954819Y-131023809D02*
X117097676Y-131119047D01*
X117097676Y-131119047D02*
X117192914Y-131214285D01*
X117192914Y-131214285D02*
X117240533Y-131309523D01*
X64833333Y-127942077D02*
X64500000Y-127465886D01*
X64261905Y-127942077D02*
X64261905Y-126942077D01*
X64261905Y-126942077D02*
X64642857Y-126942077D01*
X64642857Y-126942077D02*
X64738095Y-126989696D01*
X64738095Y-126989696D02*
X64785714Y-127037315D01*
X64785714Y-127037315D02*
X64833333Y-127132553D01*
X64833333Y-127132553D02*
X64833333Y-127275410D01*
X64833333Y-127275410D02*
X64785714Y-127370648D01*
X64785714Y-127370648D02*
X64738095Y-127418267D01*
X64738095Y-127418267D02*
X64642857Y-127465886D01*
X64642857Y-127465886D02*
X64261905Y-127465886D01*
X65690476Y-127275410D02*
X65690476Y-127942077D01*
X65452381Y-126894458D02*
X65214286Y-127608743D01*
X65214286Y-127608743D02*
X65833333Y-127608743D01*
X86654761Y-123454819D02*
X86321428Y-122978628D01*
X86083333Y-123454819D02*
X86083333Y-122454819D01*
X86083333Y-122454819D02*
X86464285Y-122454819D01*
X86464285Y-122454819D02*
X86559523Y-122502438D01*
X86559523Y-122502438D02*
X86607142Y-122550057D01*
X86607142Y-122550057D02*
X86654761Y-122645295D01*
X86654761Y-122645295D02*
X86654761Y-122788152D01*
X86654761Y-122788152D02*
X86607142Y-122883390D01*
X86607142Y-122883390D02*
X86559523Y-122931009D01*
X86559523Y-122931009D02*
X86464285Y-122978628D01*
X86464285Y-122978628D02*
X86083333Y-122978628D01*
X86940476Y-122454819D02*
X87273809Y-123454819D01*
X87273809Y-123454819D02*
X87607142Y-122454819D01*
X88464285Y-123454819D02*
X87892857Y-123454819D01*
X88178571Y-123454819D02*
X88178571Y-122454819D01*
X88178571Y-122454819D02*
X88083333Y-122597676D01*
X88083333Y-122597676D02*
X87988095Y-122692914D01*
X87988095Y-122692914D02*
X87892857Y-122740533D01*
X118273809Y-109728628D02*
X118273809Y-110204819D01*
X117940476Y-109204819D02*
X118273809Y-109728628D01*
X118273809Y-109728628D02*
X118607142Y-109204819D01*
X119464285Y-110204819D02*
X118892857Y-110204819D01*
X119178571Y-110204819D02*
X119178571Y-109204819D01*
X119178571Y-109204819D02*
X119083333Y-109347676D01*
X119083333Y-109347676D02*
X118988095Y-109442914D01*
X118988095Y-109442914D02*
X118892857Y-109490533D01*
X145583333Y-127954819D02*
X145250000Y-127478628D01*
X145011905Y-127954819D02*
X145011905Y-126954819D01*
X145011905Y-126954819D02*
X145392857Y-126954819D01*
X145392857Y-126954819D02*
X145488095Y-127002438D01*
X145488095Y-127002438D02*
X145535714Y-127050057D01*
X145535714Y-127050057D02*
X145583333Y-127145295D01*
X145583333Y-127145295D02*
X145583333Y-127288152D01*
X145583333Y-127288152D02*
X145535714Y-127383390D01*
X145535714Y-127383390D02*
X145488095Y-127431009D01*
X145488095Y-127431009D02*
X145392857Y-127478628D01*
X145392857Y-127478628D02*
X145011905Y-127478628D01*
X145964286Y-127050057D02*
X146011905Y-127002438D01*
X146011905Y-127002438D02*
X146107143Y-126954819D01*
X146107143Y-126954819D02*
X146345238Y-126954819D01*
X146345238Y-126954819D02*
X146440476Y-127002438D01*
X146440476Y-127002438D02*
X146488095Y-127050057D01*
X146488095Y-127050057D02*
X146535714Y-127145295D01*
X146535714Y-127145295D02*
X146535714Y-127240533D01*
X146535714Y-127240533D02*
X146488095Y-127383390D01*
X146488095Y-127383390D02*
X145916667Y-127954819D01*
X145916667Y-127954819D02*
X146535714Y-127954819D01*
X140916666Y-91704819D02*
X140916666Y-92419104D01*
X140916666Y-92419104D02*
X140869047Y-92561961D01*
X140869047Y-92561961D02*
X140773809Y-92657200D01*
X140773809Y-92657200D02*
X140630952Y-92704819D01*
X140630952Y-92704819D02*
X140535714Y-92704819D01*
X141916666Y-92704819D02*
X141345238Y-92704819D01*
X141630952Y-92704819D02*
X141630952Y-91704819D01*
X141630952Y-91704819D02*
X141535714Y-91847676D01*
X141535714Y-91847676D02*
X141440476Y-91942914D01*
X141440476Y-91942914D02*
X141345238Y-91990533D01*
X87454819Y-132642857D02*
X86978628Y-132976190D01*
X87454819Y-133214285D02*
X86454819Y-133214285D01*
X86454819Y-133214285D02*
X86454819Y-132833333D01*
X86454819Y-132833333D02*
X86502438Y-132738095D01*
X86502438Y-132738095D02*
X86550057Y-132690476D01*
X86550057Y-132690476D02*
X86645295Y-132642857D01*
X86645295Y-132642857D02*
X86788152Y-132642857D01*
X86788152Y-132642857D02*
X86883390Y-132690476D01*
X86883390Y-132690476D02*
X86931009Y-132738095D01*
X86931009Y-132738095D02*
X86978628Y-132833333D01*
X86978628Y-132833333D02*
X86978628Y-133214285D01*
X87454819Y-131690476D02*
X87454819Y-132261904D01*
X87454819Y-131976190D02*
X86454819Y-131976190D01*
X86454819Y-131976190D02*
X86597676Y-132071428D01*
X86597676Y-132071428D02*
X86692914Y-132166666D01*
X86692914Y-132166666D02*
X86740533Y-132261904D01*
X86454819Y-131357142D02*
X86454819Y-130690476D01*
X86454819Y-130690476D02*
X87454819Y-131119047D01*
X114333333Y-96204819D02*
X114000000Y-95728628D01*
X113761905Y-96204819D02*
X113761905Y-95204819D01*
X113761905Y-95204819D02*
X114142857Y-95204819D01*
X114142857Y-95204819D02*
X114238095Y-95252438D01*
X114238095Y-95252438D02*
X114285714Y-95300057D01*
X114285714Y-95300057D02*
X114333333Y-95395295D01*
X114333333Y-95395295D02*
X114333333Y-95538152D01*
X114333333Y-95538152D02*
X114285714Y-95633390D01*
X114285714Y-95633390D02*
X114238095Y-95681009D01*
X114238095Y-95681009D02*
X114142857Y-95728628D01*
X114142857Y-95728628D02*
X113761905Y-95728628D01*
X114809524Y-96204819D02*
X115000000Y-96204819D01*
X115000000Y-96204819D02*
X115095238Y-96157200D01*
X115095238Y-96157200D02*
X115142857Y-96109580D01*
X115142857Y-96109580D02*
X115238095Y-95966723D01*
X115238095Y-95966723D02*
X115285714Y-95776247D01*
X115285714Y-95776247D02*
X115285714Y-95395295D01*
X115285714Y-95395295D02*
X115238095Y-95300057D01*
X115238095Y-95300057D02*
X115190476Y-95252438D01*
X115190476Y-95252438D02*
X115095238Y-95204819D01*
X115095238Y-95204819D02*
X114904762Y-95204819D01*
X114904762Y-95204819D02*
X114809524Y-95252438D01*
X114809524Y-95252438D02*
X114761905Y-95300057D01*
X114761905Y-95300057D02*
X114714286Y-95395295D01*
X114714286Y-95395295D02*
X114714286Y-95633390D01*
X114714286Y-95633390D02*
X114761905Y-95728628D01*
X114761905Y-95728628D02*
X114809524Y-95776247D01*
X114809524Y-95776247D02*
X114904762Y-95823866D01*
X114904762Y-95823866D02*
X115095238Y-95823866D01*
X115095238Y-95823866D02*
X115190476Y-95776247D01*
X115190476Y-95776247D02*
X115238095Y-95728628D01*
X115238095Y-95728628D02*
X115285714Y-95633390D01*
X132636411Y-103122112D02*
X132636411Y-103189456D01*
X132636411Y-103189456D02*
X132569067Y-103324143D01*
X132569067Y-103324143D02*
X132501724Y-103391486D01*
X132501724Y-103391486D02*
X132367037Y-103458830D01*
X132367037Y-103458830D02*
X132232350Y-103458830D01*
X132232350Y-103458830D02*
X132131335Y-103425158D01*
X132131335Y-103425158D02*
X131962976Y-103324143D01*
X131962976Y-103324143D02*
X131861961Y-103223128D01*
X131861961Y-103223128D02*
X131760945Y-103054769D01*
X131760945Y-103054769D02*
X131727274Y-102953754D01*
X131727274Y-102953754D02*
X131727274Y-102819067D01*
X131727274Y-102819067D02*
X131794617Y-102684380D01*
X131794617Y-102684380D02*
X131861961Y-102617036D01*
X131861961Y-102617036D02*
X131996648Y-102549693D01*
X131996648Y-102549693D02*
X132063991Y-102549693D01*
X132232350Y-102246647D02*
X132670083Y-101808914D01*
X132670083Y-101808914D02*
X132703754Y-102313990D01*
X132703754Y-102313990D02*
X132804770Y-102212975D01*
X132804770Y-102212975D02*
X132905785Y-102179303D01*
X132905785Y-102179303D02*
X132973128Y-102179303D01*
X132973128Y-102179303D02*
X133074144Y-102212975D01*
X133074144Y-102212975D02*
X133242502Y-102381334D01*
X133242502Y-102381334D02*
X133276174Y-102482349D01*
X133276174Y-102482349D02*
X133276174Y-102549693D01*
X133276174Y-102549693D02*
X133242502Y-102650708D01*
X133242502Y-102650708D02*
X133040472Y-102852738D01*
X133040472Y-102852738D02*
X132939457Y-102886410D01*
X132939457Y-102886410D02*
X132872113Y-102886410D01*
X104166667Y-135657200D02*
X104309524Y-135704819D01*
X104309524Y-135704819D02*
X104547619Y-135704819D01*
X104547619Y-135704819D02*
X104642857Y-135657200D01*
X104642857Y-135657200D02*
X104690476Y-135609580D01*
X104690476Y-135609580D02*
X104738095Y-135514342D01*
X104738095Y-135514342D02*
X104738095Y-135419104D01*
X104738095Y-135419104D02*
X104690476Y-135323866D01*
X104690476Y-135323866D02*
X104642857Y-135276247D01*
X104642857Y-135276247D02*
X104547619Y-135228628D01*
X104547619Y-135228628D02*
X104357143Y-135181009D01*
X104357143Y-135181009D02*
X104261905Y-135133390D01*
X104261905Y-135133390D02*
X104214286Y-135085771D01*
X104214286Y-135085771D02*
X104166667Y-134990533D01*
X104166667Y-134990533D02*
X104166667Y-134895295D01*
X104166667Y-134895295D02*
X104214286Y-134800057D01*
X104214286Y-134800057D02*
X104261905Y-134752438D01*
X104261905Y-134752438D02*
X104357143Y-134704819D01*
X104357143Y-134704819D02*
X104595238Y-134704819D01*
X104595238Y-134704819D02*
X104738095Y-134752438D01*
X105071429Y-134704819D02*
X105309524Y-135704819D01*
X105309524Y-135704819D02*
X105500000Y-134990533D01*
X105500000Y-134990533D02*
X105690476Y-135704819D01*
X105690476Y-135704819D02*
X105928572Y-134704819D01*
X106214286Y-134704819D02*
X106833333Y-134704819D01*
X106833333Y-134704819D02*
X106500000Y-135085771D01*
X106500000Y-135085771D02*
X106642857Y-135085771D01*
X106642857Y-135085771D02*
X106738095Y-135133390D01*
X106738095Y-135133390D02*
X106785714Y-135181009D01*
X106785714Y-135181009D02*
X106833333Y-135276247D01*
X106833333Y-135276247D02*
X106833333Y-135514342D01*
X106833333Y-135514342D02*
X106785714Y-135609580D01*
X106785714Y-135609580D02*
X106738095Y-135657200D01*
X106738095Y-135657200D02*
X106642857Y-135704819D01*
X106642857Y-135704819D02*
X106357143Y-135704819D01*
X106357143Y-135704819D02*
X106261905Y-135657200D01*
X106261905Y-135657200D02*
X106214286Y-135609580D01*
X67566666Y-95954819D02*
X67566666Y-96669104D01*
X67566666Y-96669104D02*
X67519047Y-96811961D01*
X67519047Y-96811961D02*
X67423809Y-96907200D01*
X67423809Y-96907200D02*
X67280952Y-96954819D01*
X67280952Y-96954819D02*
X67185714Y-96954819D01*
X67995238Y-96050057D02*
X68042857Y-96002438D01*
X68042857Y-96002438D02*
X68138095Y-95954819D01*
X68138095Y-95954819D02*
X68376190Y-95954819D01*
X68376190Y-95954819D02*
X68471428Y-96002438D01*
X68471428Y-96002438D02*
X68519047Y-96050057D01*
X68519047Y-96050057D02*
X68566666Y-96145295D01*
X68566666Y-96145295D02*
X68566666Y-96240533D01*
X68566666Y-96240533D02*
X68519047Y-96383390D01*
X68519047Y-96383390D02*
X67947619Y-96954819D01*
X67947619Y-96954819D02*
X68566666Y-96954819D01*
X121083333Y-104609580D02*
X121035714Y-104657200D01*
X121035714Y-104657200D02*
X120892857Y-104704819D01*
X120892857Y-104704819D02*
X120797619Y-104704819D01*
X120797619Y-104704819D02*
X120654762Y-104657200D01*
X120654762Y-104657200D02*
X120559524Y-104561961D01*
X120559524Y-104561961D02*
X120511905Y-104466723D01*
X120511905Y-104466723D02*
X120464286Y-104276247D01*
X120464286Y-104276247D02*
X120464286Y-104133390D01*
X120464286Y-104133390D02*
X120511905Y-103942914D01*
X120511905Y-103942914D02*
X120559524Y-103847676D01*
X120559524Y-103847676D02*
X120654762Y-103752438D01*
X120654762Y-103752438D02*
X120797619Y-103704819D01*
X120797619Y-103704819D02*
X120892857Y-103704819D01*
X120892857Y-103704819D02*
X121035714Y-103752438D01*
X121035714Y-103752438D02*
X121083333Y-103800057D01*
X121940476Y-104038152D02*
X121940476Y-104704819D01*
X121702381Y-103657200D02*
X121464286Y-104371485D01*
X121464286Y-104371485D02*
X122083333Y-104371485D01*
X77333333Y-98929580D02*
X77285714Y-98977200D01*
X77285714Y-98977200D02*
X77142857Y-99024819D01*
X77142857Y-99024819D02*
X77047619Y-99024819D01*
X77047619Y-99024819D02*
X76904762Y-98977200D01*
X76904762Y-98977200D02*
X76809524Y-98881961D01*
X76809524Y-98881961D02*
X76761905Y-98786723D01*
X76761905Y-98786723D02*
X76714286Y-98596247D01*
X76714286Y-98596247D02*
X76714286Y-98453390D01*
X76714286Y-98453390D02*
X76761905Y-98262914D01*
X76761905Y-98262914D02*
X76809524Y-98167676D01*
X76809524Y-98167676D02*
X76904762Y-98072438D01*
X76904762Y-98072438D02*
X77047619Y-98024819D01*
X77047619Y-98024819D02*
X77142857Y-98024819D01*
X77142857Y-98024819D02*
X77285714Y-98072438D01*
X77285714Y-98072438D02*
X77333333Y-98120057D01*
X78285714Y-99024819D02*
X77714286Y-99024819D01*
X78000000Y-99024819D02*
X78000000Y-98024819D01*
X78000000Y-98024819D02*
X77904762Y-98167676D01*
X77904762Y-98167676D02*
X77809524Y-98262914D01*
X77809524Y-98262914D02*
X77714286Y-98310533D01*
X89166667Y-135657200D02*
X89309524Y-135704819D01*
X89309524Y-135704819D02*
X89547619Y-135704819D01*
X89547619Y-135704819D02*
X89642857Y-135657200D01*
X89642857Y-135657200D02*
X89690476Y-135609580D01*
X89690476Y-135609580D02*
X89738095Y-135514342D01*
X89738095Y-135514342D02*
X89738095Y-135419104D01*
X89738095Y-135419104D02*
X89690476Y-135323866D01*
X89690476Y-135323866D02*
X89642857Y-135276247D01*
X89642857Y-135276247D02*
X89547619Y-135228628D01*
X89547619Y-135228628D02*
X89357143Y-135181009D01*
X89357143Y-135181009D02*
X89261905Y-135133390D01*
X89261905Y-135133390D02*
X89214286Y-135085771D01*
X89214286Y-135085771D02*
X89166667Y-134990533D01*
X89166667Y-134990533D02*
X89166667Y-134895295D01*
X89166667Y-134895295D02*
X89214286Y-134800057D01*
X89214286Y-134800057D02*
X89261905Y-134752438D01*
X89261905Y-134752438D02*
X89357143Y-134704819D01*
X89357143Y-134704819D02*
X89595238Y-134704819D01*
X89595238Y-134704819D02*
X89738095Y-134752438D01*
X90071429Y-134704819D02*
X90309524Y-135704819D01*
X90309524Y-135704819D02*
X90500000Y-134990533D01*
X90500000Y-134990533D02*
X90690476Y-135704819D01*
X90690476Y-135704819D02*
X90928572Y-134704819D01*
X91261905Y-134800057D02*
X91309524Y-134752438D01*
X91309524Y-134752438D02*
X91404762Y-134704819D01*
X91404762Y-134704819D02*
X91642857Y-134704819D01*
X91642857Y-134704819D02*
X91738095Y-134752438D01*
X91738095Y-134752438D02*
X91785714Y-134800057D01*
X91785714Y-134800057D02*
X91833333Y-134895295D01*
X91833333Y-134895295D02*
X91833333Y-134990533D01*
X91833333Y-134990533D02*
X91785714Y-135133390D01*
X91785714Y-135133390D02*
X91214286Y-135704819D01*
X91214286Y-135704819D02*
X91833333Y-135704819D01*
X78761905Y-109704819D02*
X78761905Y-108704819D01*
X78761905Y-108704819D02*
X79000000Y-108704819D01*
X79000000Y-108704819D02*
X79142857Y-108752438D01*
X79142857Y-108752438D02*
X79238095Y-108847676D01*
X79238095Y-108847676D02*
X79285714Y-108942914D01*
X79285714Y-108942914D02*
X79333333Y-109133390D01*
X79333333Y-109133390D02*
X79333333Y-109276247D01*
X79333333Y-109276247D02*
X79285714Y-109466723D01*
X79285714Y-109466723D02*
X79238095Y-109561961D01*
X79238095Y-109561961D02*
X79142857Y-109657200D01*
X79142857Y-109657200D02*
X79000000Y-109704819D01*
X79000000Y-109704819D02*
X78761905Y-109704819D01*
X80238095Y-108704819D02*
X79761905Y-108704819D01*
X79761905Y-108704819D02*
X79714286Y-109181009D01*
X79714286Y-109181009D02*
X79761905Y-109133390D01*
X79761905Y-109133390D02*
X79857143Y-109085771D01*
X79857143Y-109085771D02*
X80095238Y-109085771D01*
X80095238Y-109085771D02*
X80190476Y-109133390D01*
X80190476Y-109133390D02*
X80238095Y-109181009D01*
X80238095Y-109181009D02*
X80285714Y-109276247D01*
X80285714Y-109276247D02*
X80285714Y-109514342D01*
X80285714Y-109514342D02*
X80238095Y-109609580D01*
X80238095Y-109609580D02*
X80190476Y-109657200D01*
X80190476Y-109657200D02*
X80095238Y-109704819D01*
X80095238Y-109704819D02*
X79857143Y-109704819D01*
X79857143Y-109704819D02*
X79761905Y-109657200D01*
X79761905Y-109657200D02*
X79714286Y-109609580D01*
X132454819Y-132642857D02*
X131978628Y-132976190D01*
X132454819Y-133214285D02*
X131454819Y-133214285D01*
X131454819Y-133214285D02*
X131454819Y-132833333D01*
X131454819Y-132833333D02*
X131502438Y-132738095D01*
X131502438Y-132738095D02*
X131550057Y-132690476D01*
X131550057Y-132690476D02*
X131645295Y-132642857D01*
X131645295Y-132642857D02*
X131788152Y-132642857D01*
X131788152Y-132642857D02*
X131883390Y-132690476D01*
X131883390Y-132690476D02*
X131931009Y-132738095D01*
X131931009Y-132738095D02*
X131978628Y-132833333D01*
X131978628Y-132833333D02*
X131978628Y-133214285D01*
X131550057Y-132261904D02*
X131502438Y-132214285D01*
X131502438Y-132214285D02*
X131454819Y-132119047D01*
X131454819Y-132119047D02*
X131454819Y-131880952D01*
X131454819Y-131880952D02*
X131502438Y-131785714D01*
X131502438Y-131785714D02*
X131550057Y-131738095D01*
X131550057Y-131738095D02*
X131645295Y-131690476D01*
X131645295Y-131690476D02*
X131740533Y-131690476D01*
X131740533Y-131690476D02*
X131883390Y-131738095D01*
X131883390Y-131738095D02*
X132454819Y-132309523D01*
X132454819Y-132309523D02*
X132454819Y-131690476D01*
X131454819Y-131357142D02*
X131454819Y-130738095D01*
X131454819Y-130738095D02*
X131835771Y-131071428D01*
X131835771Y-131071428D02*
X131835771Y-130928571D01*
X131835771Y-130928571D02*
X131883390Y-130833333D01*
X131883390Y-130833333D02*
X131931009Y-130785714D01*
X131931009Y-130785714D02*
X132026247Y-130738095D01*
X132026247Y-130738095D02*
X132264342Y-130738095D01*
X132264342Y-130738095D02*
X132359580Y-130785714D01*
X132359580Y-130785714D02*
X132407200Y-130833333D01*
X132407200Y-130833333D02*
X132454819Y-130928571D01*
X132454819Y-130928571D02*
X132454819Y-131214285D01*
X132454819Y-131214285D02*
X132407200Y-131309523D01*
X132407200Y-131309523D02*
X132359580Y-131357142D01*
X116156482Y-90110856D02*
X116863589Y-89403750D01*
X116863589Y-89403750D02*
X117031948Y-89572108D01*
X117031948Y-89572108D02*
X117099291Y-89706795D01*
X117099291Y-89706795D02*
X117099291Y-89841482D01*
X117099291Y-89841482D02*
X117065619Y-89942498D01*
X117065619Y-89942498D02*
X116964604Y-90110856D01*
X116964604Y-90110856D02*
X116863589Y-90211872D01*
X116863589Y-90211872D02*
X116695230Y-90312887D01*
X116695230Y-90312887D02*
X116594215Y-90346559D01*
X116594215Y-90346559D02*
X116459528Y-90346559D01*
X116459528Y-90346559D02*
X116324841Y-90279215D01*
X116324841Y-90279215D02*
X116156482Y-90110856D01*
X117469680Y-90144528D02*
X117537024Y-90144528D01*
X117537024Y-90144528D02*
X117638039Y-90178200D01*
X117638039Y-90178200D02*
X117806398Y-90346559D01*
X117806398Y-90346559D02*
X117840070Y-90447574D01*
X117840070Y-90447574D02*
X117840070Y-90514917D01*
X117840070Y-90514917D02*
X117806398Y-90615933D01*
X117806398Y-90615933D02*
X117739054Y-90683276D01*
X117739054Y-90683276D02*
X117604367Y-90750620D01*
X117604367Y-90750620D02*
X116796245Y-90750620D01*
X116796245Y-90750620D02*
X117233978Y-91188352D01*
X115904761Y-123454819D02*
X115571428Y-122978628D01*
X115333333Y-123454819D02*
X115333333Y-122454819D01*
X115333333Y-122454819D02*
X115714285Y-122454819D01*
X115714285Y-122454819D02*
X115809523Y-122502438D01*
X115809523Y-122502438D02*
X115857142Y-122550057D01*
X115857142Y-122550057D02*
X115904761Y-122645295D01*
X115904761Y-122645295D02*
X115904761Y-122788152D01*
X115904761Y-122788152D02*
X115857142Y-122883390D01*
X115857142Y-122883390D02*
X115809523Y-122931009D01*
X115809523Y-122931009D02*
X115714285Y-122978628D01*
X115714285Y-122978628D02*
X115333333Y-122978628D01*
X116190476Y-122454819D02*
X116523809Y-123454819D01*
X116523809Y-123454819D02*
X116857142Y-122454819D01*
X117142857Y-122550057D02*
X117190476Y-122502438D01*
X117190476Y-122502438D02*
X117285714Y-122454819D01*
X117285714Y-122454819D02*
X117523809Y-122454819D01*
X117523809Y-122454819D02*
X117619047Y-122502438D01*
X117619047Y-122502438D02*
X117666666Y-122550057D01*
X117666666Y-122550057D02*
X117714285Y-122645295D01*
X117714285Y-122645295D02*
X117714285Y-122740533D01*
X117714285Y-122740533D02*
X117666666Y-122883390D01*
X117666666Y-122883390D02*
X117095238Y-123454819D01*
X117095238Y-123454819D02*
X117714285Y-123454819D01*
X103454819Y-132642857D02*
X102978628Y-132976190D01*
X103454819Y-133214285D02*
X102454819Y-133214285D01*
X102454819Y-133214285D02*
X102454819Y-132833333D01*
X102454819Y-132833333D02*
X102502438Y-132738095D01*
X102502438Y-132738095D02*
X102550057Y-132690476D01*
X102550057Y-132690476D02*
X102645295Y-132642857D01*
X102645295Y-132642857D02*
X102788152Y-132642857D01*
X102788152Y-132642857D02*
X102883390Y-132690476D01*
X102883390Y-132690476D02*
X102931009Y-132738095D01*
X102931009Y-132738095D02*
X102978628Y-132833333D01*
X102978628Y-132833333D02*
X102978628Y-133214285D01*
X103454819Y-131690476D02*
X103454819Y-132261904D01*
X103454819Y-131976190D02*
X102454819Y-131976190D01*
X102454819Y-131976190D02*
X102597676Y-132071428D01*
X102597676Y-132071428D02*
X102692914Y-132166666D01*
X102692914Y-132166666D02*
X102740533Y-132261904D01*
X103454819Y-131214285D02*
X103454819Y-131023809D01*
X103454819Y-131023809D02*
X103407200Y-130928571D01*
X103407200Y-130928571D02*
X103359580Y-130880952D01*
X103359580Y-130880952D02*
X103216723Y-130785714D01*
X103216723Y-130785714D02*
X103026247Y-130738095D01*
X103026247Y-130738095D02*
X102645295Y-130738095D01*
X102645295Y-130738095D02*
X102550057Y-130785714D01*
X102550057Y-130785714D02*
X102502438Y-130833333D01*
X102502438Y-130833333D02*
X102454819Y-130928571D01*
X102454819Y-130928571D02*
X102454819Y-131119047D01*
X102454819Y-131119047D02*
X102502438Y-131214285D01*
X102502438Y-131214285D02*
X102550057Y-131261904D01*
X102550057Y-131261904D02*
X102645295Y-131309523D01*
X102645295Y-131309523D02*
X102883390Y-131309523D01*
X102883390Y-131309523D02*
X102978628Y-131261904D01*
X102978628Y-131261904D02*
X103026247Y-131214285D01*
X103026247Y-131214285D02*
X103073866Y-131119047D01*
X103073866Y-131119047D02*
X103073866Y-130928571D01*
X103073866Y-130928571D02*
X103026247Y-130833333D01*
X103026247Y-130833333D02*
X102978628Y-130785714D01*
X102978628Y-130785714D02*
X102883390Y-130738095D01*
X78857142Y-106454819D02*
X78523809Y-105978628D01*
X78285714Y-106454819D02*
X78285714Y-105454819D01*
X78285714Y-105454819D02*
X78666666Y-105454819D01*
X78666666Y-105454819D02*
X78761904Y-105502438D01*
X78761904Y-105502438D02*
X78809523Y-105550057D01*
X78809523Y-105550057D02*
X78857142Y-105645295D01*
X78857142Y-105645295D02*
X78857142Y-105788152D01*
X78857142Y-105788152D02*
X78809523Y-105883390D01*
X78809523Y-105883390D02*
X78761904Y-105931009D01*
X78761904Y-105931009D02*
X78666666Y-105978628D01*
X78666666Y-105978628D02*
X78285714Y-105978628D01*
X79190476Y-105454819D02*
X79809523Y-105454819D01*
X79809523Y-105454819D02*
X79476190Y-105835771D01*
X79476190Y-105835771D02*
X79619047Y-105835771D01*
X79619047Y-105835771D02*
X79714285Y-105883390D01*
X79714285Y-105883390D02*
X79761904Y-105931009D01*
X79761904Y-105931009D02*
X79809523Y-106026247D01*
X79809523Y-106026247D02*
X79809523Y-106264342D01*
X79809523Y-106264342D02*
X79761904Y-106359580D01*
X79761904Y-106359580D02*
X79714285Y-106407200D01*
X79714285Y-106407200D02*
X79619047Y-106454819D01*
X79619047Y-106454819D02*
X79333333Y-106454819D01*
X79333333Y-106454819D02*
X79238095Y-106407200D01*
X79238095Y-106407200D02*
X79190476Y-106359580D01*
X80761904Y-106454819D02*
X80190476Y-106454819D01*
X80476190Y-106454819D02*
X80476190Y-105454819D01*
X80476190Y-105454819D02*
X80380952Y-105597676D01*
X80380952Y-105597676D02*
X80285714Y-105692914D01*
X80285714Y-105692914D02*
X80190476Y-105740533D01*
X149833333Y-96954819D02*
X149500000Y-96478628D01*
X149261905Y-96954819D02*
X149261905Y-95954819D01*
X149261905Y-95954819D02*
X149642857Y-95954819D01*
X149642857Y-95954819D02*
X149738095Y-96002438D01*
X149738095Y-96002438D02*
X149785714Y-96050057D01*
X149785714Y-96050057D02*
X149833333Y-96145295D01*
X149833333Y-96145295D02*
X149833333Y-96288152D01*
X149833333Y-96288152D02*
X149785714Y-96383390D01*
X149785714Y-96383390D02*
X149738095Y-96431009D01*
X149738095Y-96431009D02*
X149642857Y-96478628D01*
X149642857Y-96478628D02*
X149261905Y-96478628D01*
X150785714Y-96954819D02*
X150214286Y-96954819D01*
X150500000Y-96954819D02*
X150500000Y-95954819D01*
X150500000Y-95954819D02*
X150404762Y-96097676D01*
X150404762Y-96097676D02*
X150309524Y-96192914D01*
X150309524Y-96192914D02*
X150214286Y-96240533D01*
X130117036Y-103026174D02*
X129544617Y-102925159D01*
X129712975Y-103430235D02*
X129005869Y-102723128D01*
X129005869Y-102723128D02*
X129275243Y-102453754D01*
X129275243Y-102453754D02*
X129376258Y-102420082D01*
X129376258Y-102420082D02*
X129443601Y-102420082D01*
X129443601Y-102420082D02*
X129544617Y-102453754D01*
X129544617Y-102453754D02*
X129645632Y-102554769D01*
X129645632Y-102554769D02*
X129679304Y-102655785D01*
X129679304Y-102655785D02*
X129679304Y-102723128D01*
X129679304Y-102723128D02*
X129645632Y-102824143D01*
X129645632Y-102824143D02*
X129376258Y-103093517D01*
X130790471Y-102352739D02*
X130386410Y-102756800D01*
X130588441Y-102554769D02*
X129881334Y-101847663D01*
X129881334Y-101847663D02*
X129915006Y-102016021D01*
X129915006Y-102016021D02*
X129915006Y-102150708D01*
X129915006Y-102150708D02*
X129881334Y-102251724D01*
X131463907Y-101679304D02*
X131059846Y-102083365D01*
X131261876Y-101881334D02*
X130554769Y-101174227D01*
X130554769Y-101174227D02*
X130588441Y-101342586D01*
X130588441Y-101342586D02*
X130588441Y-101477273D01*
X130588441Y-101477273D02*
X130554769Y-101578288D01*
X116454819Y-132642857D02*
X115978628Y-132976190D01*
X116454819Y-133214285D02*
X115454819Y-133214285D01*
X115454819Y-133214285D02*
X115454819Y-132833333D01*
X115454819Y-132833333D02*
X115502438Y-132738095D01*
X115502438Y-132738095D02*
X115550057Y-132690476D01*
X115550057Y-132690476D02*
X115645295Y-132642857D01*
X115645295Y-132642857D02*
X115788152Y-132642857D01*
X115788152Y-132642857D02*
X115883390Y-132690476D01*
X115883390Y-132690476D02*
X115931009Y-132738095D01*
X115931009Y-132738095D02*
X115978628Y-132833333D01*
X115978628Y-132833333D02*
X115978628Y-133214285D01*
X115550057Y-132261904D02*
X115502438Y-132214285D01*
X115502438Y-132214285D02*
X115454819Y-132119047D01*
X115454819Y-132119047D02*
X115454819Y-131880952D01*
X115454819Y-131880952D02*
X115502438Y-131785714D01*
X115502438Y-131785714D02*
X115550057Y-131738095D01*
X115550057Y-131738095D02*
X115645295Y-131690476D01*
X115645295Y-131690476D02*
X115740533Y-131690476D01*
X115740533Y-131690476D02*
X115883390Y-131738095D01*
X115883390Y-131738095D02*
X116454819Y-132309523D01*
X116454819Y-132309523D02*
X116454819Y-131690476D01*
X115550057Y-131309523D02*
X115502438Y-131261904D01*
X115502438Y-131261904D02*
X115454819Y-131166666D01*
X115454819Y-131166666D02*
X115454819Y-130928571D01*
X115454819Y-130928571D02*
X115502438Y-130833333D01*
X115502438Y-130833333D02*
X115550057Y-130785714D01*
X115550057Y-130785714D02*
X115645295Y-130738095D01*
X115645295Y-130738095D02*
X115740533Y-130738095D01*
X115740533Y-130738095D02*
X115883390Y-130785714D01*
X115883390Y-130785714D02*
X116454819Y-131357142D01*
X116454819Y-131357142D02*
X116454819Y-130738095D01*
X140583333Y-106359580D02*
X140535714Y-106407200D01*
X140535714Y-106407200D02*
X140392857Y-106454819D01*
X140392857Y-106454819D02*
X140297619Y-106454819D01*
X140297619Y-106454819D02*
X140154762Y-106407200D01*
X140154762Y-106407200D02*
X140059524Y-106311961D01*
X140059524Y-106311961D02*
X140011905Y-106216723D01*
X140011905Y-106216723D02*
X139964286Y-106026247D01*
X139964286Y-106026247D02*
X139964286Y-105883390D01*
X139964286Y-105883390D02*
X140011905Y-105692914D01*
X140011905Y-105692914D02*
X140059524Y-105597676D01*
X140059524Y-105597676D02*
X140154762Y-105502438D01*
X140154762Y-105502438D02*
X140297619Y-105454819D01*
X140297619Y-105454819D02*
X140392857Y-105454819D01*
X140392857Y-105454819D02*
X140535714Y-105502438D01*
X140535714Y-105502438D02*
X140583333Y-105550057D01*
X140964286Y-105550057D02*
X141011905Y-105502438D01*
X141011905Y-105502438D02*
X141107143Y-105454819D01*
X141107143Y-105454819D02*
X141345238Y-105454819D01*
X141345238Y-105454819D02*
X141440476Y-105502438D01*
X141440476Y-105502438D02*
X141488095Y-105550057D01*
X141488095Y-105550057D02*
X141535714Y-105645295D01*
X141535714Y-105645295D02*
X141535714Y-105740533D01*
X141535714Y-105740533D02*
X141488095Y-105883390D01*
X141488095Y-105883390D02*
X140916667Y-106454819D01*
X140916667Y-106454819D02*
X141535714Y-106454819D01*
X114119047Y-106181009D02*
X114261904Y-106228628D01*
X114261904Y-106228628D02*
X114309523Y-106276247D01*
X114309523Y-106276247D02*
X114357142Y-106371485D01*
X114357142Y-106371485D02*
X114357142Y-106514342D01*
X114357142Y-106514342D02*
X114309523Y-106609580D01*
X114309523Y-106609580D02*
X114261904Y-106657200D01*
X114261904Y-106657200D02*
X114166666Y-106704819D01*
X114166666Y-106704819D02*
X113785714Y-106704819D01*
X113785714Y-106704819D02*
X113785714Y-105704819D01*
X113785714Y-105704819D02*
X114119047Y-105704819D01*
X114119047Y-105704819D02*
X114214285Y-105752438D01*
X114214285Y-105752438D02*
X114261904Y-105800057D01*
X114261904Y-105800057D02*
X114309523Y-105895295D01*
X114309523Y-105895295D02*
X114309523Y-105990533D01*
X114309523Y-105990533D02*
X114261904Y-106085771D01*
X114261904Y-106085771D02*
X114214285Y-106133390D01*
X114214285Y-106133390D02*
X114119047Y-106181009D01*
X114119047Y-106181009D02*
X113785714Y-106181009D01*
X114690476Y-105704819D02*
X115357142Y-105704819D01*
X115357142Y-105704819D02*
X114690476Y-106704819D01*
X114690476Y-106704819D02*
X115357142Y-106704819D01*
X116261904Y-106704819D02*
X115690476Y-106704819D01*
X115976190Y-106704819D02*
X115976190Y-105704819D01*
X115976190Y-105704819D02*
X115880952Y-105847676D01*
X115880952Y-105847676D02*
X115785714Y-105942914D01*
X115785714Y-105942914D02*
X115690476Y-105990533D01*
X85954819Y-132642857D02*
X85478628Y-132976190D01*
X85954819Y-133214285D02*
X84954819Y-133214285D01*
X84954819Y-133214285D02*
X84954819Y-132833333D01*
X84954819Y-132833333D02*
X85002438Y-132738095D01*
X85002438Y-132738095D02*
X85050057Y-132690476D01*
X85050057Y-132690476D02*
X85145295Y-132642857D01*
X85145295Y-132642857D02*
X85288152Y-132642857D01*
X85288152Y-132642857D02*
X85383390Y-132690476D01*
X85383390Y-132690476D02*
X85431009Y-132738095D01*
X85431009Y-132738095D02*
X85478628Y-132833333D01*
X85478628Y-132833333D02*
X85478628Y-133214285D01*
X85954819Y-131690476D02*
X85954819Y-132261904D01*
X85954819Y-131976190D02*
X84954819Y-131976190D01*
X84954819Y-131976190D02*
X85097676Y-132071428D01*
X85097676Y-132071428D02*
X85192914Y-132166666D01*
X85192914Y-132166666D02*
X85240533Y-132261904D01*
X85383390Y-131119047D02*
X85335771Y-131214285D01*
X85335771Y-131214285D02*
X85288152Y-131261904D01*
X85288152Y-131261904D02*
X85192914Y-131309523D01*
X85192914Y-131309523D02*
X85145295Y-131309523D01*
X85145295Y-131309523D02*
X85050057Y-131261904D01*
X85050057Y-131261904D02*
X85002438Y-131214285D01*
X85002438Y-131214285D02*
X84954819Y-131119047D01*
X84954819Y-131119047D02*
X84954819Y-130928571D01*
X84954819Y-130928571D02*
X85002438Y-130833333D01*
X85002438Y-130833333D02*
X85050057Y-130785714D01*
X85050057Y-130785714D02*
X85145295Y-130738095D01*
X85145295Y-130738095D02*
X85192914Y-130738095D01*
X85192914Y-130738095D02*
X85288152Y-130785714D01*
X85288152Y-130785714D02*
X85335771Y-130833333D01*
X85335771Y-130833333D02*
X85383390Y-130928571D01*
X85383390Y-130928571D02*
X85383390Y-131119047D01*
X85383390Y-131119047D02*
X85431009Y-131214285D01*
X85431009Y-131214285D02*
X85478628Y-131261904D01*
X85478628Y-131261904D02*
X85573866Y-131309523D01*
X85573866Y-131309523D02*
X85764342Y-131309523D01*
X85764342Y-131309523D02*
X85859580Y-131261904D01*
X85859580Y-131261904D02*
X85907200Y-131214285D01*
X85907200Y-131214285D02*
X85954819Y-131119047D01*
X85954819Y-131119047D02*
X85954819Y-130928571D01*
X85954819Y-130928571D02*
X85907200Y-130833333D01*
X85907200Y-130833333D02*
X85859580Y-130785714D01*
X85859580Y-130785714D02*
X85764342Y-130738095D01*
X85764342Y-130738095D02*
X85573866Y-130738095D01*
X85573866Y-130738095D02*
X85478628Y-130785714D01*
X85478628Y-130785714D02*
X85431009Y-130833333D01*
X85431009Y-130833333D02*
X85383390Y-130928571D01*
X116204819Y-100142857D02*
X115728628Y-100476190D01*
X116204819Y-100714285D02*
X115204819Y-100714285D01*
X115204819Y-100714285D02*
X115204819Y-100333333D01*
X115204819Y-100333333D02*
X115252438Y-100238095D01*
X115252438Y-100238095D02*
X115300057Y-100190476D01*
X115300057Y-100190476D02*
X115395295Y-100142857D01*
X115395295Y-100142857D02*
X115538152Y-100142857D01*
X115538152Y-100142857D02*
X115633390Y-100190476D01*
X115633390Y-100190476D02*
X115681009Y-100238095D01*
X115681009Y-100238095D02*
X115728628Y-100333333D01*
X115728628Y-100333333D02*
X115728628Y-100714285D01*
X116204819Y-99190476D02*
X116204819Y-99761904D01*
X116204819Y-99476190D02*
X115204819Y-99476190D01*
X115204819Y-99476190D02*
X115347676Y-99571428D01*
X115347676Y-99571428D02*
X115442914Y-99666666D01*
X115442914Y-99666666D02*
X115490533Y-99761904D01*
X115300057Y-98809523D02*
X115252438Y-98761904D01*
X115252438Y-98761904D02*
X115204819Y-98666666D01*
X115204819Y-98666666D02*
X115204819Y-98428571D01*
X115204819Y-98428571D02*
X115252438Y-98333333D01*
X115252438Y-98333333D02*
X115300057Y-98285714D01*
X115300057Y-98285714D02*
X115395295Y-98238095D01*
X115395295Y-98238095D02*
X115490533Y-98238095D01*
X115490533Y-98238095D02*
X115633390Y-98285714D01*
X115633390Y-98285714D02*
X116204819Y-98857142D01*
X116204819Y-98857142D02*
X116204819Y-98238095D01*
X71583333Y-90024819D02*
X71250000Y-89548628D01*
X71011905Y-90024819D02*
X71011905Y-89024819D01*
X71011905Y-89024819D02*
X71392857Y-89024819D01*
X71392857Y-89024819D02*
X71488095Y-89072438D01*
X71488095Y-89072438D02*
X71535714Y-89120057D01*
X71535714Y-89120057D02*
X71583333Y-89215295D01*
X71583333Y-89215295D02*
X71583333Y-89358152D01*
X71583333Y-89358152D02*
X71535714Y-89453390D01*
X71535714Y-89453390D02*
X71488095Y-89501009D01*
X71488095Y-89501009D02*
X71392857Y-89548628D01*
X71392857Y-89548628D02*
X71011905Y-89548628D01*
X71916667Y-89024819D02*
X72535714Y-89024819D01*
X72535714Y-89024819D02*
X72202381Y-89405771D01*
X72202381Y-89405771D02*
X72345238Y-89405771D01*
X72345238Y-89405771D02*
X72440476Y-89453390D01*
X72440476Y-89453390D02*
X72488095Y-89501009D01*
X72488095Y-89501009D02*
X72535714Y-89596247D01*
X72535714Y-89596247D02*
X72535714Y-89834342D01*
X72535714Y-89834342D02*
X72488095Y-89929580D01*
X72488095Y-89929580D02*
X72440476Y-89977200D01*
X72440476Y-89977200D02*
X72345238Y-90024819D01*
X72345238Y-90024819D02*
X72059524Y-90024819D01*
X72059524Y-90024819D02*
X71964286Y-89977200D01*
X71964286Y-89977200D02*
X71916667Y-89929580D01*
X121573819Y-103082398D02*
X121811914Y-103082398D01*
X121716676Y-103320493D02*
X121811914Y-103082398D01*
X121811914Y-103082398D02*
X121716676Y-102844303D01*
X122002390Y-103225255D02*
X121811914Y-103082398D01*
X121811914Y-103082398D02*
X122002390Y-102939541D01*
X118666667Y-135657200D02*
X118809524Y-135704819D01*
X118809524Y-135704819D02*
X119047619Y-135704819D01*
X119047619Y-135704819D02*
X119142857Y-135657200D01*
X119142857Y-135657200D02*
X119190476Y-135609580D01*
X119190476Y-135609580D02*
X119238095Y-135514342D01*
X119238095Y-135514342D02*
X119238095Y-135419104D01*
X119238095Y-135419104D02*
X119190476Y-135323866D01*
X119190476Y-135323866D02*
X119142857Y-135276247D01*
X119142857Y-135276247D02*
X119047619Y-135228628D01*
X119047619Y-135228628D02*
X118857143Y-135181009D01*
X118857143Y-135181009D02*
X118761905Y-135133390D01*
X118761905Y-135133390D02*
X118714286Y-135085771D01*
X118714286Y-135085771D02*
X118666667Y-134990533D01*
X118666667Y-134990533D02*
X118666667Y-134895295D01*
X118666667Y-134895295D02*
X118714286Y-134800057D01*
X118714286Y-134800057D02*
X118761905Y-134752438D01*
X118761905Y-134752438D02*
X118857143Y-134704819D01*
X118857143Y-134704819D02*
X119095238Y-134704819D01*
X119095238Y-134704819D02*
X119238095Y-134752438D01*
X119571429Y-134704819D02*
X119809524Y-135704819D01*
X119809524Y-135704819D02*
X120000000Y-134990533D01*
X120000000Y-134990533D02*
X120190476Y-135704819D01*
X120190476Y-135704819D02*
X120428572Y-134704819D01*
X121238095Y-135038152D02*
X121238095Y-135704819D01*
X121000000Y-134657200D02*
X120761905Y-135371485D01*
X120761905Y-135371485D02*
X121380952Y-135371485D01*
X82738095Y-95954819D02*
X82738095Y-96764342D01*
X82738095Y-96764342D02*
X82785714Y-96859580D01*
X82785714Y-96859580D02*
X82833333Y-96907200D01*
X82833333Y-96907200D02*
X82928571Y-96954819D01*
X82928571Y-96954819D02*
X83119047Y-96954819D01*
X83119047Y-96954819D02*
X83214285Y-96907200D01*
X83214285Y-96907200D02*
X83261904Y-96859580D01*
X83261904Y-96859580D02*
X83309523Y-96764342D01*
X83309523Y-96764342D02*
X83309523Y-95954819D01*
X83690476Y-95954819D02*
X84309523Y-95954819D01*
X84309523Y-95954819D02*
X83976190Y-96335771D01*
X83976190Y-96335771D02*
X84119047Y-96335771D01*
X84119047Y-96335771D02*
X84214285Y-96383390D01*
X84214285Y-96383390D02*
X84261904Y-96431009D01*
X84261904Y-96431009D02*
X84309523Y-96526247D01*
X84309523Y-96526247D02*
X84309523Y-96764342D01*
X84309523Y-96764342D02*
X84261904Y-96859580D01*
X84261904Y-96859580D02*
X84214285Y-96907200D01*
X84214285Y-96907200D02*
X84119047Y-96954819D01*
X84119047Y-96954819D02*
X83833333Y-96954819D01*
X83833333Y-96954819D02*
X83738095Y-96907200D01*
X83738095Y-96907200D02*
X83690476Y-96859580D01*
X66833333Y-111454819D02*
X66500000Y-110978628D01*
X66261905Y-111454819D02*
X66261905Y-110454819D01*
X66261905Y-110454819D02*
X66642857Y-110454819D01*
X66642857Y-110454819D02*
X66738095Y-110502438D01*
X66738095Y-110502438D02*
X66785714Y-110550057D01*
X66785714Y-110550057D02*
X66833333Y-110645295D01*
X66833333Y-110645295D02*
X66833333Y-110788152D01*
X66833333Y-110788152D02*
X66785714Y-110883390D01*
X66785714Y-110883390D02*
X66738095Y-110931009D01*
X66738095Y-110931009D02*
X66642857Y-110978628D01*
X66642857Y-110978628D02*
X66261905Y-110978628D01*
X67690476Y-110454819D02*
X67500000Y-110454819D01*
X67500000Y-110454819D02*
X67404762Y-110502438D01*
X67404762Y-110502438D02*
X67357143Y-110550057D01*
X67357143Y-110550057D02*
X67261905Y-110692914D01*
X67261905Y-110692914D02*
X67214286Y-110883390D01*
X67214286Y-110883390D02*
X67214286Y-111264342D01*
X67214286Y-111264342D02*
X67261905Y-111359580D01*
X67261905Y-111359580D02*
X67309524Y-111407200D01*
X67309524Y-111407200D02*
X67404762Y-111454819D01*
X67404762Y-111454819D02*
X67595238Y-111454819D01*
X67595238Y-111454819D02*
X67690476Y-111407200D01*
X67690476Y-111407200D02*
X67738095Y-111359580D01*
X67738095Y-111359580D02*
X67785714Y-111264342D01*
X67785714Y-111264342D02*
X67785714Y-111026247D01*
X67785714Y-111026247D02*
X67738095Y-110931009D01*
X67738095Y-110931009D02*
X67690476Y-110883390D01*
X67690476Y-110883390D02*
X67595238Y-110835771D01*
X67595238Y-110835771D02*
X67404762Y-110835771D01*
X67404762Y-110835771D02*
X67309524Y-110883390D01*
X67309524Y-110883390D02*
X67261905Y-110931009D01*
X67261905Y-110931009D02*
X67214286Y-111026247D01*
X118156482Y-90110856D02*
X118863589Y-89403750D01*
X118863589Y-89403750D02*
X119031948Y-89572108D01*
X119031948Y-89572108D02*
X119099291Y-89706795D01*
X119099291Y-89706795D02*
X119099291Y-89841482D01*
X119099291Y-89841482D02*
X119065619Y-89942498D01*
X119065619Y-89942498D02*
X118964604Y-90110856D01*
X118964604Y-90110856D02*
X118863589Y-90211872D01*
X118863589Y-90211872D02*
X118695230Y-90312887D01*
X118695230Y-90312887D02*
X118594215Y-90346559D01*
X118594215Y-90346559D02*
X118459528Y-90346559D01*
X118459528Y-90346559D02*
X118324841Y-90279215D01*
X118324841Y-90279215D02*
X118156482Y-90110856D01*
X119503352Y-90043513D02*
X119941085Y-90481246D01*
X119941085Y-90481246D02*
X119436009Y-90514917D01*
X119436009Y-90514917D02*
X119537024Y-90615933D01*
X119537024Y-90615933D02*
X119570696Y-90716948D01*
X119570696Y-90716948D02*
X119570696Y-90784291D01*
X119570696Y-90784291D02*
X119537024Y-90885307D01*
X119537024Y-90885307D02*
X119368665Y-91053665D01*
X119368665Y-91053665D02*
X119267650Y-91087337D01*
X119267650Y-91087337D02*
X119200306Y-91087337D01*
X119200306Y-91087337D02*
X119099291Y-91053665D01*
X119099291Y-91053665D02*
X118897261Y-90851635D01*
X118897261Y-90851635D02*
X118863589Y-90750620D01*
X118863589Y-90750620D02*
X118863589Y-90683276D01*
X130406482Y-91799693D02*
X131113589Y-91092587D01*
X131113589Y-91092587D02*
X131281948Y-91260945D01*
X131281948Y-91260945D02*
X131349291Y-91395632D01*
X131349291Y-91395632D02*
X131349291Y-91530319D01*
X131349291Y-91530319D02*
X131315619Y-91631335D01*
X131315619Y-91631335D02*
X131214604Y-91799693D01*
X131214604Y-91799693D02*
X131113589Y-91900709D01*
X131113589Y-91900709D02*
X130945230Y-92001724D01*
X130945230Y-92001724D02*
X130844215Y-92035396D01*
X130844215Y-92035396D02*
X130709528Y-92035396D01*
X130709528Y-92035396D02*
X130574841Y-91968052D01*
X130574841Y-91968052D02*
X130406482Y-91799693D01*
X131483978Y-92877189D02*
X131079917Y-92473128D01*
X131281948Y-92675159D02*
X131989054Y-91968052D01*
X131989054Y-91968052D02*
X131820696Y-92001724D01*
X131820696Y-92001724D02*
X131686009Y-92001724D01*
X131686009Y-92001724D02*
X131584993Y-91968052D01*
X130654761Y-123454819D02*
X130321428Y-122978628D01*
X130083333Y-123454819D02*
X130083333Y-122454819D01*
X130083333Y-122454819D02*
X130464285Y-122454819D01*
X130464285Y-122454819D02*
X130559523Y-122502438D01*
X130559523Y-122502438D02*
X130607142Y-122550057D01*
X130607142Y-122550057D02*
X130654761Y-122645295D01*
X130654761Y-122645295D02*
X130654761Y-122788152D01*
X130654761Y-122788152D02*
X130607142Y-122883390D01*
X130607142Y-122883390D02*
X130559523Y-122931009D01*
X130559523Y-122931009D02*
X130464285Y-122978628D01*
X130464285Y-122978628D02*
X130083333Y-122978628D01*
X130940476Y-122454819D02*
X131273809Y-123454819D01*
X131273809Y-123454819D02*
X131607142Y-122454819D01*
X132369047Y-122788152D02*
X132369047Y-123454819D01*
X132130952Y-122407200D02*
X131892857Y-123121485D01*
X131892857Y-123121485D02*
X132511904Y-123121485D01*
X143666667Y-104657200D02*
X143809524Y-104704819D01*
X143809524Y-104704819D02*
X144047619Y-104704819D01*
X144047619Y-104704819D02*
X144142857Y-104657200D01*
X144142857Y-104657200D02*
X144190476Y-104609580D01*
X144190476Y-104609580D02*
X144238095Y-104514342D01*
X144238095Y-104514342D02*
X144238095Y-104419104D01*
X144238095Y-104419104D02*
X144190476Y-104323866D01*
X144190476Y-104323866D02*
X144142857Y-104276247D01*
X144142857Y-104276247D02*
X144047619Y-104228628D01*
X144047619Y-104228628D02*
X143857143Y-104181009D01*
X143857143Y-104181009D02*
X143761905Y-104133390D01*
X143761905Y-104133390D02*
X143714286Y-104085771D01*
X143714286Y-104085771D02*
X143666667Y-103990533D01*
X143666667Y-103990533D02*
X143666667Y-103895295D01*
X143666667Y-103895295D02*
X143714286Y-103800057D01*
X143714286Y-103800057D02*
X143761905Y-103752438D01*
X143761905Y-103752438D02*
X143857143Y-103704819D01*
X143857143Y-103704819D02*
X144095238Y-103704819D01*
X144095238Y-103704819D02*
X144238095Y-103752438D01*
X144571429Y-103704819D02*
X144809524Y-104704819D01*
X144809524Y-104704819D02*
X145000000Y-103990533D01*
X145000000Y-103990533D02*
X145190476Y-104704819D01*
X145190476Y-104704819D02*
X145428572Y-103704819D01*
X146333333Y-104704819D02*
X145761905Y-104704819D01*
X146047619Y-104704819D02*
X146047619Y-103704819D01*
X146047619Y-103704819D02*
X145952381Y-103847676D01*
X145952381Y-103847676D02*
X145857143Y-103942914D01*
X145857143Y-103942914D02*
X145761905Y-103990533D01*
X78857142Y-111204819D02*
X78523809Y-110728628D01*
X78285714Y-111204819D02*
X78285714Y-110204819D01*
X78285714Y-110204819D02*
X78666666Y-110204819D01*
X78666666Y-110204819D02*
X78761904Y-110252438D01*
X78761904Y-110252438D02*
X78809523Y-110300057D01*
X78809523Y-110300057D02*
X78857142Y-110395295D01*
X78857142Y-110395295D02*
X78857142Y-110538152D01*
X78857142Y-110538152D02*
X78809523Y-110633390D01*
X78809523Y-110633390D02*
X78761904Y-110681009D01*
X78761904Y-110681009D02*
X78666666Y-110728628D01*
X78666666Y-110728628D02*
X78285714Y-110728628D01*
X79190476Y-110204819D02*
X79809523Y-110204819D01*
X79809523Y-110204819D02*
X79476190Y-110585771D01*
X79476190Y-110585771D02*
X79619047Y-110585771D01*
X79619047Y-110585771D02*
X79714285Y-110633390D01*
X79714285Y-110633390D02*
X79761904Y-110681009D01*
X79761904Y-110681009D02*
X79809523Y-110776247D01*
X79809523Y-110776247D02*
X79809523Y-111014342D01*
X79809523Y-111014342D02*
X79761904Y-111109580D01*
X79761904Y-111109580D02*
X79714285Y-111157200D01*
X79714285Y-111157200D02*
X79619047Y-111204819D01*
X79619047Y-111204819D02*
X79333333Y-111204819D01*
X79333333Y-111204819D02*
X79238095Y-111157200D01*
X79238095Y-111157200D02*
X79190476Y-111109580D01*
X80428571Y-110204819D02*
X80523809Y-110204819D01*
X80523809Y-110204819D02*
X80619047Y-110252438D01*
X80619047Y-110252438D02*
X80666666Y-110300057D01*
X80666666Y-110300057D02*
X80714285Y-110395295D01*
X80714285Y-110395295D02*
X80761904Y-110585771D01*
X80761904Y-110585771D02*
X80761904Y-110823866D01*
X80761904Y-110823866D02*
X80714285Y-111014342D01*
X80714285Y-111014342D02*
X80666666Y-111109580D01*
X80666666Y-111109580D02*
X80619047Y-111157200D01*
X80619047Y-111157200D02*
X80523809Y-111204819D01*
X80523809Y-111204819D02*
X80428571Y-111204819D01*
X80428571Y-111204819D02*
X80333333Y-111157200D01*
X80333333Y-111157200D02*
X80285714Y-111109580D01*
X80285714Y-111109580D02*
X80238095Y-111014342D01*
X80238095Y-111014342D02*
X80190476Y-110823866D01*
X80190476Y-110823866D02*
X80190476Y-110585771D01*
X80190476Y-110585771D02*
X80238095Y-110395295D01*
X80238095Y-110395295D02*
X80285714Y-110300057D01*
X80285714Y-110300057D02*
X80333333Y-110252438D01*
X80333333Y-110252438D02*
X80428571Y-110204819D01*
X113607142Y-97704819D02*
X113273809Y-97228628D01*
X113035714Y-97704819D02*
X113035714Y-96704819D01*
X113035714Y-96704819D02*
X113416666Y-96704819D01*
X113416666Y-96704819D02*
X113511904Y-96752438D01*
X113511904Y-96752438D02*
X113559523Y-96800057D01*
X113559523Y-96800057D02*
X113607142Y-96895295D01*
X113607142Y-96895295D02*
X113607142Y-97038152D01*
X113607142Y-97038152D02*
X113559523Y-97133390D01*
X113559523Y-97133390D02*
X113511904Y-97181009D01*
X113511904Y-97181009D02*
X113416666Y-97228628D01*
X113416666Y-97228628D02*
X113035714Y-97228628D01*
X114559523Y-97704819D02*
X113988095Y-97704819D01*
X114273809Y-97704819D02*
X114273809Y-96704819D01*
X114273809Y-96704819D02*
X114178571Y-96847676D01*
X114178571Y-96847676D02*
X114083333Y-96942914D01*
X114083333Y-96942914D02*
X113988095Y-96990533D01*
X115178571Y-96704819D02*
X115273809Y-96704819D01*
X115273809Y-96704819D02*
X115369047Y-96752438D01*
X115369047Y-96752438D02*
X115416666Y-96800057D01*
X115416666Y-96800057D02*
X115464285Y-96895295D01*
X115464285Y-96895295D02*
X115511904Y-97085771D01*
X115511904Y-97085771D02*
X115511904Y-97323866D01*
X115511904Y-97323866D02*
X115464285Y-97514342D01*
X115464285Y-97514342D02*
X115416666Y-97609580D01*
X115416666Y-97609580D02*
X115369047Y-97657200D01*
X115369047Y-97657200D02*
X115273809Y-97704819D01*
X115273809Y-97704819D02*
X115178571Y-97704819D01*
X115178571Y-97704819D02*
X115083333Y-97657200D01*
X115083333Y-97657200D02*
X115035714Y-97609580D01*
X115035714Y-97609580D02*
X114988095Y-97514342D01*
X114988095Y-97514342D02*
X114940476Y-97323866D01*
X114940476Y-97323866D02*
X114940476Y-97085771D01*
X114940476Y-97085771D02*
X114988095Y-96895295D01*
X114988095Y-96895295D02*
X115035714Y-96800057D01*
X115035714Y-96800057D02*
X115083333Y-96752438D01*
X115083333Y-96752438D02*
X115178571Y-96704819D01*
X78761905Y-108204819D02*
X78761905Y-107204819D01*
X78761905Y-107204819D02*
X79000000Y-107204819D01*
X79000000Y-107204819D02*
X79142857Y-107252438D01*
X79142857Y-107252438D02*
X79238095Y-107347676D01*
X79238095Y-107347676D02*
X79285714Y-107442914D01*
X79285714Y-107442914D02*
X79333333Y-107633390D01*
X79333333Y-107633390D02*
X79333333Y-107776247D01*
X79333333Y-107776247D02*
X79285714Y-107966723D01*
X79285714Y-107966723D02*
X79238095Y-108061961D01*
X79238095Y-108061961D02*
X79142857Y-108157200D01*
X79142857Y-108157200D02*
X79000000Y-108204819D01*
X79000000Y-108204819D02*
X78761905Y-108204819D01*
X80190476Y-107204819D02*
X80000000Y-107204819D01*
X80000000Y-107204819D02*
X79904762Y-107252438D01*
X79904762Y-107252438D02*
X79857143Y-107300057D01*
X79857143Y-107300057D02*
X79761905Y-107442914D01*
X79761905Y-107442914D02*
X79714286Y-107633390D01*
X79714286Y-107633390D02*
X79714286Y-108014342D01*
X79714286Y-108014342D02*
X79761905Y-108109580D01*
X79761905Y-108109580D02*
X79809524Y-108157200D01*
X79809524Y-108157200D02*
X79904762Y-108204819D01*
X79904762Y-108204819D02*
X80095238Y-108204819D01*
X80095238Y-108204819D02*
X80190476Y-108157200D01*
X80190476Y-108157200D02*
X80238095Y-108109580D01*
X80238095Y-108109580D02*
X80285714Y-108014342D01*
X80285714Y-108014342D02*
X80285714Y-107776247D01*
X80285714Y-107776247D02*
X80238095Y-107681009D01*
X80238095Y-107681009D02*
X80190476Y-107633390D01*
X80190476Y-107633390D02*
X80095238Y-107585771D01*
X80095238Y-107585771D02*
X79904762Y-107585771D01*
X79904762Y-107585771D02*
X79809524Y-107633390D01*
X79809524Y-107633390D02*
X79761905Y-107681009D01*
X79761905Y-107681009D02*
X79714286Y-107776247D01*
X130954819Y-132642857D02*
X130478628Y-132976190D01*
X130954819Y-133214285D02*
X129954819Y-133214285D01*
X129954819Y-133214285D02*
X129954819Y-132833333D01*
X129954819Y-132833333D02*
X130002438Y-132738095D01*
X130002438Y-132738095D02*
X130050057Y-132690476D01*
X130050057Y-132690476D02*
X130145295Y-132642857D01*
X130145295Y-132642857D02*
X130288152Y-132642857D01*
X130288152Y-132642857D02*
X130383390Y-132690476D01*
X130383390Y-132690476D02*
X130431009Y-132738095D01*
X130431009Y-132738095D02*
X130478628Y-132833333D01*
X130478628Y-132833333D02*
X130478628Y-133214285D01*
X130050057Y-132261904D02*
X130002438Y-132214285D01*
X130002438Y-132214285D02*
X129954819Y-132119047D01*
X129954819Y-132119047D02*
X129954819Y-131880952D01*
X129954819Y-131880952D02*
X130002438Y-131785714D01*
X130002438Y-131785714D02*
X130050057Y-131738095D01*
X130050057Y-131738095D02*
X130145295Y-131690476D01*
X130145295Y-131690476D02*
X130240533Y-131690476D01*
X130240533Y-131690476D02*
X130383390Y-131738095D01*
X130383390Y-131738095D02*
X130954819Y-132309523D01*
X130954819Y-132309523D02*
X130954819Y-131690476D01*
X130288152Y-130833333D02*
X130954819Y-130833333D01*
X129907200Y-131071428D02*
X130621485Y-131309523D01*
X130621485Y-131309523D02*
X130621485Y-130690476D01*
X101954819Y-132642857D02*
X101478628Y-132976190D01*
X101954819Y-133214285D02*
X100954819Y-133214285D01*
X100954819Y-133214285D02*
X100954819Y-132833333D01*
X100954819Y-132833333D02*
X101002438Y-132738095D01*
X101002438Y-132738095D02*
X101050057Y-132690476D01*
X101050057Y-132690476D02*
X101145295Y-132642857D01*
X101145295Y-132642857D02*
X101288152Y-132642857D01*
X101288152Y-132642857D02*
X101383390Y-132690476D01*
X101383390Y-132690476D02*
X101431009Y-132738095D01*
X101431009Y-132738095D02*
X101478628Y-132833333D01*
X101478628Y-132833333D02*
X101478628Y-133214285D01*
X101050057Y-132261904D02*
X101002438Y-132214285D01*
X101002438Y-132214285D02*
X100954819Y-132119047D01*
X100954819Y-132119047D02*
X100954819Y-131880952D01*
X100954819Y-131880952D02*
X101002438Y-131785714D01*
X101002438Y-131785714D02*
X101050057Y-131738095D01*
X101050057Y-131738095D02*
X101145295Y-131690476D01*
X101145295Y-131690476D02*
X101240533Y-131690476D01*
X101240533Y-131690476D02*
X101383390Y-131738095D01*
X101383390Y-131738095D02*
X101954819Y-132309523D01*
X101954819Y-132309523D02*
X101954819Y-131690476D01*
X100954819Y-131071428D02*
X100954819Y-130976190D01*
X100954819Y-130976190D02*
X101002438Y-130880952D01*
X101002438Y-130880952D02*
X101050057Y-130833333D01*
X101050057Y-130833333D02*
X101145295Y-130785714D01*
X101145295Y-130785714D02*
X101335771Y-130738095D01*
X101335771Y-130738095D02*
X101573866Y-130738095D01*
X101573866Y-130738095D02*
X101764342Y-130785714D01*
X101764342Y-130785714D02*
X101859580Y-130833333D01*
X101859580Y-130833333D02*
X101907200Y-130880952D01*
X101907200Y-130880952D02*
X101954819Y-130976190D01*
X101954819Y-130976190D02*
X101954819Y-131071428D01*
X101954819Y-131071428D02*
X101907200Y-131166666D01*
X101907200Y-131166666D02*
X101859580Y-131214285D01*
X101859580Y-131214285D02*
X101764342Y-131261904D01*
X101764342Y-131261904D02*
X101573866Y-131309523D01*
X101573866Y-131309523D02*
X101335771Y-131309523D01*
X101335771Y-131309523D02*
X101145295Y-131261904D01*
X101145295Y-131261904D02*
X101050057Y-131214285D01*
X101050057Y-131214285D02*
X101002438Y-131166666D01*
X101002438Y-131166666D02*
X100954819Y-131071428D01*
X74988095Y-104454819D02*
X74988095Y-105264342D01*
X74988095Y-105264342D02*
X75035714Y-105359580D01*
X75035714Y-105359580D02*
X75083333Y-105407200D01*
X75083333Y-105407200D02*
X75178571Y-105454819D01*
X75178571Y-105454819D02*
X75369047Y-105454819D01*
X75369047Y-105454819D02*
X75464285Y-105407200D01*
X75464285Y-105407200D02*
X75511904Y-105359580D01*
X75511904Y-105359580D02*
X75559523Y-105264342D01*
X75559523Y-105264342D02*
X75559523Y-104454819D01*
X76559523Y-105454819D02*
X75988095Y-105454819D01*
X76273809Y-105454819D02*
X76273809Y-104454819D01*
X76273809Y-104454819D02*
X76178571Y-104597676D01*
X76178571Y-104597676D02*
X76083333Y-104692914D01*
X76083333Y-104692914D02*
X75988095Y-104740533D01*
X136666667Y-126907200D02*
X136809524Y-126954819D01*
X136809524Y-126954819D02*
X137047619Y-126954819D01*
X137047619Y-126954819D02*
X137142857Y-126907200D01*
X137142857Y-126907200D02*
X137190476Y-126859580D01*
X137190476Y-126859580D02*
X137238095Y-126764342D01*
X137238095Y-126764342D02*
X137238095Y-126669104D01*
X137238095Y-126669104D02*
X137190476Y-126573866D01*
X137190476Y-126573866D02*
X137142857Y-126526247D01*
X137142857Y-126526247D02*
X137047619Y-126478628D01*
X137047619Y-126478628D02*
X136857143Y-126431009D01*
X136857143Y-126431009D02*
X136761905Y-126383390D01*
X136761905Y-126383390D02*
X136714286Y-126335771D01*
X136714286Y-126335771D02*
X136666667Y-126240533D01*
X136666667Y-126240533D02*
X136666667Y-126145295D01*
X136666667Y-126145295D02*
X136714286Y-126050057D01*
X136714286Y-126050057D02*
X136761905Y-126002438D01*
X136761905Y-126002438D02*
X136857143Y-125954819D01*
X136857143Y-125954819D02*
X137095238Y-125954819D01*
X137095238Y-125954819D02*
X137238095Y-126002438D01*
X137571429Y-125954819D02*
X137809524Y-126954819D01*
X137809524Y-126954819D02*
X138000000Y-126240533D01*
X138000000Y-126240533D02*
X138190476Y-126954819D01*
X138190476Y-126954819D02*
X138428572Y-125954819D01*
X139285714Y-125954819D02*
X138809524Y-125954819D01*
X138809524Y-125954819D02*
X138761905Y-126431009D01*
X138761905Y-126431009D02*
X138809524Y-126383390D01*
X138809524Y-126383390D02*
X138904762Y-126335771D01*
X138904762Y-126335771D02*
X139142857Y-126335771D01*
X139142857Y-126335771D02*
X139238095Y-126383390D01*
X139238095Y-126383390D02*
X139285714Y-126431009D01*
X139285714Y-126431009D02*
X139333333Y-126526247D01*
X139333333Y-126526247D02*
X139333333Y-126764342D01*
X139333333Y-126764342D02*
X139285714Y-126859580D01*
X139285714Y-126859580D02*
X139238095Y-126907200D01*
X139238095Y-126907200D02*
X139142857Y-126954819D01*
X139142857Y-126954819D02*
X138904762Y-126954819D01*
X138904762Y-126954819D02*
X138809524Y-126907200D01*
X138809524Y-126907200D02*
X138761905Y-126859580D01*
X101404761Y-123454819D02*
X101071428Y-122978628D01*
X100833333Y-123454819D02*
X100833333Y-122454819D01*
X100833333Y-122454819D02*
X101214285Y-122454819D01*
X101214285Y-122454819D02*
X101309523Y-122502438D01*
X101309523Y-122502438D02*
X101357142Y-122550057D01*
X101357142Y-122550057D02*
X101404761Y-122645295D01*
X101404761Y-122645295D02*
X101404761Y-122788152D01*
X101404761Y-122788152D02*
X101357142Y-122883390D01*
X101357142Y-122883390D02*
X101309523Y-122931009D01*
X101309523Y-122931009D02*
X101214285Y-122978628D01*
X101214285Y-122978628D02*
X100833333Y-122978628D01*
X101690476Y-122454819D02*
X102023809Y-123454819D01*
X102023809Y-123454819D02*
X102357142Y-122454819D01*
X102595238Y-122454819D02*
X103214285Y-122454819D01*
X103214285Y-122454819D02*
X102880952Y-122835771D01*
X102880952Y-122835771D02*
X103023809Y-122835771D01*
X103023809Y-122835771D02*
X103119047Y-122883390D01*
X103119047Y-122883390D02*
X103166666Y-122931009D01*
X103166666Y-122931009D02*
X103214285Y-123026247D01*
X103214285Y-123026247D02*
X103214285Y-123264342D01*
X103214285Y-123264342D02*
X103166666Y-123359580D01*
X103166666Y-123359580D02*
X103119047Y-123407200D01*
X103119047Y-123407200D02*
X103023809Y-123454819D01*
X103023809Y-123454819D02*
X102738095Y-123454819D01*
X102738095Y-123454819D02*
X102642857Y-123407200D01*
X102642857Y-123407200D02*
X102595238Y-123359580D01*
X89988095Y-109454819D02*
X89988095Y-110264342D01*
X89988095Y-110264342D02*
X90035714Y-110359580D01*
X90035714Y-110359580D02*
X90083333Y-110407200D01*
X90083333Y-110407200D02*
X90178571Y-110454819D01*
X90178571Y-110454819D02*
X90369047Y-110454819D01*
X90369047Y-110454819D02*
X90464285Y-110407200D01*
X90464285Y-110407200D02*
X90511904Y-110359580D01*
X90511904Y-110359580D02*
X90559523Y-110264342D01*
X90559523Y-110264342D02*
X90559523Y-109454819D01*
X91464285Y-109788152D02*
X91464285Y-110454819D01*
X91226190Y-109407200D02*
X90988095Y-110121485D01*
X90988095Y-110121485D02*
X91607142Y-110121485D01*
X112666666Y-88704819D02*
X112666666Y-89419104D01*
X112666666Y-89419104D02*
X112619047Y-89561961D01*
X112619047Y-89561961D02*
X112523809Y-89657200D01*
X112523809Y-89657200D02*
X112380952Y-89704819D01*
X112380952Y-89704819D02*
X112285714Y-89704819D01*
X113047619Y-88704819D02*
X113666666Y-88704819D01*
X113666666Y-88704819D02*
X113333333Y-89085771D01*
X113333333Y-89085771D02*
X113476190Y-89085771D01*
X113476190Y-89085771D02*
X113571428Y-89133390D01*
X113571428Y-89133390D02*
X113619047Y-89181009D01*
X113619047Y-89181009D02*
X113666666Y-89276247D01*
X113666666Y-89276247D02*
X113666666Y-89514342D01*
X113666666Y-89514342D02*
X113619047Y-89609580D01*
X113619047Y-89609580D02*
X113571428Y-89657200D01*
X113571428Y-89657200D02*
X113476190Y-89704819D01*
X113476190Y-89704819D02*
X113190476Y-89704819D01*
X113190476Y-89704819D02*
X113095238Y-89657200D01*
X113095238Y-89657200D02*
X113047619Y-89609580D01*
D11*
%TO.C,D4*%
X125014591Y-89254038D02*
X126630330Y-90869777D01*
X126630330Y-90869777D02*
X127669777Y-89830330D01*
X127669777Y-89830330D02*
X126054038Y-88214591D01*
%TO.C,R21*%
X116977500Y-129227258D02*
X116977500Y-128752742D01*
X118022500Y-129227258D02*
X118022500Y-128752742D01*
%TO.C,R4*%
X66477500Y-127487258D02*
X66477500Y-127012742D01*
X67522500Y-127487258D02*
X67522500Y-127012742D01*
%TO.C,RV1*%
X89279000Y-111380000D02*
X99320000Y-111380000D01*
X89279000Y-115316000D02*
X89279000Y-111380000D01*
X89279000Y-123620000D02*
X89279000Y-119683000D01*
X89279000Y-123620000D02*
X90600000Y-123620000D01*
X93050000Y-123620000D02*
X93430000Y-123620000D01*
X95171000Y-123620000D02*
X95930000Y-123620000D01*
X97670000Y-123620000D02*
X99320000Y-123620000D01*
X99320000Y-115316000D02*
X99320000Y-111380000D01*
X99320000Y-123620000D02*
X99320000Y-119683000D01*
%TO.C,Y1*%
X119740000Y-105390000D02*
X119740000Y-110610000D01*
X119740000Y-110610000D02*
X132460000Y-110610000D01*
X132460000Y-105390000D02*
X119740000Y-105390000D01*
%TO.C,R2*%
X147477500Y-127487258D02*
X147477500Y-127012742D01*
X148522500Y-127487258D02*
X148522500Y-127012742D01*
%TO.C,J1*%
X131560000Y-88120000D02*
X131560000Y-90880000D01*
X139290000Y-88120000D02*
X131560000Y-88120000D01*
X139290000Y-88120000D02*
X139290000Y-90880000D01*
X139290000Y-90880000D02*
X131560000Y-90880000D01*
X140560000Y-88120000D02*
X141940000Y-88120000D01*
X141940000Y-88120000D02*
X141940000Y-89500000D01*
%TO.C,R17*%
X86477500Y-129237258D02*
X86477500Y-128762742D01*
X87522500Y-129237258D02*
X87522500Y-128762742D01*
%TO.C,R9*%
X117012742Y-95227500D02*
X117487258Y-95227500D01*
X117012742Y-96272500D02*
X117487258Y-96272500D01*
%TO.C,C3*%
X131159420Y-103890000D02*
X131440580Y-103890000D01*
X131159420Y-104910000D02*
X131440580Y-104910000D01*
%TO.C,SW3*%
X105500000Y-130000000D02*
X105500000Y-131500000D01*
X106750000Y-134000000D02*
X111250000Y-134000000D01*
X111250000Y-127500000D02*
X106750000Y-127500000D01*
X112500000Y-131500000D02*
X112500000Y-130000000D01*
D12*
%TO.C,G\u002A\u002A\u002A*%
G36*
X71895882Y-119040704D02*
G01*
X71923773Y-119066476D01*
X71972204Y-119131110D01*
X71987743Y-119202640D01*
X71987834Y-119209923D01*
X71971285Y-119290213D01*
X71928133Y-119350811D01*
X71868117Y-119387275D01*
X71800977Y-119395161D01*
X71736454Y-119370026D01*
X71704523Y-119339149D01*
X71664054Y-119256311D01*
X71661991Y-119168289D01*
X71697627Y-119087339D01*
X71720569Y-119061304D01*
X71782665Y-119014845D01*
X71837705Y-119007892D01*
X71895882Y-119040704D01*
G37*
G36*
X69267253Y-116688751D02*
G01*
X69344595Y-116749180D01*
X69388780Y-116835083D01*
X69401811Y-116941247D01*
X69396394Y-117018500D01*
X69375385Y-117073511D01*
X69341544Y-117116559D01*
X69263680Y-117176933D01*
X69181784Y-117196014D01*
X69122528Y-117183274D01*
X69055174Y-117133110D01*
X69009773Y-117052128D01*
X68990702Y-116949662D01*
X68991494Y-116903843D01*
X69013843Y-116800806D01*
X69060018Y-116724054D01*
X69124131Y-116678180D01*
X69200293Y-116667776D01*
X69267253Y-116688751D01*
G37*
G36*
X71691657Y-116371627D02*
G01*
X71756414Y-116427760D01*
X71798177Y-116513674D01*
X71812510Y-116620194D01*
X71793554Y-116721855D01*
X71742432Y-116812549D01*
X71692731Y-116859845D01*
X71634016Y-116876986D01*
X71561718Y-116863602D01*
X71490389Y-116822778D01*
X71481308Y-116815048D01*
X71435138Y-116764016D01*
X71411072Y-116705219D01*
X71401819Y-116643354D01*
X71405636Y-116528392D01*
X71439386Y-116438744D01*
X71500128Y-116378572D01*
X71584919Y-116352036D01*
X71608351Y-116351134D01*
X71691657Y-116371627D01*
G37*
G36*
X69585018Y-119292177D02*
G01*
X69647455Y-119349667D01*
X69690223Y-119436776D01*
X69698969Y-119472814D01*
X69700156Y-119561094D01*
X69677076Y-119650802D01*
X69635364Y-119722285D01*
X69624181Y-119733673D01*
X69559020Y-119769260D01*
X69480365Y-119781561D01*
X69411020Y-119767137D01*
X69348668Y-119712229D01*
X69307878Y-119625293D01*
X69292289Y-119514299D01*
X69292234Y-119506882D01*
X69296485Y-119432010D01*
X69313953Y-119380943D01*
X69351714Y-119334086D01*
X69356294Y-119329461D01*
X69431778Y-119278870D01*
X69510573Y-119267510D01*
X69585018Y-119292177D01*
G37*
G36*
X72450565Y-114098344D02*
G01*
X72538872Y-114134401D01*
X72616640Y-114201398D01*
X72680081Y-114295038D01*
X72725406Y-114411026D01*
X72748828Y-114545068D01*
X72746763Y-114690923D01*
X72716403Y-114839610D01*
X72661067Y-114960881D01*
X72583838Y-115051039D01*
X72487797Y-115106385D01*
X72386272Y-115123382D01*
X72326798Y-115119828D01*
X72281685Y-115103886D01*
X72235324Y-115067637D01*
X72193338Y-115025489D01*
X72100683Y-114899035D01*
X72048026Y-114756599D01*
X72036035Y-114601549D01*
X72065382Y-114437252D01*
X72072122Y-114415833D01*
X72116797Y-114299889D01*
X72165565Y-114217406D01*
X72225246Y-114158097D01*
X72257489Y-114136222D01*
X72355508Y-114097519D01*
X72450565Y-114098344D01*
G37*
G36*
X74863293Y-114120139D02*
G01*
X74945136Y-114192243D01*
X75012578Y-114300399D01*
X75047557Y-114394636D01*
X75069449Y-114525051D01*
X75065475Y-114663260D01*
X75038363Y-114798481D01*
X74990844Y-114919932D01*
X74925645Y-115016831D01*
X74879527Y-115058451D01*
X74806468Y-115095441D01*
X74724785Y-115114973D01*
X74653757Y-115113021D01*
X74639602Y-115108574D01*
X74537251Y-115044003D01*
X74455066Y-114944164D01*
X74429083Y-114895450D01*
X74388712Y-114766474D01*
X74373948Y-114619317D01*
X74384807Y-114471084D01*
X74421308Y-114338878D01*
X74428488Y-114322573D01*
X74500723Y-114204914D01*
X74585762Y-114126475D01*
X74678164Y-114086622D01*
X74772488Y-114084721D01*
X74863293Y-114120139D01*
G37*
G36*
X73181713Y-115196122D02*
G01*
X73248035Y-115245532D01*
X73312975Y-115308086D01*
X73385866Y-115379104D01*
X73441062Y-115423062D01*
X73488709Y-115446754D01*
X73534582Y-115456492D01*
X73649480Y-115457459D01*
X73746118Y-115427441D01*
X73835306Y-115361846D01*
X73886926Y-115306808D01*
X73959263Y-115232043D01*
X74019482Y-115194908D01*
X74074013Y-115193321D01*
X74129289Y-115225199D01*
X74132007Y-115227480D01*
X74179102Y-115292774D01*
X74191389Y-115372910D01*
X74172562Y-115461782D01*
X74126313Y-115553282D01*
X74056336Y-115641304D01*
X73966324Y-115719741D01*
X73859969Y-115782488D01*
X73777336Y-115813934D01*
X73646700Y-115839710D01*
X73519474Y-115841623D01*
X73434253Y-115826098D01*
X73312835Y-115775379D01*
X73205261Y-115704764D01*
X73115647Y-115620275D01*
X73048108Y-115527937D01*
X73006758Y-115433773D01*
X72995713Y-115343806D01*
X73019087Y-115264061D01*
X73034783Y-115241348D01*
X73081695Y-115195615D01*
X73128469Y-115180012D01*
X73181713Y-115196122D01*
G37*
G36*
X70899782Y-116516334D02*
G01*
X70938243Y-116556339D01*
X70965971Y-116628818D01*
X70985383Y-116738520D01*
X70990354Y-116783477D01*
X70999172Y-116865202D01*
X71008529Y-116912624D01*
X71023077Y-116935077D01*
X71047470Y-116941894D01*
X71069546Y-116942364D01*
X71139452Y-116961723D01*
X71212185Y-117013383D01*
X71277798Y-117087717D01*
X71326341Y-117175096D01*
X71335142Y-117199398D01*
X71368515Y-117303963D01*
X71508837Y-117296747D01*
X71589719Y-117294842D01*
X71640290Y-117301283D01*
X71673708Y-117318804D01*
X71689743Y-117334375D01*
X71724436Y-117400525D01*
X71724252Y-117472804D01*
X71689236Y-117534819D01*
X71640441Y-117562598D01*
X71562264Y-117585228D01*
X71516652Y-117593091D01*
X71385159Y-117611055D01*
X71385159Y-117687624D01*
X71385733Y-117726188D01*
X71393111Y-117748949D01*
X71415772Y-117758331D01*
X71462198Y-117756755D01*
X71540870Y-117746645D01*
X71575111Y-117741882D01*
X71667500Y-117743352D01*
X71730483Y-117777097D01*
X71763492Y-117842668D01*
X71768679Y-117895180D01*
X71757805Y-117956460D01*
X71721287Y-117999693D01*
X71653277Y-118028848D01*
X71547930Y-118047891D01*
X71542787Y-118048507D01*
X71471752Y-118057861D01*
X71434408Y-118069018D01*
X71420913Y-118088878D01*
X71421423Y-118124342D01*
X71422252Y-118133011D01*
X71428990Y-118202502D01*
X71586899Y-118202502D01*
X71693559Y-118208172D01*
X71763498Y-118227700D01*
X71802649Y-118264857D01*
X71816946Y-118323417D01*
X71817198Y-118348937D01*
X71795625Y-118424635D01*
X71741715Y-118477266D01*
X71664487Y-118498290D01*
X71659413Y-118498360D01*
X71591584Y-118502920D01*
X71530349Y-118512057D01*
X71488831Y-118523516D01*
X71468743Y-118544803D01*
X71462347Y-118589169D01*
X71461863Y-118629351D01*
X71441672Y-118746568D01*
X71383365Y-118844283D01*
X71290340Y-118917052D01*
X71278386Y-118923177D01*
X71194107Y-118964474D01*
X71209269Y-119166705D01*
X71215903Y-119261861D01*
X71217370Y-119323490D01*
X71211953Y-119361761D01*
X71197935Y-119386841D01*
X71173598Y-119408898D01*
X71167563Y-119413668D01*
X71101144Y-119445126D01*
X71038574Y-119437313D01*
X71002127Y-119408439D01*
X70990060Y-119376630D01*
X70975507Y-119314045D01*
X70960677Y-119233488D01*
X70947777Y-119147765D01*
X70939016Y-119069678D01*
X70936569Y-119028354D01*
X70917007Y-119007758D01*
X70875625Y-119006439D01*
X70815357Y-119013373D01*
X70815357Y-119228624D01*
X70814329Y-119330015D01*
X70810185Y-119396815D01*
X70801335Y-119438238D01*
X70786189Y-119463497D01*
X70772817Y-119475172D01*
X70719271Y-119503026D01*
X70670724Y-119495390D01*
X70629772Y-119467610D01*
X70604647Y-119440425D01*
X70588111Y-119400967D01*
X70577216Y-119338532D01*
X70569424Y-119248456D01*
X70557067Y-119068162D01*
X70481849Y-119068162D01*
X70406631Y-119068162D01*
X70422106Y-119265980D01*
X70428569Y-119362993D01*
X70428966Y-119426801D01*
X70422282Y-119467742D01*
X70407504Y-119496150D01*
X70398439Y-119507050D01*
X70338273Y-119544692D01*
X70268758Y-119543034D01*
X70223297Y-119519887D01*
X70200934Y-119494420D01*
X70185787Y-119450822D01*
X70175444Y-119379564D01*
X70169799Y-119308540D01*
X70157894Y-119127606D01*
X70064059Y-119099991D01*
X69998209Y-119076647D01*
X69946886Y-119051624D01*
X69936443Y-119044341D01*
X69897511Y-118997307D01*
X69858597Y-118928371D01*
X69829059Y-118856587D01*
X69818205Y-118803561D01*
X69814111Y-118774854D01*
X69794076Y-118764102D01*
X69746467Y-118767272D01*
X69723141Y-118770624D01*
X69624247Y-118772129D01*
X69545378Y-118747836D01*
X69492472Y-118702644D01*
X69471465Y-118641447D01*
X69485632Y-118574742D01*
X69521008Y-118526336D01*
X69580816Y-118492649D01*
X69673935Y-118469001D01*
X69692191Y-118465889D01*
X69746156Y-118453421D01*
X69769266Y-118431050D01*
X69774360Y-118385433D01*
X69774374Y-118380485D01*
X69771161Y-118327711D01*
X69763363Y-118297524D01*
X69762722Y-118296775D01*
X69736137Y-118293554D01*
X69682062Y-118298696D01*
X69650356Y-118303939D01*
X69549991Y-118312070D01*
X69481276Y-118291579D01*
X69441303Y-118240806D01*
X69428046Y-118176999D01*
X69428582Y-118112409D01*
X69446280Y-118072787D01*
X69471274Y-118051149D01*
X69530007Y-118025641D01*
X69591176Y-118016220D01*
X69668286Y-118010568D01*
X69711217Y-117989287D01*
X69728661Y-117945896D01*
X69730543Y-117912239D01*
X69730543Y-117834862D01*
X69609120Y-117849133D01*
X69501430Y-117849865D01*
X69424595Y-117824736D01*
X69381157Y-117775873D01*
X69373656Y-117705403D01*
X69384659Y-117661329D01*
X69409710Y-117620011D01*
X69456778Y-117588865D01*
X69533549Y-117564222D01*
X69626444Y-117545891D01*
X69679748Y-117533709D01*
X69702959Y-117511498D01*
X69708531Y-117464251D01*
X69708627Y-117446853D01*
X69713977Y-117375409D01*
X69727057Y-117313541D01*
X69729046Y-117307905D01*
X69760864Y-117255539D01*
X69813607Y-117195344D01*
X69873088Y-117141489D01*
X69925120Y-117108142D01*
X69931450Y-117105770D01*
X69948513Y-117094983D01*
X69958142Y-117070573D01*
X69961309Y-117024023D01*
X69958983Y-116946813D01*
X69955894Y-116891189D01*
X69952648Y-116773749D01*
X69960978Y-116693232D01*
X69983308Y-116643697D01*
X70022061Y-116619203D01*
X70069114Y-116613632D01*
X70113699Y-116622178D01*
X70146421Y-116652060D01*
X70170536Y-116709644D01*
X70189297Y-116801297D01*
X70198232Y-116866268D01*
X70221235Y-117051941D01*
X70294105Y-117051941D01*
X70366975Y-117051941D01*
X70352329Y-116843578D01*
X70346344Y-116743768D01*
X70345907Y-116677553D01*
X70352006Y-116634933D01*
X70365628Y-116605911D01*
X70377199Y-116591551D01*
X70432196Y-116550352D01*
X70482314Y-116551027D01*
X70525617Y-116591717D01*
X70560171Y-116670563D01*
X70584039Y-116785706D01*
X70584719Y-116790848D01*
X70595074Y-116873510D01*
X70602806Y-116940668D01*
X70606403Y-116979123D01*
X70606484Y-116981133D01*
X70624878Y-116995141D01*
X70667896Y-116995472D01*
X70718839Y-116983053D01*
X70739586Y-116973723D01*
X70743247Y-116950524D01*
X70742658Y-116894294D01*
X70738045Y-116815605D01*
X70735547Y-116784993D01*
X70729948Y-116665623D01*
X70738910Y-116583110D01*
X70764500Y-116532298D01*
X70808783Y-116508034D01*
X70848173Y-116504055D01*
X70899782Y-116516334D01*
G37*
G36*
X75518347Y-109769453D02*
G01*
X75621884Y-109834883D01*
X75714434Y-109941799D01*
X75715169Y-109942864D01*
X75784831Y-110066603D01*
X75826576Y-110199844D01*
X75843956Y-110355397D01*
X75844952Y-110411067D01*
X75837204Y-110565766D01*
X75811625Y-110688893D01*
X75764707Y-110790300D01*
X75692947Y-110879837D01*
X75670291Y-110901918D01*
X75582030Y-110977133D01*
X75506220Y-111022286D01*
X75430435Y-111043402D01*
X75370902Y-111047109D01*
X75288774Y-111037052D01*
X75214327Y-111002380D01*
X75133193Y-110936340D01*
X75131232Y-110934491D01*
X75064017Y-110870962D01*
X74998307Y-110964515D01*
X74905213Y-111123252D01*
X74829639Y-111304088D01*
X74776526Y-111491962D01*
X74750814Y-111671812D01*
X74749180Y-111724072D01*
X74755171Y-111779671D01*
X74778118Y-111823703D01*
X74825480Y-111864364D01*
X74904719Y-111909853D01*
X74929930Y-111922713D01*
X74994395Y-111962549D01*
X75080827Y-112026318D01*
X75180467Y-112106693D01*
X75284558Y-112196348D01*
X75384343Y-112287955D01*
X75471064Y-112374186D01*
X75476946Y-112380391D01*
X75658887Y-112597847D01*
X75830287Y-112851020D01*
X75987203Y-113132298D01*
X76125689Y-113434065D01*
X76241798Y-113748708D01*
X76313414Y-113994736D01*
X76339693Y-114117111D01*
X76364539Y-114268628D01*
X76386181Y-114434598D01*
X76402847Y-114600334D01*
X76412765Y-114751148D01*
X76414753Y-114834700D01*
X76399387Y-115138997D01*
X76354808Y-115442320D01*
X76283295Y-115738081D01*
X76187127Y-116019691D01*
X76068582Y-116280562D01*
X75929940Y-116514104D01*
X75773479Y-116713730D01*
X75759682Y-116728655D01*
X75714260Y-116784965D01*
X75699812Y-116822414D01*
X75703564Y-116831143D01*
X75746685Y-116861811D01*
X75819457Y-116902404D01*
X75910487Y-116947479D01*
X76008377Y-116991592D01*
X76101734Y-117029298D01*
X76161815Y-117050066D01*
X76287016Y-117083242D01*
X76377263Y-117094185D01*
X76435274Y-117083067D01*
X76453807Y-117068377D01*
X76464401Y-117038498D01*
X76479611Y-116972936D01*
X76497905Y-116879406D01*
X76517750Y-116765622D01*
X76533222Y-116668421D01*
X76554633Y-116530744D01*
X76576521Y-116394321D01*
X76596951Y-116270929D01*
X76613986Y-116172345D01*
X76621487Y-116131492D01*
X76639228Y-116034890D01*
X76655495Y-115940186D01*
X76666674Y-115868507D01*
X76699455Y-115646665D01*
X76730772Y-115463574D01*
X76762288Y-115314264D01*
X76795666Y-115193765D01*
X76832568Y-115097109D01*
X76874659Y-115019328D01*
X76923602Y-114955450D01*
X76981059Y-114900509D01*
X76994286Y-114889702D01*
X77019690Y-114864597D01*
X77427452Y-114864597D01*
X77430240Y-114875078D01*
X77458178Y-114888103D01*
X77509634Y-114903255D01*
X77514892Y-114904525D01*
X77564295Y-114916632D01*
X77589480Y-114923594D01*
X77590121Y-114923900D01*
X77594953Y-114904876D01*
X77605603Y-114851878D01*
X77620268Y-114774096D01*
X77630333Y-114718864D01*
X77645051Y-114627151D01*
X77653929Y-114551050D01*
X77655892Y-114501233D01*
X77653543Y-114488751D01*
X77623899Y-114473136D01*
X77570850Y-114465968D01*
X77565947Y-114465918D01*
X77519394Y-114469204D01*
X77495491Y-114487139D01*
X77482869Y-114531842D01*
X77478563Y-114559059D01*
X77464596Y-114641164D01*
X77446721Y-114732294D01*
X77441293Y-114757481D01*
X77430049Y-114820754D01*
X77427452Y-114864597D01*
X77019690Y-114864597D01*
X77048476Y-114836150D01*
X77075559Y-114775099D01*
X77083615Y-114729374D01*
X77102243Y-114597642D01*
X77123846Y-114468828D01*
X77146564Y-114352214D01*
X77168534Y-114257082D01*
X77187896Y-114192713D01*
X77194103Y-114178403D01*
X77228947Y-114129367D01*
X77282704Y-114071891D01*
X77310769Y-114046413D01*
X77397236Y-113972821D01*
X77453263Y-113589301D01*
X77498039Y-113286326D01*
X77537999Y-113024027D01*
X77573694Y-112799578D01*
X77605677Y-112610154D01*
X77634501Y-112452931D01*
X77660718Y-112325082D01*
X77684880Y-112223784D01*
X77707540Y-112146210D01*
X77729250Y-112089536D01*
X77750563Y-112050936D01*
X77755369Y-112044443D01*
X77822291Y-111991805D01*
X77905480Y-111974384D01*
X77993073Y-111993782D01*
X78020967Y-112008563D01*
X78091140Y-112068148D01*
X78131251Y-112146059D01*
X78145813Y-112251795D01*
X78146073Y-112271836D01*
X78141801Y-112351324D01*
X78129888Y-112463687D01*
X78111693Y-112598903D01*
X78088575Y-112746949D01*
X78061891Y-112897805D01*
X78059599Y-112909922D01*
X78045606Y-112987728D01*
X78028155Y-113090706D01*
X78010301Y-113200683D01*
X78004337Y-113238654D01*
X77988569Y-113338628D01*
X77967986Y-113466959D01*
X77944992Y-113608771D01*
X77921989Y-113749189D01*
X77916527Y-113782280D01*
X77861067Y-114117710D01*
X77925342Y-114198674D01*
X77963420Y-114253901D01*
X77989044Y-114312500D01*
X78002998Y-114382268D01*
X78006066Y-114471003D01*
X77999035Y-114586502D01*
X77982690Y-114736562D01*
X77980938Y-114750823D01*
X77942772Y-115059540D01*
X78013170Y-115157568D01*
X78043983Y-115204422D01*
X78067304Y-115252170D01*
X78083148Y-115305979D01*
X78091528Y-115371015D01*
X78092459Y-115452447D01*
X78085954Y-115555439D01*
X78072028Y-115685158D01*
X78050694Y-115846772D01*
X78021967Y-116045447D01*
X78015696Y-116087661D01*
X77991832Y-116246513D01*
X77969551Y-116392258D01*
X77949794Y-116518948D01*
X77933501Y-116620630D01*
X77921613Y-116691354D01*
X77915071Y-116725168D01*
X77914792Y-116726150D01*
X77924157Y-116761277D01*
X77971718Y-116809210D01*
X78009790Y-116838210D01*
X78134500Y-116954285D01*
X78235419Y-117104869D01*
X78310228Y-117286261D01*
X78326848Y-117344639D01*
X78350481Y-117443365D01*
X78362123Y-117520212D01*
X78363077Y-117595065D01*
X78354648Y-117687809D01*
X78351216Y-117716214D01*
X78308793Y-117916970D01*
X78234518Y-118088529D01*
X78127627Y-118232592D01*
X78111852Y-118248835D01*
X78015354Y-118333923D01*
X77921797Y-118388076D01*
X77814945Y-118419774D01*
X77769955Y-118427340D01*
X77654772Y-118443917D01*
X77606485Y-118783434D01*
X77570536Y-119029297D01*
X77538227Y-119234904D01*
X77508893Y-119403618D01*
X77481871Y-119538800D01*
X77456499Y-119643814D01*
X77432112Y-119722022D01*
X77412013Y-119769245D01*
X77323790Y-119896489D01*
X77205469Y-119994752D01*
X77063642Y-120059035D01*
X77012970Y-120071905D01*
X76964353Y-120084975D01*
X76936112Y-120106652D01*
X76918078Y-120149397D01*
X76904744Y-120204527D01*
X76878050Y-120289969D01*
X76840161Y-120372681D01*
X76822252Y-120402027D01*
X76787810Y-120457104D01*
X76767611Y-120499801D01*
X76765400Y-120510193D01*
X76754425Y-120571925D01*
X76724115Y-120662288D01*
X76678393Y-120772761D01*
X76621182Y-120894823D01*
X76556406Y-121019954D01*
X76487988Y-121139633D01*
X76441888Y-121212792D01*
X76382648Y-121292841D01*
X76303777Y-121386066D01*
X76214098Y-121483338D01*
X76122432Y-121575530D01*
X76037599Y-121653512D01*
X75968422Y-121708154D01*
X75954529Y-121717146D01*
X75859634Y-121756028D01*
X75775313Y-121755974D01*
X75707761Y-121720195D01*
X75663170Y-121651901D01*
X75647713Y-121558090D01*
X75650769Y-121500384D01*
X75665542Y-121458964D01*
X75700435Y-121418989D01*
X75750683Y-121376291D01*
X75974319Y-121170865D01*
X76156931Y-120951684D01*
X76298082Y-120719288D01*
X76325099Y-120663014D01*
X76365674Y-120571834D01*
X76393089Y-120499846D01*
X76410071Y-120433764D01*
X76419343Y-120360303D01*
X76423630Y-120266177D01*
X76425201Y-120174892D01*
X76428306Y-119933822D01*
X76325333Y-119817110D01*
X76249599Y-119717624D01*
X76197807Y-119613593D01*
X76167465Y-119495612D01*
X76156082Y-119354275D01*
X76160293Y-119194176D01*
X76164448Y-119098628D01*
X76164766Y-119021701D01*
X76161406Y-118972302D01*
X76156057Y-118958585D01*
X76148400Y-118979262D01*
X76138789Y-119036532D01*
X76128130Y-119123246D01*
X76117327Y-119232260D01*
X76109575Y-119325668D01*
X76077407Y-119640939D01*
X76030380Y-119922409D01*
X75965853Y-120178372D01*
X75881182Y-120417120D01*
X75773725Y-120646948D01*
X75640839Y-120876148D01*
X75591069Y-120952890D01*
X75380624Y-121234514D01*
X75149006Y-121477992D01*
X74896689Y-121683048D01*
X74624147Y-121849408D01*
X74331853Y-121976797D01*
X74020280Y-122064941D01*
X73689904Y-122113566D01*
X73576703Y-122120898D01*
X73471170Y-122124638D01*
X73375620Y-122126181D01*
X73302392Y-122125429D01*
X73269887Y-122123345D01*
X72962948Y-122071652D01*
X72686956Y-121997799D01*
X72433227Y-121898341D01*
X72193073Y-121769830D01*
X71957807Y-121608823D01*
X71941498Y-121596401D01*
X71741249Y-121428811D01*
X71552066Y-121243334D01*
X71380423Y-121047662D01*
X71232793Y-120849485D01*
X71115649Y-120656496D01*
X71067903Y-120558412D01*
X71037461Y-120491325D01*
X71012877Y-120440929D01*
X71001699Y-120421454D01*
X70977349Y-120419875D01*
X70915319Y-120423713D01*
X70821349Y-120432388D01*
X70701178Y-120445318D01*
X70560546Y-120461924D01*
X70405191Y-120481623D01*
X70397882Y-120482581D01*
X70130002Y-120517674D01*
X69901901Y-120547236D01*
X69709908Y-120571524D01*
X69550356Y-120590794D01*
X69419575Y-120605304D01*
X69313896Y-120615310D01*
X69229651Y-120621069D01*
X69163170Y-120622838D01*
X69110785Y-120620873D01*
X69068826Y-120615433D01*
X69033625Y-120606772D01*
X69001512Y-120595149D01*
X68972244Y-120582378D01*
X68867589Y-120517143D01*
X68768933Y-120424700D01*
X68692242Y-120320528D01*
X68681286Y-120300323D01*
X68637178Y-120181628D01*
X68603900Y-120020550D01*
X68581443Y-119817042D01*
X68580357Y-119802329D01*
X68570169Y-119661402D01*
X68561523Y-119557546D01*
X68552451Y-119484142D01*
X68540983Y-119434573D01*
X68525149Y-119402220D01*
X68502981Y-119380463D01*
X68472509Y-119362686D01*
X68445549Y-119349247D01*
X68310907Y-119258060D01*
X68199877Y-119132828D01*
X68114272Y-118977534D01*
X68055902Y-118796156D01*
X68026581Y-118592676D01*
X68025745Y-118510893D01*
X68350351Y-118510893D01*
X68366036Y-118674305D01*
X68414605Y-118809263D01*
X68496396Y-118916673D01*
X68505062Y-118924716D01*
X68591785Y-118984413D01*
X68677227Y-119002171D01*
X68768386Y-118979094D01*
X68788415Y-118969420D01*
X68837302Y-118930797D01*
X68888668Y-118870393D01*
X68910007Y-118837819D01*
X68954331Y-118723753D01*
X68970878Y-118589029D01*
X68959605Y-118446924D01*
X68920473Y-118310720D01*
X68911690Y-118290508D01*
X68846739Y-118185366D01*
X68769860Y-118118371D01*
X68686449Y-118087404D01*
X68601897Y-118090348D01*
X68521600Y-118125086D01*
X68450949Y-118189501D01*
X68395338Y-118281474D01*
X68360161Y-118398889D01*
X68350351Y-118510893D01*
X68025745Y-118510893D01*
X68024868Y-118425031D01*
X68046815Y-118242005D01*
X68097714Y-118085607D01*
X68181321Y-117946603D01*
X68253453Y-117862789D01*
X68348432Y-117764147D01*
X68305455Y-117227241D01*
X68288987Y-117016109D01*
X68276742Y-116843204D01*
X68268734Y-116703127D01*
X68264977Y-116590478D01*
X68265193Y-116552091D01*
X68614479Y-116552091D01*
X68616856Y-116636397D01*
X68622529Y-116748353D01*
X68631570Y-116892965D01*
X68644053Y-117075237D01*
X68647042Y-117117687D01*
X68659486Y-117293716D01*
X68669596Y-117430879D01*
X68678306Y-117534020D01*
X68686551Y-117607982D01*
X68695265Y-117657609D01*
X68705381Y-117687745D01*
X68717835Y-117703232D01*
X68733559Y-117708914D01*
X68753488Y-117709635D01*
X68761202Y-117709610D01*
X68813286Y-117720533D01*
X68883486Y-117748409D01*
X68932212Y-117773574D01*
X69047214Y-117863530D01*
X69143372Y-117986299D01*
X69218951Y-118134343D01*
X69272220Y-118300123D01*
X69301447Y-118476099D01*
X69304899Y-118654734D01*
X69280843Y-118828487D01*
X69227548Y-118989822D01*
X69216922Y-119012489D01*
X69169433Y-119092213D01*
X69106995Y-119173876D01*
X69039263Y-119246843D01*
X68975892Y-119300481D01*
X68935953Y-119321977D01*
X68918512Y-119330619D01*
X68907543Y-119348405D01*
X68902259Y-119383074D01*
X68901868Y-119442358D01*
X68905581Y-119533995D01*
X68908527Y-119590595D01*
X68919651Y-119754067D01*
X68934370Y-119880824D01*
X68954321Y-119977938D01*
X68981144Y-120052482D01*
X69016476Y-120111527D01*
X69034275Y-120133437D01*
X69066602Y-120165703D01*
X69102621Y-120188599D01*
X69148493Y-120202435D01*
X69210377Y-120207518D01*
X69294433Y-120204158D01*
X69406819Y-120192663D01*
X69553697Y-120173343D01*
X69626143Y-120163113D01*
X69749090Y-120146222D01*
X69902353Y-120126195D01*
X70072682Y-120104704D01*
X70246828Y-120083421D01*
X70409922Y-120064204D01*
X70587784Y-120043233D01*
X70791801Y-120018381D01*
X71004716Y-119991800D01*
X71209270Y-119965642D01*
X71370085Y-119944490D01*
X71551192Y-119920020D01*
X71693772Y-119901150D01*
X71802848Y-119888547D01*
X71883446Y-119882879D01*
X71940589Y-119884814D01*
X71979304Y-119895020D01*
X72004614Y-119914164D01*
X72021544Y-119942914D01*
X72035118Y-119981938D01*
X72050362Y-120031904D01*
X72051366Y-120035038D01*
X72076512Y-120117935D01*
X72087191Y-120170085D01*
X72084507Y-120201709D01*
X72071486Y-120221167D01*
X72041173Y-120239642D01*
X71985622Y-120257333D01*
X71900426Y-120275133D01*
X71781175Y-120293932D01*
X71623460Y-120314622D01*
X71587877Y-120318949D01*
X71497346Y-120331576D01*
X71425830Y-120344840D01*
X71382655Y-120356825D01*
X71374201Y-120362915D01*
X71386811Y-120399787D01*
X71421166Y-120463485D01*
X71472058Y-120546270D01*
X71534277Y-120640404D01*
X71602613Y-120738151D01*
X71671856Y-120831773D01*
X71736797Y-120913532D01*
X71773190Y-120955503D01*
X71855052Y-121038088D01*
X71960132Y-121133550D01*
X72075180Y-121230444D01*
X72186948Y-121317330D01*
X72219203Y-121340688D01*
X72316787Y-121401077D01*
X72444203Y-121467337D01*
X72588944Y-121534001D01*
X72738503Y-121595600D01*
X72880373Y-121646667D01*
X72995944Y-121680277D01*
X73173228Y-121710345D01*
X73375507Y-121723474D01*
X73588081Y-121720176D01*
X73796251Y-121700964D01*
X73985315Y-121666348D01*
X74069801Y-121642878D01*
X74366696Y-121528682D01*
X74634926Y-121384250D01*
X74876885Y-121207541D01*
X75094965Y-120996516D01*
X75291557Y-120749136D01*
X75469055Y-120463359D01*
X75482989Y-120437877D01*
X75541312Y-120315920D01*
X75599445Y-120169016D01*
X75654290Y-120007779D01*
X75702746Y-119842819D01*
X75741713Y-119684750D01*
X75768091Y-119544184D01*
X75778780Y-119431732D01*
X75778862Y-119424988D01*
X75779205Y-119354464D01*
X75543670Y-119497293D01*
X75365587Y-119601853D01*
X75207685Y-119685999D01*
X75055690Y-119756411D01*
X74895328Y-119819770D01*
X74738222Y-119874246D01*
X74537746Y-119937411D01*
X74359649Y-119985557D01*
X74192100Y-120020509D01*
X74023266Y-120044093D01*
X73841315Y-120058135D01*
X73634416Y-120064461D01*
X73499999Y-120065315D01*
X73349801Y-120064415D01*
X73204580Y-120061904D01*
X73073594Y-120058067D01*
X72966099Y-120053186D01*
X72891355Y-120047544D01*
X72881299Y-120046369D01*
X72802965Y-120037124D01*
X72757057Y-120036134D01*
X72732583Y-120045674D01*
X72718546Y-120068019D01*
X72713364Y-120081126D01*
X72684922Y-120130531D01*
X72638977Y-120188020D01*
X72623605Y-120204170D01*
X72547651Y-120258411D01*
X72463736Y-120274350D01*
X72367775Y-120251812D01*
X72255684Y-120190623D01*
X72252235Y-120188326D01*
X72239141Y-120170225D01*
X72249446Y-120141697D01*
X72286994Y-120094220D01*
X72302523Y-120076801D01*
X72352886Y-120015325D01*
X72392104Y-119957265D01*
X72405205Y-119931249D01*
X72418525Y-119865557D01*
X72424628Y-119759531D01*
X72423558Y-119616064D01*
X72415358Y-119438050D01*
X72400071Y-119228380D01*
X72393633Y-119154451D01*
X72380131Y-119003572D01*
X72365663Y-118839790D01*
X72351740Y-118680317D01*
X72339870Y-118542365D01*
X72337067Y-118509318D01*
X72324915Y-118370003D01*
X72310208Y-118208309D01*
X72294904Y-118045455D01*
X72282455Y-117917601D01*
X72272982Y-117817568D01*
X72260891Y-117682233D01*
X72251161Y-117569468D01*
X72604997Y-117569468D01*
X72605866Y-117619769D01*
X72610592Y-117694577D01*
X72619156Y-117798190D01*
X72631543Y-117934906D01*
X72647734Y-118109023D01*
X72656422Y-118202502D01*
X72668812Y-118339655D01*
X72682404Y-118496140D01*
X72696699Y-118665629D01*
X72711200Y-118841794D01*
X72725408Y-119018307D01*
X72738825Y-119188840D01*
X72750953Y-119347065D01*
X72761294Y-119486653D01*
X72769349Y-119601276D01*
X72774621Y-119684606D01*
X72776600Y-119729178D01*
X72798132Y-119742955D01*
X72860158Y-119757046D01*
X72959347Y-119770935D01*
X73092370Y-119784107D01*
X73171046Y-119790301D01*
X73259369Y-119796299D01*
X73333741Y-119799734D01*
X73404885Y-119800417D01*
X73483524Y-119798159D01*
X73580381Y-119792774D01*
X73706180Y-119784071D01*
X73762985Y-119779916D01*
X74076016Y-119741057D01*
X74392008Y-119672044D01*
X74703213Y-119575921D01*
X75001883Y-119455732D01*
X75280271Y-119314522D01*
X75530628Y-119155336D01*
X75706571Y-119016170D01*
X75807349Y-118927462D01*
X75794111Y-118674559D01*
X75752917Y-118279761D01*
X75671887Y-117884934D01*
X75553458Y-117501621D01*
X75537012Y-117457377D01*
X75501090Y-117370175D01*
X75500476Y-117368849D01*
X75871385Y-117368849D01*
X75873118Y-117393764D01*
X75891236Y-117443340D01*
X75905491Y-117473968D01*
X75935476Y-117549131D01*
X75969195Y-117657852D01*
X76004482Y-117790259D01*
X76039173Y-117936478D01*
X76071102Y-118086637D01*
X76098102Y-118230862D01*
X76118010Y-118359279D01*
X76128658Y-118462017D01*
X76129853Y-118496885D01*
X76138204Y-118557365D01*
X76165826Y-118581825D01*
X76194530Y-118581058D01*
X76207679Y-118569741D01*
X76221139Y-118537819D01*
X76235929Y-118480702D01*
X76253068Y-118393800D01*
X76273576Y-118272522D01*
X76298121Y-118114598D01*
X76319330Y-117973761D01*
X76338620Y-117844211D01*
X76354893Y-117733450D01*
X76367048Y-117648979D01*
X76373986Y-117598299D01*
X76374826Y-117591355D01*
X76376341Y-117558306D01*
X76366521Y-117537530D01*
X77367925Y-117537530D01*
X77372182Y-117657092D01*
X77392665Y-117767421D01*
X77417718Y-117832661D01*
X77490268Y-117938695D01*
X77575918Y-118007514D01*
X77670342Y-118037207D01*
X77769211Y-118025858D01*
X77812951Y-118007399D01*
X77897409Y-117940299D01*
X77961060Y-117843358D01*
X78002339Y-117726116D01*
X78019679Y-117598114D01*
X78011513Y-117468894D01*
X77976275Y-117347996D01*
X77933690Y-117272060D01*
X77848911Y-117181469D01*
X77756765Y-117132464D01*
X77661883Y-117124472D01*
X77568895Y-117156922D01*
X77482431Y-117229241D01*
X77409227Y-117336842D01*
X77380179Y-117425269D01*
X77367925Y-117537530D01*
X76366521Y-117537530D01*
X76366020Y-117536471D01*
X76335153Y-117519976D01*
X76275027Y-117502944D01*
X76226368Y-117491228D01*
X76132208Y-117465034D01*
X76040462Y-117433182D01*
X75977187Y-117405539D01*
X75920371Y-117379399D01*
X75880790Y-117367608D01*
X75871385Y-117368849D01*
X75500476Y-117368849D01*
X75458872Y-117279003D01*
X75416539Y-117196181D01*
X75380268Y-117134030D01*
X75363310Y-117111030D01*
X75339161Y-117114335D01*
X75286502Y-117137119D01*
X75213818Y-117175356D01*
X75152341Y-117211106D01*
X75001273Y-117298287D01*
X74859585Y-117370245D01*
X74716137Y-117431396D01*
X74559790Y-117486156D01*
X74379403Y-117538944D01*
X74223209Y-117579504D01*
X74067118Y-117609026D01*
X73879888Y-117629170D01*
X73673247Y-117639716D01*
X73458917Y-117640446D01*
X73248625Y-117631139D01*
X73054096Y-117611577D01*
X72993313Y-117602499D01*
X72882829Y-117583397D01*
X72783503Y-117564475D01*
X72705865Y-117547856D01*
X72660445Y-117535659D01*
X72659102Y-117535163D01*
X72640430Y-117527390D01*
X72625701Y-117522636D01*
X72614897Y-117525199D01*
X72608002Y-117539378D01*
X72604997Y-117569468D01*
X72251161Y-117569468D01*
X72246892Y-117520000D01*
X72231697Y-117339270D01*
X72216020Y-117148447D01*
X72200570Y-116955933D01*
X72195182Y-116887575D01*
X72180787Y-116709954D01*
X72166369Y-116542914D01*
X72152505Y-116392377D01*
X72139775Y-116264265D01*
X72128757Y-116164499D01*
X72120029Y-116099001D01*
X72116160Y-116078719D01*
X72081312Y-115997569D01*
X72027236Y-115928357D01*
X71964402Y-115881942D01*
X71913475Y-115868507D01*
X71886749Y-115869989D01*
X71836223Y-115874590D01*
X71759941Y-115882537D01*
X71655948Y-115894061D01*
X71522290Y-115909391D01*
X71357010Y-115928755D01*
X71158155Y-115952383D01*
X70923767Y-115980504D01*
X70651894Y-116013347D01*
X70340578Y-116051142D01*
X69987866Y-116094118D01*
X69960655Y-116097439D01*
X69772729Y-116120292D01*
X69592762Y-116142026D01*
X69426823Y-116161917D01*
X69280983Y-116179244D01*
X69161313Y-116193285D01*
X69073881Y-116203320D01*
X69029249Y-116208179D01*
X68899442Y-116224338D01*
X68804835Y-116245000D01*
X68736798Y-116274187D01*
X68686703Y-116315923D01*
X68645920Y-116374230D01*
X68636469Y-116391303D01*
X68626393Y-116415043D01*
X68619320Y-116446418D01*
X68615325Y-116490433D01*
X68614479Y-116552091D01*
X68265193Y-116552091D01*
X68265486Y-116499855D01*
X68270275Y-116425858D01*
X68279358Y-116363088D01*
X68292750Y-116306144D01*
X68308026Y-116256815D01*
X68363574Y-116132282D01*
X68439750Y-116017391D01*
X68526848Y-115925435D01*
X68576509Y-115889075D01*
X68637092Y-115863394D01*
X68718208Y-115842545D01*
X68764818Y-115835356D01*
X68831103Y-115827671D01*
X68929184Y-115815779D01*
X69047389Y-115801116D01*
X69174048Y-115785121D01*
X69215530Y-115779818D01*
X69342779Y-115763733D01*
X69500232Y-115744190D01*
X69674562Y-115722822D01*
X69852439Y-115701263D01*
X70020533Y-115681147D01*
X70026254Y-115680468D01*
X70168875Y-115662815D01*
X70298405Y-115645405D01*
X70407943Y-115629277D01*
X70490587Y-115615469D01*
X70539434Y-115605020D01*
X70548152Y-115601916D01*
X70576903Y-115570030D01*
X70576083Y-115521815D01*
X70535709Y-115256982D01*
X70515883Y-114969660D01*
X70516592Y-114740358D01*
X70869049Y-114740358D01*
X70869247Y-114892609D01*
X70872972Y-115045740D01*
X70879961Y-115192163D01*
X70889953Y-115324285D01*
X70902688Y-115434517D01*
X70917904Y-115515267D01*
X70933221Y-115556039D01*
X70959015Y-115560065D01*
X71024355Y-115557894D01*
X71125440Y-115549841D01*
X71258472Y-115536221D01*
X71419653Y-115517351D01*
X71461863Y-115512106D01*
X71637636Y-115490444D01*
X71776177Y-115475020D01*
X71883689Y-115466193D01*
X71966375Y-115464321D01*
X72030437Y-115469760D01*
X72082079Y-115482868D01*
X72127503Y-115504003D01*
X72172911Y-115533522D01*
X72201852Y-115554750D01*
X72269772Y-115623069D01*
X72337186Y-115721113D01*
X72396027Y-115835435D01*
X72436163Y-115945211D01*
X72448194Y-116002757D01*
X72462197Y-116094547D01*
X72476959Y-116211109D01*
X72491264Y-116342973D01*
X72502176Y-116460224D01*
X72514120Y-116597002D01*
X72525803Y-116725988D01*
X72536351Y-116837888D01*
X72544891Y-116923413D01*
X72549975Y-116968872D01*
X72563047Y-117072084D01*
X72697312Y-117115345D01*
X73018319Y-117197941D01*
X73341371Y-117238670D01*
X73671832Y-117237979D01*
X73896593Y-117215051D01*
X74196136Y-117158416D01*
X74489320Y-117074422D01*
X74767134Y-116966526D01*
X75020567Y-116838182D01*
X75222238Y-116706656D01*
X75442737Y-116518587D01*
X75629296Y-116306022D01*
X75782866Y-116067284D01*
X75904396Y-115800695D01*
X75994836Y-115504577D01*
X76043967Y-115254874D01*
X76057464Y-115120282D01*
X76062528Y-114954837D01*
X76059727Y-114770584D01*
X76049629Y-114579567D01*
X76032800Y-114393831D01*
X76009809Y-114225421D01*
X75990785Y-114126229D01*
X75901325Y-113808211D01*
X75778825Y-113502072D01*
X75626558Y-113212325D01*
X75447795Y-112943484D01*
X75245811Y-112700063D01*
X75023876Y-112486575D01*
X74785265Y-112307535D01*
X74590752Y-112195243D01*
X74352127Y-112085051D01*
X74129616Y-112005310D01*
X73911080Y-111952963D01*
X73684378Y-111924953D01*
X73489822Y-111918017D01*
X73167180Y-111937305D01*
X72858543Y-111997624D01*
X72563288Y-112099252D01*
X72280791Y-112242467D01*
X72010429Y-112427548D01*
X71751580Y-112654774D01*
X71680532Y-112726559D01*
X71456154Y-112991428D01*
X71265027Y-113283715D01*
X71108339Y-113600952D01*
X70987275Y-113940674D01*
X70903023Y-114300414D01*
X70892222Y-114364796D01*
X70880275Y-114468861D01*
X70872638Y-114596578D01*
X70869049Y-114740358D01*
X70516592Y-114740358D01*
X70516790Y-114676171D01*
X70538612Y-114392838D01*
X70561591Y-114235806D01*
X70639974Y-113889111D01*
X70749786Y-113550602D01*
X70887914Y-113226604D01*
X71051244Y-112923445D01*
X71236662Y-112647452D01*
X71441056Y-112404951D01*
X71484437Y-112360529D01*
X71589875Y-112260313D01*
X71706702Y-112157515D01*
X71826088Y-112059217D01*
X71939205Y-111972502D01*
X72037222Y-111904452D01*
X72097080Y-111869109D01*
X72133090Y-111848241D01*
X72153507Y-111824978D01*
X72159566Y-111789734D01*
X72152500Y-111732924D01*
X72133543Y-111644961D01*
X72128656Y-111623749D01*
X72081710Y-111456350D01*
X72021257Y-111294659D01*
X71953292Y-111153647D01*
X71915290Y-111090940D01*
X71789027Y-110919440D01*
X71666867Y-110789490D01*
X71546432Y-110699291D01*
X71425343Y-110647044D01*
X71307076Y-110630921D01*
X71231691Y-110633934D01*
X71182169Y-110647488D01*
X71140747Y-110677876D01*
X71122195Y-110696440D01*
X71083020Y-110746236D01*
X71061300Y-110802896D01*
X71050413Y-110884231D01*
X71049914Y-110890921D01*
X71046446Y-110965499D01*
X71053646Y-111014991D01*
X71077674Y-111057905D01*
X71123180Y-111111083D01*
X71174036Y-111163584D01*
X71211444Y-111188281D01*
X71248815Y-111192013D01*
X71273543Y-111187751D01*
X71333455Y-111159644D01*
X71397633Y-111106272D01*
X71414261Y-111088145D01*
X71487125Y-111025599D01*
X71557616Y-111003999D01*
X71619988Y-111020593D01*
X71668494Y-111072625D01*
X71697387Y-111157343D01*
X71702933Y-111226477D01*
X71690611Y-111337020D01*
X71649513Y-111425562D01*
X71573438Y-111503304D01*
X71533331Y-111532851D01*
X71471669Y-111571815D01*
X71418037Y-111593432D01*
X71354473Y-111602713D01*
X71275853Y-111604653D01*
X71156561Y-111597855D01*
X71070436Y-111575799D01*
X71049803Y-111565990D01*
X70930756Y-111477841D01*
X70833464Y-111357446D01*
X70760873Y-111212147D01*
X70715928Y-111049285D01*
X70701576Y-110876204D01*
X70714842Y-110730989D01*
X70760861Y-110561763D01*
X70835665Y-110424117D01*
X70941620Y-110314655D01*
X71055282Y-110242587D01*
X71118926Y-110213389D01*
X71175948Y-110198032D01*
X71243503Y-110193661D01*
X71329780Y-110196890D01*
X71502029Y-110226578D01*
X71665788Y-110296141D01*
X71824292Y-110407165D01*
X71901147Y-110477308D01*
X71971074Y-110553655D01*
X72048746Y-110650713D01*
X72127044Y-110758195D01*
X72198848Y-110865814D01*
X72257041Y-110963281D01*
X72294503Y-111040309D01*
X72298695Y-111051802D01*
X72320538Y-111107997D01*
X72340651Y-111146604D01*
X72341734Y-111148063D01*
X72354622Y-111178102D01*
X72375163Y-111240977D01*
X72400357Y-111327006D01*
X72423178Y-111411048D01*
X72450664Y-111516589D01*
X72473444Y-111587320D01*
X72499927Y-111627643D01*
X72538517Y-111641959D01*
X72597622Y-111634670D01*
X72685648Y-111610175D01*
X72760519Y-111587659D01*
X73021867Y-111527747D01*
X73301291Y-111495720D01*
X73586990Y-111491510D01*
X73867164Y-111515052D01*
X74130013Y-111566281D01*
X74231889Y-111595870D01*
X74307078Y-111617008D01*
X74365655Y-111627634D01*
X74395781Y-111625659D01*
X74396606Y-111624896D01*
X74407451Y-111595576D01*
X74421785Y-111534604D01*
X74436940Y-111453723D01*
X74440727Y-111430629D01*
X74455727Y-111345967D01*
X74470668Y-111277638D01*
X74482846Y-111237634D01*
X74485197Y-111233390D01*
X74499785Y-111200476D01*
X74518266Y-111141359D01*
X74527806Y-111104882D01*
X74568725Y-110981833D01*
X74631109Y-110846591D01*
X74705456Y-110717981D01*
X74764735Y-110635490D01*
X74801716Y-110587455D01*
X74824574Y-110546097D01*
X74837045Y-110498214D01*
X74842861Y-110430600D01*
X74845239Y-110352485D01*
X75209624Y-110352485D01*
X75212870Y-110434687D01*
X75231907Y-110508305D01*
X75244798Y-110532867D01*
X75295810Y-110575072D01*
X75363366Y-110587091D01*
X75430959Y-110567525D01*
X75454227Y-110550615D01*
X75480999Y-110502296D01*
X75494403Y-110428974D01*
X75494237Y-110347453D01*
X75480300Y-110274537D01*
X75458035Y-110232484D01*
X75402935Y-110200491D01*
X75332476Y-110194879D01*
X75266571Y-110216013D01*
X75249482Y-110228677D01*
X75221913Y-110278286D01*
X75209624Y-110352485D01*
X74845239Y-110352485D01*
X74845297Y-110350589D01*
X74864823Y-110169075D01*
X74914114Y-110018741D01*
X74992740Y-109900200D01*
X75100272Y-109814070D01*
X75236280Y-109760967D01*
X75260316Y-109755644D01*
X75399324Y-109743658D01*
X75518347Y-109769453D01*
G37*
D13*
%TO.C,J2*%
X62600000Y-99200000D02*
X62600000Y-106800000D01*
X62600000Y-106800000D02*
X63600000Y-106800000D01*
X63600000Y-99200000D02*
X62600000Y-99200000D01*
X69000000Y-99200000D02*
X66600000Y-99200000D01*
X69000000Y-106800000D02*
X66600000Y-106800000D01*
X71800000Y-99600000D02*
X71800000Y-100800000D01*
X71800000Y-105200000D02*
X71800000Y-106400000D01*
D11*
%TO.C,C4*%
X124140580Y-103740000D02*
X123859420Y-103740000D01*
X124140580Y-104760000D02*
X123859420Y-104760000D01*
%TO.C,C1*%
X76359420Y-99490000D02*
X76640580Y-99490000D01*
X76359420Y-100510000D02*
X76640580Y-100510000D01*
%TO.C,SW2*%
X90500000Y-130000000D02*
X90500000Y-131500000D01*
X91750000Y-134000000D02*
X96250000Y-134000000D01*
X96250000Y-127500000D02*
X91750000Y-127500000D01*
X97500000Y-131500000D02*
X97500000Y-130000000D01*
%TO.C,D5*%
X81700000Y-109835000D02*
X83985000Y-109835000D01*
X83985000Y-108365000D02*
X81700000Y-108365000D01*
X83985000Y-109835000D02*
X83985000Y-108365000D01*
%TO.C,R23*%
X131477500Y-129237258D02*
X131477500Y-128762742D01*
X132522500Y-129237258D02*
X132522500Y-128762742D01*
%TO.C,D2*%
X119814591Y-89254038D02*
X121430330Y-90869777D01*
X121430330Y-90869777D02*
X122469777Y-89830330D01*
X122469777Y-89830330D02*
X120854038Y-88214591D01*
%TO.C,RV2*%
X118479000Y-111380000D02*
X128520000Y-111380000D01*
X118479000Y-115316000D02*
X118479000Y-111380000D01*
X118479000Y-123620000D02*
X118479000Y-119683000D01*
X118479000Y-123620000D02*
X119800000Y-123620000D01*
X122250000Y-123620000D02*
X122630000Y-123620000D01*
X124371000Y-123620000D02*
X125130000Y-123620000D01*
X126870000Y-123620000D02*
X128520000Y-123620000D01*
X128520000Y-115316000D02*
X128520000Y-111380000D01*
X128520000Y-123620000D02*
X128520000Y-119683000D01*
%TO.C,R19*%
X102477500Y-129237258D02*
X102477500Y-128762742D01*
X103522500Y-129237258D02*
X103522500Y-128762742D01*
%TO.C,R31*%
X82262742Y-105577500D02*
X82737258Y-105577500D01*
X82262742Y-106622500D02*
X82737258Y-106622500D01*
%TO.C,R1*%
X147477500Y-95512742D02*
X147477500Y-95987258D01*
X148522500Y-95512742D02*
X148522500Y-95987258D01*
%TO.C,R11*%
X128062742Y-103877500D02*
X128537258Y-103877500D01*
X128062742Y-104922500D02*
X128537258Y-104922500D01*
%TO.C,R22*%
X115477500Y-128762742D02*
X115477500Y-129237258D01*
X116522500Y-128762742D02*
X116522500Y-129237258D01*
%TO.C,C2*%
X140159420Y-103690000D02*
X140440580Y-103690000D01*
X140159420Y-104710000D02*
X140440580Y-104710000D01*
D13*
%TO.C,BZ1*%
X114275000Y-103250000D02*
X115275000Y-103250000D01*
X114775000Y-102750000D02*
X114775000Y-103750000D01*
X113775000Y-103250000D02*
G75*
G02*
X99775000Y-103250000I-7000000J0D01*
G01*
X99775000Y-103250000D02*
G75*
G02*
X113775000Y-103250000I7000000J0D01*
G01*
D11*
%TO.C,R18*%
X84977500Y-128762742D02*
X84977500Y-129237258D01*
X86022500Y-128762742D02*
X86022500Y-129237258D01*
%TO.C,R12*%
X116777500Y-99262742D02*
X116777500Y-99737258D01*
X117822500Y-99262742D02*
X117822500Y-99737258D01*
%TO.C,R3*%
X71512742Y-90477500D02*
X71987258Y-90477500D01*
X71512742Y-91522500D02*
X71987258Y-91522500D01*
D14*
%TO.C,U2*%
X121778900Y-93778900D02*
X121778900Y-94277560D01*
X121778900Y-100722440D02*
X121778900Y-101221100D01*
X121778900Y-101221100D02*
X122277560Y-101221100D01*
X122277560Y-93778900D02*
X121778900Y-93778900D01*
X128722440Y-101221100D02*
X129221100Y-101221100D01*
X129221100Y-93778900D02*
X128722440Y-93778900D01*
X129221100Y-94277560D02*
X129221100Y-93778900D01*
X129221100Y-101221100D02*
X129221100Y-100722440D01*
D12*
G36*
X120298601Y-96440500D02*
G01*
X120044601Y-96440500D01*
X120044601Y-96059500D01*
X120298601Y-96059500D01*
X120298601Y-96440500D01*
G37*
G36*
X125940500Y-92298601D02*
G01*
X125559499Y-92298601D01*
X125559499Y-92044601D01*
X125940500Y-92044601D01*
X125940500Y-92298601D01*
G37*
G36*
X127440499Y-102955399D02*
G01*
X127059499Y-102955399D01*
X127059499Y-102701399D01*
X127440499Y-102701399D01*
X127440499Y-102955399D01*
G37*
G36*
X130955399Y-96940499D02*
G01*
X130701399Y-96940499D01*
X130701399Y-96559499D01*
X130955399Y-96559499D01*
X130955399Y-96940499D01*
G37*
D11*
%TO.C,SW4*%
X120000000Y-130000000D02*
X120000000Y-131500000D01*
X121250000Y-134000000D02*
X125750000Y-134000000D01*
X125750000Y-127500000D02*
X121250000Y-127500000D01*
X127000000Y-131500000D02*
X127000000Y-130000000D01*
%TO.C,U3*%
X81650000Y-88590000D02*
X85410000Y-88590000D01*
X81650000Y-95410000D02*
X85410000Y-95410000D01*
X85410000Y-88590000D02*
X85410000Y-89850000D01*
X85410000Y-95410000D02*
X85410000Y-94150000D01*
X80370000Y-88690000D02*
X80130000Y-88360000D01*
X80610000Y-88360000D01*
X80370000Y-88690000D01*
G36*
X80370000Y-88690000D02*
G01*
X80130000Y-88360000D01*
X80610000Y-88360000D01*
X80370000Y-88690000D01*
G37*
%TO.C,R6*%
X64477500Y-110487258D02*
X64477500Y-110012742D01*
X65522500Y-110487258D02*
X65522500Y-110012742D01*
%TO.C,D3*%
X122414591Y-89254038D02*
X124030330Y-90869777D01*
X124030330Y-90869777D02*
X125069777Y-89830330D01*
X125069777Y-89830330D02*
X123454038Y-88214591D01*
%TO.C,D1*%
X127614591Y-89254038D02*
X129230330Y-90869777D01*
X129230330Y-90869777D02*
X130269777Y-89830330D01*
X130269777Y-89830330D02*
X128654038Y-88214591D01*
%TO.C,RV4*%
X133079000Y-111380000D02*
X143120000Y-111380000D01*
X133079000Y-115316000D02*
X133079000Y-111380000D01*
X133079000Y-123620000D02*
X133079000Y-119683000D01*
X133079000Y-123620000D02*
X134400000Y-123620000D01*
X136850000Y-123620000D02*
X137230000Y-123620000D01*
X138971000Y-123620000D02*
X139730000Y-123620000D01*
X141470000Y-123620000D02*
X143120000Y-123620000D01*
X143120000Y-115316000D02*
X143120000Y-111380000D01*
X143120000Y-123620000D02*
X143120000Y-119683000D01*
%TO.C,SW1*%
X137750000Y-98750000D02*
X137750000Y-100250000D01*
X139000000Y-102750000D02*
X143500000Y-102750000D01*
X143500000Y-96250000D02*
X139000000Y-96250000D01*
X144750000Y-100250000D02*
X144750000Y-98750000D01*
%TO.C,R30*%
X82262742Y-110077500D02*
X82737258Y-110077500D01*
X82262742Y-111122500D02*
X82737258Y-111122500D01*
%TO.C,R10*%
X117012742Y-96727500D02*
X117487258Y-96727500D01*
X117012742Y-97772500D02*
X117487258Y-97772500D01*
%TO.C,D6*%
X81700000Y-108335000D02*
X83985000Y-108335000D01*
X83985000Y-106865000D02*
X81700000Y-106865000D01*
X83985000Y-108335000D02*
X83985000Y-106865000D01*
%TO.C,R24*%
X129977500Y-128762742D02*
X129977500Y-129237258D01*
X131022500Y-128762742D02*
X131022500Y-129237258D01*
%TO.C,R20*%
X100977500Y-128762742D02*
X100977500Y-129237258D01*
X102022500Y-128762742D02*
X102022500Y-129237258D01*
%TO.C,U1*%
X77000000Y-101040000D02*
X76200000Y-101040000D01*
X77000000Y-101040000D02*
X77800000Y-101040000D01*
X77000000Y-104160000D02*
X76200000Y-104160000D01*
X77000000Y-104160000D02*
X77800000Y-104160000D01*
X78540000Y-104440000D02*
X78060000Y-104440000D01*
X78300000Y-104110000D01*
X78540000Y-104440000D01*
G36*
X78540000Y-104440000D02*
G01*
X78060000Y-104440000D01*
X78300000Y-104110000D01*
X78540000Y-104440000D01*
G37*
%TO.C,SW5*%
X134500000Y-130000000D02*
X134500000Y-131500000D01*
X135750000Y-134000000D02*
X140250000Y-134000000D01*
X140250000Y-127500000D02*
X135750000Y-127500000D01*
X141500000Y-131500000D02*
X141500000Y-130000000D01*
%TO.C,RV3*%
X103879000Y-111380000D02*
X113920000Y-111380000D01*
X103879000Y-115316000D02*
X103879000Y-111380000D01*
X103879000Y-123620000D02*
X103879000Y-119683000D01*
X103879000Y-123620000D02*
X105200000Y-123620000D01*
X107650000Y-123620000D02*
X108030000Y-123620000D01*
X109771000Y-123620000D02*
X110530000Y-123620000D01*
X112270000Y-123620000D02*
X113920000Y-123620000D01*
X113920000Y-115316000D02*
X113920000Y-111380000D01*
X113920000Y-123620000D02*
X113920000Y-119683000D01*
D10*
%TO.C,U4*%
X87875000Y-99000000D02*
X87875000Y-98425000D01*
X87875000Y-109075000D02*
X87875000Y-108500000D01*
X93625000Y-98425000D02*
X87875000Y-98425000D01*
X93625000Y-99000000D02*
X93625000Y-98425000D01*
X93625000Y-109075000D02*
X87875000Y-109075000D01*
X93625000Y-109075000D02*
X93625000Y-108500000D01*
D11*
X94365000Y-108830000D02*
X93885000Y-108830000D01*
X94125000Y-108500000D01*
X94365000Y-108830000D01*
G36*
X94365000Y-108830000D02*
G01*
X93885000Y-108830000D01*
X94125000Y-108500000D01*
X94365000Y-108830000D01*
G37*
%TO.C,J3*%
X98540000Y-88120000D02*
X98540000Y-90880000D01*
X108810000Y-88120000D02*
X98540000Y-88120000D01*
X108810000Y-88120000D02*
X108810000Y-90880000D01*
X108810000Y-90880000D02*
X98540000Y-90880000D01*
X110080000Y-88120000D02*
X111460000Y-88120000D01*
X111460000Y-88120000D02*
X111460000Y-89500000D01*
%TD*%
M02*
