M48
; DRILL file {KiCad 9.0.3} date 2026-07-24T12:58:34+0900
; FORMAT={-:-/ absolute / metric / decimal}
; #@! TF.CreationDate,2026-07-24T12:58:34+09:00
; #@! TF.GenerationSoftware,Kicad,Pcbnew,9.0.3
; #@! TF.FileFunction,Plated,1,4,PTH
FMAT,2
METRIC
; #@! TA.AperFunction,Plated,PTH,ViaDrill
T1C0.300
; #@! TA.AperFunction,Plated,PTH,ViaDrill
T2C0.600
; #@! TA.AperFunction,Plated,PTH,ComponentDrill
T3C0.800
; #@! TA.AperFunction,Plated,PTH,ComponentDrill
T4C1.000
; #@! TA.AperFunction,Plated,PTH,ComponentDrill
T5C1.100
; #@! TA.AperFunction,Plated,PTH,ComponentDrill
T6C1.800
; #@! TA.AperFunction,Plated,PTH,ComponentDrill
T7C3.200
%
G90
G05
T1
X64.0Y-116.5
X64.0Y-121.5
X64.0Y-126.5
X65.0Y-112.2
X67.5Y-111.5
X67.5Y-116.591
X67.5Y-121.5
X72.343Y-121.409
X72.5Y-87.5
X72.5Y-96.5
X72.5Y-111.5
X72.5Y-116.5
X72.5Y-126.5
X72.5Y-131.5
X72.5Y-135.0
X75.3Y-98.9
X76.1Y-98.9
X77.343Y-121.409
X77.5Y-87.5
X77.5Y-96.5
X77.5Y-106.5
X77.5Y-111.5
X77.5Y-116.5
X77.5Y-126.5
X77.5Y-131.5
X77.5Y-135.0
X78.25Y-99.75
X78.25Y-100.5
X78.6Y-94.0
X78.6Y-94.8
X78.7Y-91.5
X78.7Y-92.5
X79.4Y-102.6
X79.8Y-95.7
X80.2Y-102.6
X80.8Y-95.7
X81.4Y-103.0
X81.7Y-95.7
X82.1Y-91.5
X82.1Y-92.5
X82.343Y-121.409
X82.5Y-87.5
X82.5Y-101.7
X82.5Y-111.5
X82.5Y-116.5
X82.5Y-126.5
X82.5Y-131.5
X82.5Y-135.0
X83.2Y-102.3
X83.6Y-100.9
X84.4Y-106.1
X84.4Y-110.6
X85.2Y-102.2
X85.6Y-101.2
X87.0Y-127.2
X87.5Y-87.5
X87.5Y-96.5
X87.5Y-111.5
X87.5Y-121.5
X87.5Y-135.0
X88.8Y-100.8
X88.8Y-102.9
X88.8Y-105.9
X88.8Y-107.0
X88.9Y-104.1
X89.7Y-102.0
X90.0Y-98.0
X90.7Y-105.3
X92.5Y-87.5
X92.5Y-91.5
X92.5Y-96.5
X92.5Y-111.5
X92.5Y-135.0
X92.7Y-106.0
X92.8Y-104.0
X93.5Y-119.4
X96.8Y-105.4
X97.0Y-109.8
X97.5Y-87.5
X97.5Y-91.5
X97.5Y-96.5
X97.5Y-101.5
X97.5Y-111.38
X97.5Y-135.0
X99.5Y-107.5
X102.5Y-87.5
X102.5Y-91.5
X102.5Y-106.5
X102.5Y-135.0
X103.0Y-127.2
X106.5Y-101.9
X107.5Y-87.5
X107.5Y-121.5
X107.5Y-126.5
X107.5Y-131.5
X107.5Y-135.0
X112.5Y-87.5
X112.5Y-101.5
X112.5Y-106.5
X112.5Y-121.5
X112.5Y-126.5
X112.5Y-135.0
X113.8Y-94.9
X117.3Y-101.4
X117.5Y-87.5
X117.5Y-106.5
X117.5Y-121.5
X117.5Y-127.2
X117.5Y-135.0
X118.5Y-99.7
X119.0Y-102.3
X119.6Y-88.0
X119.8Y-102.3
X120.2Y-90.1
X120.7Y-102.3
X121.5Y-102.3
X122.2Y-88.0
X122.3Y-91.9
X122.5Y-121.5
X122.5Y-126.5
X122.5Y-131.5
X122.5Y-135.0
X122.7Y-100.2
X123.0Y-119.3
X123.7Y-94.6
X124.6Y-98.5
X124.8Y-88.0
X125.2Y-99.3
X125.4Y-90.1
X125.9Y-104.3
X126.8Y-99.3
X127.0Y-91.5
X127.1Y-97.8
X127.4Y-88.0
X127.5Y-121.651
X127.5Y-126.5
X127.5Y-135.0
X127.6Y-97.1
X128.0Y-91.1
X128.3Y-95.8
X129.5Y-93.2
X130.5Y-89.9
X130.7Y-94.0
X132.0Y-127.2
X132.5Y-87.5
X132.5Y-96.25
X132.5Y-121.5
X132.5Y-131.5
X132.5Y-135.0
X133.1Y-104.4
X133.9Y-99.5
X135.0Y-105.3
X135.65Y-105.9
X136.3Y-106.8
X136.95Y-107.6
X137.5Y-87.5
X137.5Y-91.5
X137.5Y-119.3
X137.5Y-121.5
X137.5Y-131.5
X137.5Y-135.0
X139.4Y-108.7
X142.2Y-104.2
X142.5Y-87.5
X142.5Y-91.5
X142.5Y-96.5
X142.5Y-106.5
X142.5Y-126.5
X142.5Y-131.5
X142.5Y-135.0
X143.12Y-111.38
X143.12Y-121.651
X147.5Y-101.5
X147.5Y-106.5
X147.5Y-111.5
X147.5Y-116.5
X147.5Y-121.5
X151.0Y-96.5
X151.0Y-101.5
X151.0Y-106.5
X151.0Y-111.5
X151.0Y-116.5
X151.0Y-121.5
T2
X66.25Y-125.25
X67.75Y-125.25
X73.75Y-90.25
X73.75Y-91.75
X78.5Y-88.75
X78.5Y-90.0
X79.5Y-99.0
X81.0Y-99.0
X82.25Y-88.75
X82.25Y-90.0
X88.6Y-90.5
X88.6Y-92.0
X88.6Y-93.5
X90.1Y-90.5
X90.1Y-92.0
X90.1Y-93.5
X147.25Y-97.75
X147.25Y-125.25
X148.75Y-97.75
X148.75Y-125.25
T3
X102.975Y-103.25
X110.575Y-103.25
T4
X91.8Y-124.5
X94.3Y-124.5
X96.8Y-124.5
X99.92Y-89.5
X102.46Y-89.5
X105.0Y-89.5
X106.4Y-124.5
X107.54Y-89.5
X108.9Y-124.5
X110.08Y-89.5
X111.4Y-124.5
X121.0Y-124.5
X123.5Y-124.5
X126.0Y-124.5
X132.94Y-89.5
X135.48Y-89.5
X135.6Y-124.5
X138.02Y-89.5
X138.1Y-124.5
X140.56Y-89.5
X140.6Y-124.5
T5
X90.75Y-128.5
X90.75Y-133.0
X97.25Y-128.5
X97.25Y-133.0
X105.75Y-128.5
X105.75Y-133.0
X112.25Y-128.5
X112.25Y-133.0
X120.25Y-128.5
X120.25Y-133.0
X126.75Y-128.5
X126.75Y-133.0
X134.75Y-128.5
X134.75Y-133.0
X138.0Y-97.25
X138.0Y-101.75
X141.25Y-128.5
X141.25Y-133.0
X144.5Y-97.25
X144.5Y-101.75
T7
X67.0Y-91.0
X67.0Y-132.0
X148.0Y-91.0
X148.0Y-132.0
T6
G00X89.9Y-117.65
M15
G01X89.9Y-117.35
M16
G05
G00X98.7Y-117.65
M15
G01X98.7Y-117.35
M16
G05
G00X104.5Y-117.65
M15
G01X104.5Y-117.35
M16
G05
G00X113.3Y-117.65
M15
G01X113.3Y-117.35
M16
G05
G00X119.1Y-117.65
M15
G01X119.1Y-117.35
M16
G05
G00X127.9Y-117.65
M15
G01X127.9Y-117.35
M16
G05
G00X133.7Y-117.65
M15
G01X133.7Y-117.35
M16
G05
G00X142.5Y-117.65
M15
G01X142.5Y-117.35
M16
G05
M30
