%TF.GenerationSoftware,KiCad,Pcbnew,9.0.3*%
%TF.CreationDate,2026-07-24T12:58:34+09:00*%
%TF.ProjectId,pinkbug_STM32_Training,70696e6b-6275-4675-9f53-544d33325f54,rev?*%
%TF.SameCoordinates,Original*%
%TF.FileFunction,Drillmap*%
%TF.FilePolarity,Positive*%
%FSLAX45Y45*%
G04 Gerber Fmt 4.5, Leading zero omitted, Abs format (unit mm)*
G04 Created by KiCad (PCBNEW 9.0.3) date 2026-07-24 12:58:34*
%MOMM*%
%LPD*%
G01*
G04 APERTURE LIST*
%ADD10C,0.200000*%
%ADD11C,0.100000*%
G04 APERTURE END LIST*
D10*
X6550000Y-13650000D02*
G75*
G02*
X6250000Y-13350000I0J300000D01*
G01*
X6250000Y-13350000D02*
X6250000Y-8950000D01*
X15250000Y-13350000D02*
G75*
G02*
X14950000Y-13650000I-300000J0D01*
G01*
X14950000Y-8650000D02*
G75*
G02*
X15250000Y-8950000I0J-300000D01*
G01*
X14950000Y-13650000D02*
X6550000Y-13650000D01*
X15250000Y-8950000D02*
X15250000Y-13350000D01*
X6550000Y-8650000D02*
X14950000Y-8650000D01*
X6250000Y-8950000D02*
G75*
G02*
X6550000Y-8650000I300000J0D01*
G01*
D11*
X6755000Y-10035000D02*
X6845000Y-10125000D01*
X6845000Y-10035000D02*
X6755000Y-10125000D01*
X6755000Y-10475000D02*
X6845000Y-10565000D01*
X6845000Y-10475000D02*
X6755000Y-10565000D01*
D10*
X6500777Y-13971484D02*
X6500777Y-13771484D01*
X6500777Y-13771484D02*
X6548396Y-13771484D01*
X6548396Y-13771484D02*
X6576967Y-13781008D01*
X6576967Y-13781008D02*
X6596015Y-13800055D01*
X6596015Y-13800055D02*
X6605539Y-13819103D01*
X6605539Y-13819103D02*
X6615062Y-13857198D01*
X6615062Y-13857198D02*
X6615062Y-13885769D01*
X6615062Y-13885769D02*
X6605539Y-13923865D01*
X6605539Y-13923865D02*
X6596015Y-13942912D01*
X6596015Y-13942912D02*
X6576967Y-13961960D01*
X6576967Y-13961960D02*
X6548396Y-13971484D01*
X6548396Y-13971484D02*
X6500777Y-13971484D01*
X6700777Y-13971484D02*
X6700777Y-13838150D01*
X6700777Y-13876246D02*
X6710301Y-13857198D01*
X6710301Y-13857198D02*
X6719824Y-13847674D01*
X6719824Y-13847674D02*
X6738872Y-13838150D01*
X6738872Y-13838150D02*
X6757920Y-13838150D01*
X6824586Y-13971484D02*
X6824586Y-13838150D01*
X6824586Y-13771484D02*
X6815062Y-13781008D01*
X6815062Y-13781008D02*
X6824586Y-13790531D01*
X6824586Y-13790531D02*
X6834110Y-13781008D01*
X6834110Y-13781008D02*
X6824586Y-13771484D01*
X6824586Y-13771484D02*
X6824586Y-13790531D01*
X6948396Y-13971484D02*
X6929348Y-13961960D01*
X6929348Y-13961960D02*
X6919824Y-13942912D01*
X6919824Y-13942912D02*
X6919824Y-13771484D01*
X7053158Y-13971484D02*
X7034110Y-13961960D01*
X7034110Y-13961960D02*
X7024586Y-13942912D01*
X7024586Y-13942912D02*
X7024586Y-13771484D01*
X7281729Y-13971484D02*
X7281729Y-13771484D01*
X7281729Y-13771484D02*
X7348396Y-13914341D01*
X7348396Y-13914341D02*
X7415062Y-13771484D01*
X7415062Y-13771484D02*
X7415062Y-13971484D01*
X7596015Y-13971484D02*
X7596015Y-13866722D01*
X7596015Y-13866722D02*
X7586491Y-13847674D01*
X7586491Y-13847674D02*
X7567443Y-13838150D01*
X7567443Y-13838150D02*
X7529348Y-13838150D01*
X7529348Y-13838150D02*
X7510301Y-13847674D01*
X7596015Y-13961960D02*
X7576967Y-13971484D01*
X7576967Y-13971484D02*
X7529348Y-13971484D01*
X7529348Y-13971484D02*
X7510301Y-13961960D01*
X7510301Y-13961960D02*
X7500777Y-13942912D01*
X7500777Y-13942912D02*
X7500777Y-13923865D01*
X7500777Y-13923865D02*
X7510301Y-13904817D01*
X7510301Y-13904817D02*
X7529348Y-13895293D01*
X7529348Y-13895293D02*
X7576967Y-13895293D01*
X7576967Y-13895293D02*
X7596015Y-13885769D01*
X7691253Y-13838150D02*
X7691253Y-14038150D01*
X7691253Y-13847674D02*
X7710301Y-13838150D01*
X7710301Y-13838150D02*
X7748396Y-13838150D01*
X7748396Y-13838150D02*
X7767443Y-13847674D01*
X7767443Y-13847674D02*
X7776967Y-13857198D01*
X7776967Y-13857198D02*
X7786491Y-13876246D01*
X7786491Y-13876246D02*
X7786491Y-13933388D01*
X7786491Y-13933388D02*
X7776967Y-13952436D01*
X7776967Y-13952436D02*
X7767443Y-13961960D01*
X7767443Y-13961960D02*
X7748396Y-13971484D01*
X7748396Y-13971484D02*
X7710301Y-13971484D01*
X7710301Y-13971484D02*
X7691253Y-13961960D01*
X7872205Y-13952436D02*
X7881729Y-13961960D01*
X7881729Y-13961960D02*
X7872205Y-13971484D01*
X7872205Y-13971484D02*
X7862682Y-13961960D01*
X7862682Y-13961960D02*
X7872205Y-13952436D01*
X7872205Y-13952436D02*
X7872205Y-13971484D01*
X7872205Y-13847674D02*
X7881729Y-13857198D01*
X7881729Y-13857198D02*
X7872205Y-13866722D01*
X7872205Y-13866722D02*
X7862682Y-13857198D01*
X7862682Y-13857198D02*
X7872205Y-13847674D01*
X7872205Y-13847674D02*
X7872205Y-13866722D01*
D11*
X6150000Y-14255000D02*
X6240000Y-14345000D01*
X6240000Y-14255000D02*
X6150000Y-14345000D01*
D10*
X6538872Y-14191484D02*
X6557920Y-14191484D01*
X6557920Y-14191484D02*
X6576967Y-14201008D01*
X6576967Y-14201008D02*
X6586491Y-14210531D01*
X6586491Y-14210531D02*
X6596015Y-14229579D01*
X6596015Y-14229579D02*
X6605539Y-14267674D01*
X6605539Y-14267674D02*
X6605539Y-14315293D01*
X6605539Y-14315293D02*
X6596015Y-14353388D01*
X6596015Y-14353388D02*
X6586491Y-14372436D01*
X6586491Y-14372436D02*
X6576967Y-14381960D01*
X6576967Y-14381960D02*
X6557920Y-14391484D01*
X6557920Y-14391484D02*
X6538872Y-14391484D01*
X6538872Y-14391484D02*
X6519824Y-14381960D01*
X6519824Y-14381960D02*
X6510301Y-14372436D01*
X6510301Y-14372436D02*
X6500777Y-14353388D01*
X6500777Y-14353388D02*
X6491253Y-14315293D01*
X6491253Y-14315293D02*
X6491253Y-14267674D01*
X6491253Y-14267674D02*
X6500777Y-14229579D01*
X6500777Y-14229579D02*
X6510301Y-14210531D01*
X6510301Y-14210531D02*
X6519824Y-14201008D01*
X6519824Y-14201008D02*
X6538872Y-14191484D01*
X6691253Y-14372436D02*
X6700777Y-14381960D01*
X6700777Y-14381960D02*
X6691253Y-14391484D01*
X6691253Y-14391484D02*
X6681729Y-14381960D01*
X6681729Y-14381960D02*
X6691253Y-14372436D01*
X6691253Y-14372436D02*
X6691253Y-14391484D01*
X6796015Y-14391484D02*
X6834110Y-14391484D01*
X6834110Y-14391484D02*
X6853158Y-14381960D01*
X6853158Y-14381960D02*
X6862682Y-14372436D01*
X6862682Y-14372436D02*
X6881729Y-14343865D01*
X6881729Y-14343865D02*
X6891253Y-14305769D01*
X6891253Y-14305769D02*
X6891253Y-14229579D01*
X6891253Y-14229579D02*
X6881729Y-14210531D01*
X6881729Y-14210531D02*
X6872205Y-14201008D01*
X6872205Y-14201008D02*
X6853158Y-14191484D01*
X6853158Y-14191484D02*
X6815062Y-14191484D01*
X6815062Y-14191484D02*
X6796015Y-14201008D01*
X6796015Y-14201008D02*
X6786491Y-14210531D01*
X6786491Y-14210531D02*
X6776967Y-14229579D01*
X6776967Y-14229579D02*
X6776967Y-14277198D01*
X6776967Y-14277198D02*
X6786491Y-14296246D01*
X6786491Y-14296246D02*
X6796015Y-14305769D01*
X6796015Y-14305769D02*
X6815062Y-14315293D01*
X6815062Y-14315293D02*
X6853158Y-14315293D01*
X6853158Y-14315293D02*
X6872205Y-14305769D01*
X6872205Y-14305769D02*
X6881729Y-14296246D01*
X6881729Y-14296246D02*
X6891253Y-14277198D01*
X7015062Y-14191484D02*
X7034110Y-14191484D01*
X7034110Y-14191484D02*
X7053158Y-14201008D01*
X7053158Y-14201008D02*
X7062682Y-14210531D01*
X7062682Y-14210531D02*
X7072205Y-14229579D01*
X7072205Y-14229579D02*
X7081729Y-14267674D01*
X7081729Y-14267674D02*
X7081729Y-14315293D01*
X7081729Y-14315293D02*
X7072205Y-14353388D01*
X7072205Y-14353388D02*
X7062682Y-14372436D01*
X7062682Y-14372436D02*
X7053158Y-14381960D01*
X7053158Y-14381960D02*
X7034110Y-14391484D01*
X7034110Y-14391484D02*
X7015062Y-14391484D01*
X7015062Y-14391484D02*
X6996015Y-14381960D01*
X6996015Y-14381960D02*
X6986491Y-14372436D01*
X6986491Y-14372436D02*
X6976967Y-14353388D01*
X6976967Y-14353388D02*
X6967443Y-14315293D01*
X6967443Y-14315293D02*
X6967443Y-14267674D01*
X6967443Y-14267674D02*
X6976967Y-14229579D01*
X6976967Y-14229579D02*
X6986491Y-14210531D01*
X6986491Y-14210531D02*
X6996015Y-14201008D01*
X6996015Y-14201008D02*
X7015062Y-14191484D01*
X7205539Y-14191484D02*
X7224586Y-14191484D01*
X7224586Y-14191484D02*
X7243634Y-14201008D01*
X7243634Y-14201008D02*
X7253158Y-14210531D01*
X7253158Y-14210531D02*
X7262682Y-14229579D01*
X7262682Y-14229579D02*
X7272205Y-14267674D01*
X7272205Y-14267674D02*
X7272205Y-14315293D01*
X7272205Y-14315293D02*
X7262682Y-14353388D01*
X7262682Y-14353388D02*
X7253158Y-14372436D01*
X7253158Y-14372436D02*
X7243634Y-14381960D01*
X7243634Y-14381960D02*
X7224586Y-14391484D01*
X7224586Y-14391484D02*
X7205539Y-14391484D01*
X7205539Y-14391484D02*
X7186491Y-14381960D01*
X7186491Y-14381960D02*
X7176967Y-14372436D01*
X7176967Y-14372436D02*
X7167443Y-14353388D01*
X7167443Y-14353388D02*
X7157920Y-14315293D01*
X7157920Y-14315293D02*
X7157920Y-14267674D01*
X7157920Y-14267674D02*
X7167443Y-14229579D01*
X7167443Y-14229579D02*
X7176967Y-14210531D01*
X7176967Y-14210531D02*
X7186491Y-14201008D01*
X7186491Y-14201008D02*
X7205539Y-14191484D01*
X7357920Y-14391484D02*
X7357920Y-14258150D01*
X7357920Y-14277198D02*
X7367443Y-14267674D01*
X7367443Y-14267674D02*
X7386491Y-14258150D01*
X7386491Y-14258150D02*
X7415063Y-14258150D01*
X7415063Y-14258150D02*
X7434110Y-14267674D01*
X7434110Y-14267674D02*
X7443634Y-14286722D01*
X7443634Y-14286722D02*
X7443634Y-14391484D01*
X7443634Y-14286722D02*
X7453158Y-14267674D01*
X7453158Y-14267674D02*
X7472205Y-14258150D01*
X7472205Y-14258150D02*
X7500777Y-14258150D01*
X7500777Y-14258150D02*
X7519824Y-14267674D01*
X7519824Y-14267674D02*
X7529348Y-14286722D01*
X7529348Y-14286722D02*
X7529348Y-14391484D01*
X7624586Y-14391484D02*
X7624586Y-14258150D01*
X7624586Y-14277198D02*
X7634110Y-14267674D01*
X7634110Y-14267674D02*
X7653158Y-14258150D01*
X7653158Y-14258150D02*
X7681729Y-14258150D01*
X7681729Y-14258150D02*
X7700777Y-14267674D01*
X7700777Y-14267674D02*
X7710301Y-14286722D01*
X7710301Y-14286722D02*
X7710301Y-14391484D01*
X7710301Y-14286722D02*
X7719824Y-14267674D01*
X7719824Y-14267674D02*
X7738872Y-14258150D01*
X7738872Y-14258150D02*
X7767443Y-14258150D01*
X7767443Y-14258150D02*
X7786491Y-14267674D01*
X7786491Y-14267674D02*
X7796015Y-14286722D01*
X7796015Y-14286722D02*
X7796015Y-14391484D01*
X8186491Y-14181960D02*
X8015063Y-14439103D01*
X8443634Y-14191484D02*
X8462682Y-14191484D01*
X8462682Y-14191484D02*
X8481729Y-14201008D01*
X8481729Y-14201008D02*
X8491253Y-14210531D01*
X8491253Y-14210531D02*
X8500777Y-14229579D01*
X8500777Y-14229579D02*
X8510301Y-14267674D01*
X8510301Y-14267674D02*
X8510301Y-14315293D01*
X8510301Y-14315293D02*
X8500777Y-14353388D01*
X8500777Y-14353388D02*
X8491253Y-14372436D01*
X8491253Y-14372436D02*
X8481729Y-14381960D01*
X8481729Y-14381960D02*
X8462682Y-14391484D01*
X8462682Y-14391484D02*
X8443634Y-14391484D01*
X8443634Y-14391484D02*
X8424587Y-14381960D01*
X8424587Y-14381960D02*
X8415063Y-14372436D01*
X8415063Y-14372436D02*
X8405539Y-14353388D01*
X8405539Y-14353388D02*
X8396015Y-14315293D01*
X8396015Y-14315293D02*
X8396015Y-14267674D01*
X8396015Y-14267674D02*
X8405539Y-14229579D01*
X8405539Y-14229579D02*
X8415063Y-14210531D01*
X8415063Y-14210531D02*
X8424587Y-14201008D01*
X8424587Y-14201008D02*
X8443634Y-14191484D01*
X8596015Y-14372436D02*
X8605539Y-14381960D01*
X8605539Y-14381960D02*
X8596015Y-14391484D01*
X8596015Y-14391484D02*
X8586491Y-14381960D01*
X8586491Y-14381960D02*
X8596015Y-14372436D01*
X8596015Y-14372436D02*
X8596015Y-14391484D01*
X8729348Y-14191484D02*
X8748396Y-14191484D01*
X8748396Y-14191484D02*
X8767444Y-14201008D01*
X8767444Y-14201008D02*
X8776968Y-14210531D01*
X8776968Y-14210531D02*
X8786491Y-14229579D01*
X8786491Y-14229579D02*
X8796015Y-14267674D01*
X8796015Y-14267674D02*
X8796015Y-14315293D01*
X8796015Y-14315293D02*
X8786491Y-14353388D01*
X8786491Y-14353388D02*
X8776968Y-14372436D01*
X8776968Y-14372436D02*
X8767444Y-14381960D01*
X8767444Y-14381960D02*
X8748396Y-14391484D01*
X8748396Y-14391484D02*
X8729348Y-14391484D01*
X8729348Y-14391484D02*
X8710301Y-14381960D01*
X8710301Y-14381960D02*
X8700777Y-14372436D01*
X8700777Y-14372436D02*
X8691253Y-14353388D01*
X8691253Y-14353388D02*
X8681729Y-14315293D01*
X8681729Y-14315293D02*
X8681729Y-14267674D01*
X8681729Y-14267674D02*
X8691253Y-14229579D01*
X8691253Y-14229579D02*
X8700777Y-14210531D01*
X8700777Y-14210531D02*
X8710301Y-14201008D01*
X8710301Y-14201008D02*
X8729348Y-14191484D01*
X8862682Y-14191484D02*
X8986491Y-14191484D01*
X8986491Y-14191484D02*
X8919825Y-14267674D01*
X8919825Y-14267674D02*
X8948396Y-14267674D01*
X8948396Y-14267674D02*
X8967444Y-14277198D01*
X8967444Y-14277198D02*
X8976968Y-14286722D01*
X8976968Y-14286722D02*
X8986491Y-14305769D01*
X8986491Y-14305769D02*
X8986491Y-14353388D01*
X8986491Y-14353388D02*
X8976968Y-14372436D01*
X8976968Y-14372436D02*
X8967444Y-14381960D01*
X8967444Y-14381960D02*
X8948396Y-14391484D01*
X8948396Y-14391484D02*
X8891253Y-14391484D01*
X8891253Y-14391484D02*
X8872206Y-14381960D01*
X8872206Y-14381960D02*
X8862682Y-14372436D01*
X9167444Y-14191484D02*
X9072206Y-14191484D01*
X9072206Y-14191484D02*
X9062682Y-14286722D01*
X9062682Y-14286722D02*
X9072206Y-14277198D01*
X9072206Y-14277198D02*
X9091253Y-14267674D01*
X9091253Y-14267674D02*
X9138872Y-14267674D01*
X9138872Y-14267674D02*
X9157920Y-14277198D01*
X9157920Y-14277198D02*
X9167444Y-14286722D01*
X9167444Y-14286722D02*
X9176968Y-14305769D01*
X9176968Y-14305769D02*
X9176968Y-14353388D01*
X9176968Y-14353388D02*
X9167444Y-14372436D01*
X9167444Y-14372436D02*
X9157920Y-14381960D01*
X9157920Y-14381960D02*
X9138872Y-14391484D01*
X9138872Y-14391484D02*
X9091253Y-14391484D01*
X9091253Y-14391484D02*
X9072206Y-14381960D01*
X9072206Y-14381960D02*
X9062682Y-14372436D01*
X9348396Y-14258150D02*
X9348396Y-14391484D01*
X9300777Y-14181960D02*
X9253158Y-14324817D01*
X9253158Y-14324817D02*
X9376968Y-14324817D01*
X9443634Y-14191484D02*
X9443634Y-14229579D01*
X9519825Y-14191484D02*
X9519825Y-14229579D01*
X9815063Y-14467674D02*
X9805539Y-14458150D01*
X9805539Y-14458150D02*
X9786491Y-14429579D01*
X9786491Y-14429579D02*
X9776968Y-14410531D01*
X9776968Y-14410531D02*
X9767444Y-14381960D01*
X9767444Y-14381960D02*
X9757920Y-14334341D01*
X9757920Y-14334341D02*
X9757920Y-14296246D01*
X9757920Y-14296246D02*
X9767444Y-14248627D01*
X9767444Y-14248627D02*
X9776968Y-14220055D01*
X9776968Y-14220055D02*
X9786491Y-14201008D01*
X9786491Y-14201008D02*
X9805539Y-14172436D01*
X9805539Y-14172436D02*
X9815063Y-14162912D01*
X9881730Y-14210531D02*
X9891253Y-14201008D01*
X9891253Y-14201008D02*
X9910301Y-14191484D01*
X9910301Y-14191484D02*
X9957920Y-14191484D01*
X9957920Y-14191484D02*
X9976968Y-14201008D01*
X9976968Y-14201008D02*
X9986491Y-14210531D01*
X9986491Y-14210531D02*
X9996015Y-14229579D01*
X9996015Y-14229579D02*
X9996015Y-14248627D01*
X9996015Y-14248627D02*
X9986491Y-14277198D01*
X9986491Y-14277198D02*
X9872206Y-14391484D01*
X9872206Y-14391484D02*
X9996015Y-14391484D01*
X10234111Y-14391484D02*
X10234111Y-14191484D01*
X10319825Y-14391484D02*
X10319825Y-14286722D01*
X10319825Y-14286722D02*
X10310301Y-14267674D01*
X10310301Y-14267674D02*
X10291253Y-14258150D01*
X10291253Y-14258150D02*
X10262682Y-14258150D01*
X10262682Y-14258150D02*
X10243634Y-14267674D01*
X10243634Y-14267674D02*
X10234111Y-14277198D01*
X10443634Y-14391484D02*
X10424587Y-14381960D01*
X10424587Y-14381960D02*
X10415063Y-14372436D01*
X10415063Y-14372436D02*
X10405539Y-14353388D01*
X10405539Y-14353388D02*
X10405539Y-14296246D01*
X10405539Y-14296246D02*
X10415063Y-14277198D01*
X10415063Y-14277198D02*
X10424587Y-14267674D01*
X10424587Y-14267674D02*
X10443634Y-14258150D01*
X10443634Y-14258150D02*
X10472206Y-14258150D01*
X10472206Y-14258150D02*
X10491253Y-14267674D01*
X10491253Y-14267674D02*
X10500777Y-14277198D01*
X10500777Y-14277198D02*
X10510301Y-14296246D01*
X10510301Y-14296246D02*
X10510301Y-14353388D01*
X10510301Y-14353388D02*
X10500777Y-14372436D01*
X10500777Y-14372436D02*
X10491253Y-14381960D01*
X10491253Y-14381960D02*
X10472206Y-14391484D01*
X10472206Y-14391484D02*
X10443634Y-14391484D01*
X10624587Y-14391484D02*
X10605539Y-14381960D01*
X10605539Y-14381960D02*
X10596015Y-14362912D01*
X10596015Y-14362912D02*
X10596015Y-14191484D01*
X10776968Y-14381960D02*
X10757920Y-14391484D01*
X10757920Y-14391484D02*
X10719825Y-14391484D01*
X10719825Y-14391484D02*
X10700777Y-14381960D01*
X10700777Y-14381960D02*
X10691253Y-14362912D01*
X10691253Y-14362912D02*
X10691253Y-14286722D01*
X10691253Y-14286722D02*
X10700777Y-14267674D01*
X10700777Y-14267674D02*
X10719825Y-14258150D01*
X10719825Y-14258150D02*
X10757920Y-14258150D01*
X10757920Y-14258150D02*
X10776968Y-14267674D01*
X10776968Y-14267674D02*
X10786492Y-14286722D01*
X10786492Y-14286722D02*
X10786492Y-14305769D01*
X10786492Y-14305769D02*
X10691253Y-14324817D01*
X10862682Y-14381960D02*
X10881730Y-14391484D01*
X10881730Y-14391484D02*
X10919825Y-14391484D01*
X10919825Y-14391484D02*
X10938873Y-14381960D01*
X10938873Y-14381960D02*
X10948396Y-14362912D01*
X10948396Y-14362912D02*
X10948396Y-14353388D01*
X10948396Y-14353388D02*
X10938873Y-14334341D01*
X10938873Y-14334341D02*
X10919825Y-14324817D01*
X10919825Y-14324817D02*
X10891253Y-14324817D01*
X10891253Y-14324817D02*
X10872206Y-14315293D01*
X10872206Y-14315293D02*
X10862682Y-14296246D01*
X10862682Y-14296246D02*
X10862682Y-14286722D01*
X10862682Y-14286722D02*
X10872206Y-14267674D01*
X10872206Y-14267674D02*
X10891253Y-14258150D01*
X10891253Y-14258150D02*
X10919825Y-14258150D01*
X10919825Y-14258150D02*
X10938873Y-14267674D01*
X11015063Y-14467674D02*
X11024587Y-14458150D01*
X11024587Y-14458150D02*
X11043634Y-14429579D01*
X11043634Y-14429579D02*
X11053158Y-14410531D01*
X11053158Y-14410531D02*
X11062682Y-14381960D01*
X11062682Y-14381960D02*
X11072206Y-14334341D01*
X11072206Y-14334341D02*
X11072206Y-14296246D01*
X11072206Y-14296246D02*
X11062682Y-14248627D01*
X11062682Y-14248627D02*
X11053158Y-14220055D01*
X11053158Y-14220055D02*
X11043634Y-14201008D01*
X11043634Y-14201008D02*
X11024587Y-14172436D01*
X11024587Y-14172436D02*
X11015063Y-14162912D01*
X11376968Y-14467674D02*
X11367444Y-14458150D01*
X11367444Y-14458150D02*
X11348396Y-14429579D01*
X11348396Y-14429579D02*
X11338872Y-14410531D01*
X11338872Y-14410531D02*
X11329349Y-14381960D01*
X11329349Y-14381960D02*
X11319825Y-14334341D01*
X11319825Y-14334341D02*
X11319825Y-14296246D01*
X11319825Y-14296246D02*
X11329349Y-14248627D01*
X11329349Y-14248627D02*
X11338872Y-14220055D01*
X11338872Y-14220055D02*
X11348396Y-14201008D01*
X11348396Y-14201008D02*
X11367444Y-14172436D01*
X11367444Y-14172436D02*
X11376968Y-14162912D01*
X11453158Y-14258150D02*
X11453158Y-14391484D01*
X11453158Y-14277198D02*
X11462682Y-14267674D01*
X11462682Y-14267674D02*
X11481730Y-14258150D01*
X11481730Y-14258150D02*
X11510301Y-14258150D01*
X11510301Y-14258150D02*
X11529349Y-14267674D01*
X11529349Y-14267674D02*
X11538872Y-14286722D01*
X11538872Y-14286722D02*
X11538872Y-14391484D01*
X11662682Y-14391484D02*
X11643634Y-14381960D01*
X11643634Y-14381960D02*
X11634111Y-14372436D01*
X11634111Y-14372436D02*
X11624587Y-14353388D01*
X11624587Y-14353388D02*
X11624587Y-14296246D01*
X11624587Y-14296246D02*
X11634111Y-14277198D01*
X11634111Y-14277198D02*
X11643634Y-14267674D01*
X11643634Y-14267674D02*
X11662682Y-14258150D01*
X11662682Y-14258150D02*
X11691253Y-14258150D01*
X11691253Y-14258150D02*
X11710301Y-14267674D01*
X11710301Y-14267674D02*
X11719825Y-14277198D01*
X11719825Y-14277198D02*
X11729349Y-14296246D01*
X11729349Y-14296246D02*
X11729349Y-14353388D01*
X11729349Y-14353388D02*
X11719825Y-14372436D01*
X11719825Y-14372436D02*
X11710301Y-14381960D01*
X11710301Y-14381960D02*
X11691253Y-14391484D01*
X11691253Y-14391484D02*
X11662682Y-14391484D01*
X11786492Y-14258150D02*
X11862682Y-14258150D01*
X11815063Y-14191484D02*
X11815063Y-14362912D01*
X11815063Y-14362912D02*
X11824587Y-14381960D01*
X11824587Y-14381960D02*
X11843634Y-14391484D01*
X11843634Y-14391484D02*
X11862682Y-14391484D01*
X12081730Y-14258150D02*
X12081730Y-14458150D01*
X12081730Y-14267674D02*
X12100777Y-14258150D01*
X12100777Y-14258150D02*
X12138873Y-14258150D01*
X12138873Y-14258150D02*
X12157920Y-14267674D01*
X12157920Y-14267674D02*
X12167444Y-14277198D01*
X12167444Y-14277198D02*
X12176968Y-14296246D01*
X12176968Y-14296246D02*
X12176968Y-14353388D01*
X12176968Y-14353388D02*
X12167444Y-14372436D01*
X12167444Y-14372436D02*
X12157920Y-14381960D01*
X12157920Y-14381960D02*
X12138873Y-14391484D01*
X12138873Y-14391484D02*
X12100777Y-14391484D01*
X12100777Y-14391484D02*
X12081730Y-14381960D01*
X12291253Y-14391484D02*
X12272206Y-14381960D01*
X12272206Y-14381960D02*
X12262682Y-14362912D01*
X12262682Y-14362912D02*
X12262682Y-14191484D01*
X12453158Y-14391484D02*
X12453158Y-14286722D01*
X12453158Y-14286722D02*
X12443634Y-14267674D01*
X12443634Y-14267674D02*
X12424587Y-14258150D01*
X12424587Y-14258150D02*
X12386492Y-14258150D01*
X12386492Y-14258150D02*
X12367444Y-14267674D01*
X12453158Y-14381960D02*
X12434111Y-14391484D01*
X12434111Y-14391484D02*
X12386492Y-14391484D01*
X12386492Y-14391484D02*
X12367444Y-14381960D01*
X12367444Y-14381960D02*
X12357920Y-14362912D01*
X12357920Y-14362912D02*
X12357920Y-14343865D01*
X12357920Y-14343865D02*
X12367444Y-14324817D01*
X12367444Y-14324817D02*
X12386492Y-14315293D01*
X12386492Y-14315293D02*
X12434111Y-14315293D01*
X12434111Y-14315293D02*
X12453158Y-14305769D01*
X12519825Y-14258150D02*
X12596015Y-14258150D01*
X12548396Y-14191484D02*
X12548396Y-14362912D01*
X12548396Y-14362912D02*
X12557920Y-14381960D01*
X12557920Y-14381960D02*
X12576968Y-14391484D01*
X12576968Y-14391484D02*
X12596015Y-14391484D01*
X12738873Y-14381960D02*
X12719825Y-14391484D01*
X12719825Y-14391484D02*
X12681730Y-14391484D01*
X12681730Y-14391484D02*
X12662682Y-14381960D01*
X12662682Y-14381960D02*
X12653158Y-14362912D01*
X12653158Y-14362912D02*
X12653158Y-14286722D01*
X12653158Y-14286722D02*
X12662682Y-14267674D01*
X12662682Y-14267674D02*
X12681730Y-14258150D01*
X12681730Y-14258150D02*
X12719825Y-14258150D01*
X12719825Y-14258150D02*
X12738873Y-14267674D01*
X12738873Y-14267674D02*
X12748396Y-14286722D01*
X12748396Y-14286722D02*
X12748396Y-14305769D01*
X12748396Y-14305769D02*
X12653158Y-14324817D01*
X12919825Y-14391484D02*
X12919825Y-14191484D01*
X12919825Y-14381960D02*
X12900777Y-14391484D01*
X12900777Y-14391484D02*
X12862682Y-14391484D01*
X12862682Y-14391484D02*
X12843634Y-14381960D01*
X12843634Y-14381960D02*
X12834111Y-14372436D01*
X12834111Y-14372436D02*
X12824587Y-14353388D01*
X12824587Y-14353388D02*
X12824587Y-14296246D01*
X12824587Y-14296246D02*
X12834111Y-14277198D01*
X12834111Y-14277198D02*
X12843634Y-14267674D01*
X12843634Y-14267674D02*
X12862682Y-14258150D01*
X12862682Y-14258150D02*
X12900777Y-14258150D01*
X12900777Y-14258150D02*
X12919825Y-14267674D01*
X12996015Y-14467674D02*
X13005539Y-14458150D01*
X13005539Y-14458150D02*
X13024587Y-14429579D01*
X13024587Y-14429579D02*
X13034111Y-14410531D01*
X13034111Y-14410531D02*
X13043634Y-14381960D01*
X13043634Y-14381960D02*
X13053158Y-14334341D01*
X13053158Y-14334341D02*
X13053158Y-14296246D01*
X13053158Y-14296246D02*
X13043634Y-14248627D01*
X13043634Y-14248627D02*
X13034111Y-14220055D01*
X13034111Y-14220055D02*
X13024587Y-14201008D01*
X13024587Y-14201008D02*
X13005539Y-14172436D01*
X13005539Y-14172436D02*
X12996015Y-14162912D01*
M02*
