%TF.GenerationSoftware,KiCad,Pcbnew,9.0.3*%
%TF.CreationDate,2026-07-24T12:58:51+09:00*%
%TF.ProjectId,pinkbug_STM32_Training,70696e6b-6275-4675-9f53-544d33325f54,rev?*%
%TF.SameCoordinates,Original*%
%TF.FileFunction,Paste,Top*%
%TF.FilePolarity,Positive*%
%FSLAX46Y46*%
G04 Gerber Fmt 4.6, Leading zero omitted, Abs format (unit mm)*
G04 Created by KiCad (PCBNEW 9.0.3) date 2026-07-24 12:58:51*
%MOMM*%
%LPD*%
G01*
G04 APERTURE LIST*
G04 Aperture macros list*
%AMRoundRect*
0 Rectangle with rounded corners*
0 $1 Rounding radius*
0 $2 $3 $4 $5 $6 $7 $8 $9 X,Y pos of 4 corners*
0 Add a 4 corners polygon primitive as box body*
4,1,4,$2,$3,$4,$5,$6,$7,$8,$9,$2,$3,0*
0 Add four circle primitives for the rounded corners*
1,1,$1+$1,$2,$3*
1,1,$1+$1,$4,$5*
1,1,$1+$1,$6,$7*
1,1,$1+$1,$8,$9*
0 Add four rect primitives between the rounded corners*
20,1,$1+$1,$2,$3,$4,$5,0*
20,1,$1+$1,$4,$5,$6,$7,0*
20,1,$1+$1,$6,$7,$8,$9,0*
20,1,$1+$1,$8,$9,$2,$3,0*%
G04 Aperture macros list end*
%ADD10RoundRect,0.218750X0.335876X0.026517X0.026517X0.335876X-0.335876X-0.026517X-0.026517X-0.335876X0*%
%ADD11RoundRect,0.200000X0.275000X-0.200000X0.275000X0.200000X-0.275000X0.200000X-0.275000X-0.200000X0*%
%ADD12RoundRect,0.250000X-2.000000X-0.750000X2.000000X-0.750000X2.000000X0.750000X-2.000000X0.750000X0*%
%ADD13RoundRect,0.200000X-0.200000X-0.275000X0.200000X-0.275000X0.200000X0.275000X-0.200000X0.275000X0*%
%ADD14RoundRect,0.225000X-0.225000X-0.250000X0.225000X-0.250000X0.225000X0.250000X-0.225000X0.250000X0*%
%ADD15RoundRect,0.125000X-1.025000X-0.125000X1.025000X-0.125000X1.025000X0.125000X-1.025000X0.125000X0*%
%ADD16RoundRect,0.500000X-0.750000X-0.500000X0.750000X-0.500000X0.750000X0.500000X-0.750000X0.500000X0*%
%ADD17RoundRect,0.225000X0.225000X0.250000X-0.225000X0.250000X-0.225000X-0.250000X0.225000X-0.250000X0*%
%ADD18RoundRect,0.218750X0.218750X0.256250X-0.218750X0.256250X-0.218750X-0.256250X0.218750X-0.256250X0*%
%ADD19RoundRect,0.200000X-0.275000X0.200000X-0.275000X-0.200000X0.275000X-0.200000X0.275000X0.200000X0*%
%ADD20R,0.279400X1.461999*%
%ADD21R,1.461999X0.279400*%
%ADD22RoundRect,0.375000X-0.625000X-0.375000X0.625000X-0.375000X0.625000X0.375000X-0.625000X0.375000X0*%
%ADD23RoundRect,0.500000X-0.500000X-1.400000X0.500000X-1.400000X0.500000X1.400000X-0.500000X1.400000X0*%
%ADD24RoundRect,0.150000X0.512500X0.150000X-0.512500X0.150000X-0.512500X-0.150000X0.512500X-0.150000X0*%
%ADD25R,1.750000X0.450000*%
G04 APERTURE END LIST*
D10*
%TO.C,D4*%
X126656847Y-89856847D03*
X125543153Y-88743153D03*
%TD*%
D11*
%TO.C,R21*%
X117500000Y-129815000D03*
X117500000Y-128165000D03*
%TD*%
%TO.C,R4*%
X67000000Y-128075000D03*
X67000000Y-126425000D03*
%TD*%
D12*
%TO.C,Y1*%
X122250000Y-108000000D03*
X130750000Y-108000000D03*
%TD*%
D11*
%TO.C,R2*%
X148000000Y-128075000D03*
X148000000Y-126425000D03*
%TD*%
%TO.C,R17*%
X87000000Y-129825000D03*
X87000000Y-128175000D03*
%TD*%
D13*
%TO.C,R9*%
X116425000Y-95750000D03*
X118075000Y-95750000D03*
%TD*%
D14*
%TO.C,C3*%
X130525000Y-104400000D03*
X132075000Y-104400000D03*
%TD*%
D15*
%TO.C,J2*%
X70650000Y-101400000D03*
X70650000Y-102200000D03*
X70650000Y-103000000D03*
X70650000Y-103800000D03*
X70650000Y-104600000D03*
D16*
X65050000Y-98550000D03*
X65050000Y-107450000D03*
X70550000Y-98550000D03*
X70550000Y-107450000D03*
%TD*%
D17*
%TO.C,C4*%
X124775000Y-104250000D03*
X123225000Y-104250000D03*
%TD*%
D14*
%TO.C,C1*%
X75725000Y-100000000D03*
X77275000Y-100000000D03*
%TD*%
D18*
%TO.C,D5*%
X83287500Y-109100000D03*
X81712500Y-109100000D03*
%TD*%
D11*
%TO.C,R23*%
X132000000Y-129825000D03*
X132000000Y-128175000D03*
%TD*%
D10*
%TO.C,D2*%
X121456847Y-89856847D03*
X120343153Y-88743153D03*
%TD*%
D11*
%TO.C,R19*%
X103000000Y-129825000D03*
X103000000Y-128175000D03*
%TD*%
D13*
%TO.C,R31*%
X81675000Y-106100000D03*
X83325000Y-106100000D03*
%TD*%
D19*
%TO.C,R1*%
X148000000Y-94925000D03*
X148000000Y-96575000D03*
%TD*%
D13*
%TO.C,R11*%
X127475000Y-104400000D03*
X129125000Y-104400000D03*
%TD*%
D19*
%TO.C,R22*%
X116000000Y-128175000D03*
X116000000Y-129825000D03*
%TD*%
D14*
%TO.C,C2*%
X139525000Y-104200000D03*
X141075000Y-104200000D03*
%TD*%
D19*
%TO.C,R18*%
X85500000Y-128175000D03*
X85500000Y-129825000D03*
%TD*%
%TO.C,R12*%
X117300000Y-98675000D03*
X117300000Y-100325000D03*
%TD*%
D13*
%TO.C,R3*%
X70925000Y-91000000D03*
X72575000Y-91000000D03*
%TD*%
D20*
%TO.C,U2*%
X122750000Y-101716400D03*
X123249999Y-101716400D03*
X123750001Y-101716400D03*
X124250000Y-101716400D03*
X124749999Y-101716400D03*
X125250000Y-101716400D03*
X125750000Y-101716400D03*
X126250001Y-101716400D03*
X126750000Y-101716400D03*
X127249999Y-101716400D03*
X127750001Y-101716400D03*
X128250000Y-101716400D03*
D21*
X129716400Y-100250000D03*
X129716400Y-99750001D03*
X129716400Y-99249999D03*
X129716400Y-98750000D03*
X129716400Y-98250001D03*
X129716400Y-97750000D03*
X129716400Y-97250000D03*
X129716400Y-96749999D03*
X129716400Y-96250000D03*
X129716400Y-95750001D03*
X129716400Y-95249999D03*
X129716400Y-94750000D03*
D20*
X128250000Y-93283600D03*
X127750001Y-93283600D03*
X127249999Y-93283600D03*
X126750000Y-93283600D03*
X126250001Y-93283600D03*
X125750000Y-93283600D03*
X125250000Y-93283600D03*
X124749999Y-93283600D03*
X124250000Y-93283600D03*
X123750001Y-93283600D03*
X123249999Y-93283600D03*
X122750000Y-93283600D03*
D21*
X121283600Y-94750000D03*
X121283600Y-95249999D03*
X121283600Y-95750001D03*
X121283600Y-96250000D03*
X121283600Y-96749999D03*
X121283600Y-97250000D03*
X121283600Y-97750000D03*
X121283600Y-98250001D03*
X121283600Y-98750000D03*
X121283600Y-99249999D03*
X121283600Y-99750001D03*
X121283600Y-100250000D03*
%TD*%
D22*
%TO.C,U3*%
X80350000Y-89700000D03*
X80350000Y-92000000D03*
D23*
X86650000Y-92000000D03*
D22*
X80350000Y-94300000D03*
%TD*%
D11*
%TO.C,R6*%
X65000000Y-111075000D03*
X65000000Y-109425000D03*
%TD*%
D10*
%TO.C,D3*%
X124056847Y-89856847D03*
X122943153Y-88743153D03*
%TD*%
%TO.C,D1*%
X129256847Y-89856847D03*
X128143153Y-88743153D03*
%TD*%
D13*
%TO.C,R30*%
X81675000Y-110600000D03*
X83325000Y-110600000D03*
%TD*%
%TO.C,R10*%
X116425000Y-97250000D03*
X118075000Y-97250000D03*
%TD*%
D18*
%TO.C,D6*%
X83287500Y-107600000D03*
X81712500Y-107600000D03*
%TD*%
D19*
%TO.C,R24*%
X130500000Y-128175000D03*
X130500000Y-129825000D03*
%TD*%
%TO.C,R20*%
X101500000Y-128175000D03*
X101500000Y-129825000D03*
%TD*%
D24*
%TO.C,U1*%
X78137500Y-103550000D03*
X78137500Y-102600000D03*
X78137500Y-101650000D03*
X75862500Y-101650000D03*
X75862500Y-102600000D03*
X75862500Y-103550000D03*
%TD*%
D25*
%TO.C,U4*%
X94350000Y-107975000D03*
X94350000Y-107325000D03*
X94350000Y-106675000D03*
X94350000Y-106025000D03*
X94350000Y-105375000D03*
X94350000Y-104725000D03*
X94350000Y-104075000D03*
X94350000Y-103425000D03*
X94350000Y-102775000D03*
X94350000Y-102125000D03*
X94350000Y-101475000D03*
X94350000Y-100825000D03*
X94350000Y-100175000D03*
X94350000Y-99525000D03*
X87150000Y-99525000D03*
X87150000Y-100175000D03*
X87150000Y-100825000D03*
X87150000Y-101475000D03*
X87150000Y-102125000D03*
X87150000Y-102775000D03*
X87150000Y-103425000D03*
X87150000Y-104075000D03*
X87150000Y-104725000D03*
X87150000Y-105375000D03*
X87150000Y-106025000D03*
X87150000Y-106675000D03*
X87150000Y-107325000D03*
X87150000Y-107975000D03*
%TD*%
M02*
