%TF.GenerationSoftware,KiCad,Pcbnew,9.0.3*%
%TF.CreationDate,2026-07-24T12:58:51+09:00*%
%TF.ProjectId,pinkbug_STM32_Training,70696e6b-6275-4675-9f53-544d33325f54,rev?*%
%TF.SameCoordinates,Original*%
%TF.FileFunction,Soldermask,Bot*%
%TF.FilePolarity,Negative*%
%FSLAX46Y46*%
G04 Gerber Fmt 4.6, Leading zero omitted, Abs format (unit mm)*
G04 Created by KiCad (PCBNEW 9.0.3) date 2026-07-24 12:58:51*
%MOMM*%
%LPD*%
G01*
G04 APERTURE LIST*
G04 Aperture macros list*
%AMRoundRect*
0 Rectangle with rounded corners*
0 $1 Rounding radius*
0 $2 $3 $4 $5 $6 $7 $8 $9 X,Y pos of 4 corners*
0 Add a 4 corners polygon primitive as box body*
4,1,4,$2,$3,$4,$5,$6,$7,$8,$9,$2,$3,0*
0 Add four circle primitives for the rounded corners*
1,1,$1+$1,$2,$3*
1,1,$1+$1,$4,$5*
1,1,$1+$1,$6,$7*
1,1,$1+$1,$8,$9*
0 Add four rect primitives between the rounded corners*
20,1,$1+$1,$2,$3,$4,$5,0*
20,1,$1+$1,$4,$5,$6,$7,0*
20,1,$1+$1,$6,$7,$8,$9,0*
20,1,$1+$1,$8,$9,$2,$3,0*%
G04 Aperture macros list end*
%ADD10R,1.800000X1.800000*%
%ADD11C,1.800000*%
%ADD12RoundRect,0.750000X0.750000X-1.250000X0.750000X1.250000X-0.750000X1.250000X-0.750000X-1.250000X0*%
%ADD13C,5.600000*%
%ADD14R,1.700000X1.700000*%
%ADD15C,1.700000*%
%ADD16C,2.000000*%
%ADD17C,0.900000*%
%ADD18C,1.500000*%
%ADD19RoundRect,0.225000X0.225000X0.250000X-0.225000X0.250000X-0.225000X-0.250000X0.225000X-0.250000X0*%
%ADD20RoundRect,0.225000X0.250000X-0.225000X0.250000X0.225000X-0.250000X0.225000X-0.250000X-0.225000X0*%
%ADD21RoundRect,0.200000X0.275000X-0.200000X0.275000X0.200000X-0.275000X0.200000X-0.275000X-0.200000X0*%
%ADD22RoundRect,0.225000X-0.250000X0.225000X-0.250000X-0.225000X0.250000X-0.225000X0.250000X0.225000X0*%
%ADD23RoundRect,0.200000X0.335876X0.053033X0.053033X0.335876X-0.335876X-0.053033X-0.053033X-0.335876X0*%
%ADD24RoundRect,0.225000X-0.225000X-0.250000X0.225000X-0.250000X0.225000X0.250000X-0.225000X0.250000X0*%
%ADD25RoundRect,0.150000X0.587500X0.150000X-0.587500X0.150000X-0.587500X-0.150000X0.587500X-0.150000X0*%
%ADD26RoundRect,0.250000X-1.100000X0.325000X-1.100000X-0.325000X1.100000X-0.325000X1.100000X0.325000X0*%
%ADD27RoundRect,0.200000X0.200000X0.275000X-0.200000X0.275000X-0.200000X-0.275000X0.200000X-0.275000X0*%
%ADD28RoundRect,0.200000X-0.275000X0.200000X-0.275000X-0.200000X0.275000X-0.200000X0.275000X0.200000X0*%
G04 APERTURE END LIST*
D10*
%TO.C,RV1*%
X91800000Y-124500000D03*
D11*
X94300000Y-124500000D03*
X96800000Y-124500000D03*
D12*
X89900000Y-117500000D03*
X98700000Y-117500000D03*
%TD*%
D13*
%TO.C,H2*%
X148000000Y-132000000D03*
%TD*%
D14*
%TO.C,J1*%
X140560000Y-89500000D03*
D15*
X138020000Y-89500000D03*
X135480000Y-89500000D03*
X132940000Y-89500000D03*
%TD*%
D13*
%TO.C,H3*%
X67000000Y-91000000D03*
%TD*%
D16*
%TO.C,SW3*%
X105750000Y-128500000D03*
X112250000Y-128500000D03*
X105750000Y-133000000D03*
X112250000Y-133000000D03*
%TD*%
D17*
%TO.C,J2*%
X68000000Y-100800000D03*
X68000000Y-105200000D03*
%TD*%
D16*
%TO.C,SW2*%
X90750000Y-128500000D03*
X97250000Y-128500000D03*
X90750000Y-133000000D03*
X97250000Y-133000000D03*
%TD*%
D10*
%TO.C,RV2*%
X121000000Y-124500000D03*
D11*
X123500000Y-124500000D03*
X126000000Y-124500000D03*
D12*
X119100000Y-117500000D03*
X127900000Y-117500000D03*
%TD*%
D18*
%TO.C,BZ1*%
X110575000Y-103250000D03*
X102975000Y-103250000D03*
%TD*%
D13*
%TO.C,H1*%
X148000000Y-91000000D03*
%TD*%
%TO.C,H4*%
X67000000Y-132000000D03*
%TD*%
D16*
%TO.C,SW4*%
X120250000Y-128500000D03*
X126750000Y-128500000D03*
X120250000Y-133000000D03*
X126750000Y-133000000D03*
%TD*%
D10*
%TO.C,RV4*%
X135600000Y-124500000D03*
D11*
X138100000Y-124500000D03*
X140600000Y-124500000D03*
D12*
X133700000Y-117500000D03*
X142500000Y-117500000D03*
%TD*%
D16*
%TO.C,SW1*%
X144500000Y-101750000D03*
X138000000Y-101750000D03*
X144500000Y-97250000D03*
X138000000Y-97250000D03*
%TD*%
%TO.C,SW5*%
X134750000Y-128500000D03*
X141250000Y-128500000D03*
X134750000Y-133000000D03*
X141250000Y-133000000D03*
%TD*%
D10*
%TO.C,RV3*%
X106400000Y-124500000D03*
D11*
X108900000Y-124500000D03*
X111400000Y-124500000D03*
D12*
X104500000Y-117500000D03*
X113300000Y-117500000D03*
%TD*%
D14*
%TO.C,J3*%
X110080000Y-89500000D03*
D15*
X107540000Y-89500000D03*
X105000000Y-89500000D03*
X102460000Y-89500000D03*
X99920000Y-89500000D03*
%TD*%
D19*
%TO.C,C6*%
X126775000Y-100500000D03*
X125225000Y-100500000D03*
%TD*%
D20*
%TO.C,C12*%
X80250000Y-91775000D03*
X80250000Y-90225000D03*
%TD*%
D21*
%TO.C,R27*%
X109500000Y-118325000D03*
X109500000Y-116675000D03*
%TD*%
D22*
%TO.C,C17*%
X90000000Y-98975000D03*
X90000000Y-100525000D03*
%TD*%
%TO.C,C13*%
X93500000Y-116725000D03*
X93500000Y-118275000D03*
%TD*%
D23*
%TO.C,R14*%
X121483363Y-89883363D03*
X120316637Y-88716637D03*
%TD*%
D24*
%TO.C,C9*%
X122225000Y-93000000D03*
X123775000Y-93000000D03*
%TD*%
D19*
%TO.C,C8*%
X126775000Y-102000000D03*
X125225000Y-102000000D03*
%TD*%
D22*
%TO.C,C15*%
X108000000Y-116725000D03*
X108000000Y-118275000D03*
%TD*%
D21*
%TO.C,R26*%
X124500000Y-118325000D03*
X124500000Y-116675000D03*
%TD*%
D23*
%TO.C,R16*%
X126683363Y-89883363D03*
X125516637Y-88716637D03*
%TD*%
D20*
%TO.C,C18*%
X94000000Y-105775000D03*
X94000000Y-104225000D03*
%TD*%
D25*
%TO.C,Q1*%
X106437500Y-99050000D03*
X106437500Y-100950000D03*
X104562500Y-100000000D03*
%TD*%
D26*
%TO.C,C11*%
X80750000Y-94525000D03*
X80750000Y-97475000D03*
%TD*%
D23*
%TO.C,R15*%
X124083363Y-89883363D03*
X122916637Y-88716637D03*
%TD*%
D22*
%TO.C,C7*%
X129500000Y-94225000D03*
X129500000Y-95775000D03*
%TD*%
D20*
%TO.C,C5*%
X119500000Y-101275000D03*
X119500000Y-99725000D03*
%TD*%
D22*
%TO.C,C16*%
X137500000Y-116725000D03*
X137500000Y-118275000D03*
%TD*%
D21*
%TO.C,R28*%
X139000000Y-118325000D03*
X139000000Y-116675000D03*
%TD*%
%TO.C,R29*%
X90750000Y-104325000D03*
X90750000Y-102675000D03*
%TD*%
D20*
%TO.C,C10*%
X121000000Y-101275000D03*
X121000000Y-99725000D03*
%TD*%
D21*
%TO.C,R8*%
X98250000Y-109825000D03*
X98250000Y-108175000D03*
%TD*%
%TO.C,R5*%
X108500000Y-100825000D03*
X108500000Y-99175000D03*
%TD*%
D27*
%TO.C,R32*%
X107650000Y-105500000D03*
X106000000Y-105500000D03*
%TD*%
D22*
%TO.C,C14*%
X123000000Y-116725000D03*
X123000000Y-118275000D03*
%TD*%
%TO.C,C20*%
X86250000Y-102225000D03*
X86250000Y-103775000D03*
%TD*%
D28*
%TO.C,R7*%
X98250000Y-105175000D03*
X98250000Y-106825000D03*
%TD*%
D23*
%TO.C,R13*%
X129283363Y-89883363D03*
X128116637Y-88716637D03*
%TD*%
D21*
%TO.C,R25*%
X95000000Y-118325000D03*
X95000000Y-116675000D03*
%TD*%
D22*
%TO.C,C19*%
X87750000Y-102225000D03*
X87750000Y-103775000D03*
%TD*%
M02*
